%TF.GenerationSoftware,KiCad,Pcbnew,8.0.4*%
%TF.CreationDate,2024-09-11T17:50:29+02:00*%
%TF.ProjectId,PicoPAC,5069636f-5041-4432-9e6b-696361645f70,rev?*%
%TF.SameCoordinates,Original*%
%TF.FileFunction,Copper,L2,Bot*%
%TF.FilePolarity,Positive*%
%FSLAX46Y46*%
G04 Gerber Fmt 4.6, Leading zero omitted, Abs format (unit mm)*
G04 Created by KiCad (PCBNEW 8.0.4) date 2024-09-11 17:50:29*
%MOMM*%
%LPD*%
G01*
G04 APERTURE LIST*
%TA.AperFunction,SMDPad,CuDef*%
%ADD10R,2.000000X8.000000*%
%TD*%
%TA.AperFunction,ComponentPad*%
%ADD11C,2.000000*%
%TD*%
%TA.AperFunction,ComponentPad*%
%ADD12R,1.700000X1.700000*%
%TD*%
%TA.AperFunction,ComponentPad*%
%ADD13O,1.700000X1.700000*%
%TD*%
%TA.AperFunction,ComponentPad*%
%ADD14R,1.600000X1.600000*%
%TD*%
%TA.AperFunction,ComponentPad*%
%ADD15O,1.600000X1.600000*%
%TD*%
%TA.AperFunction,ViaPad*%
%ADD16C,0.800000*%
%TD*%
%TA.AperFunction,Conductor*%
%ADD17C,1.000000*%
%TD*%
%TA.AperFunction,Conductor*%
%ADD18C,0.250000*%
%TD*%
G04 APERTURE END LIST*
D10*
%TO.P,J1,A,#WR*%
%TO.N,~{WR}*%
X26500000Y-134000000D03*
%TO.P,J1,B,GND*%
%TO.N,GND*%
X30429000Y-134000000D03*
%TO.P,J1,C,GND*%
X34357000Y-134000000D03*
%TO.P,J1,D,5V*%
%TO.N,+5V*%
X38286000Y-134000000D03*
%TO.P,J1,E,#CS*%
%TO.N,~{CS}*%
X42214000Y-134000000D03*
%TO.P,J1,F,#PSEN*%
%TO.N,~{PSEN}*%
X46143000Y-134000000D03*
%TO.P,J1,G,A0*%
%TO.N,A0*%
X50071000Y-134000000D03*
%TO.P,J1,H,A1*%
%TO.N,A1*%
X54000000Y-134000000D03*
%TO.P,J1,J,A2*%
%TO.N,A2*%
X57929000Y-134000000D03*
%TO.P,J1,K,A3*%
%TO.N,A3*%
X61857000Y-134000000D03*
%TO.P,J1,L,A4*%
%TO.N,A4*%
X65786000Y-134000000D03*
%TO.P,J1,M,A5*%
%TO.N,A5*%
X69714000Y-134000000D03*
%TO.P,J1,N,A7*%
%TO.N,A7*%
X73643000Y-134000000D03*
%TO.P,J1,P,A6*%
%TO.N,A6*%
X77571000Y-134000000D03*
%TO.P,J1,R,A8*%
%TO.N,A8*%
X81500000Y-134000000D03*
%TD*%
D11*
%TO.P,SW1,1,1*%
%TO.N,RST*%
X72275000Y-58525000D03*
X78775000Y-58525000D03*
%TO.P,SW1,2,2*%
%TO.N,GND*%
X72275000Y-63025000D03*
X78775000Y-63025000D03*
%TD*%
D12*
%TO.P,J3,1,Pin_1*%
%TO.N,unconnected-(J3-Pin_1-Pad1)*%
X61100000Y-56120000D03*
D13*
%TO.P,J3,2,Pin_2*%
%TO.N,Net-(D1-K)*%
X61100000Y-58660000D03*
%TO.P,J3,3,Pin_3*%
%TO.N,GND*%
X61100000Y-61200000D03*
%TO.P,J3,4,Pin_4*%
%TO.N,unconnected-(J3-Pin_4-Pad4)*%
X61100000Y-63740000D03*
%TO.P,J3,5,Pin_5*%
%TO.N,unconnected-(J3-Pin_5-Pad5)*%
X61100000Y-66280000D03*
%TO.P,J3,6,Pin_6*%
%TO.N,GND*%
X61100000Y-68820000D03*
%TO.P,J3,7,Pin_7*%
%TO.N,RST*%
X61100000Y-71360000D03*
%TO.P,J3,8,Pin_8*%
%TO.N,unconnected-(J3-Pin_8-Pad8)*%
X61100000Y-73900000D03*
%TO.P,J3,9,Pin_9*%
%TO.N,unconnected-(J3-Pin_9-Pad9)*%
X61100000Y-76440000D03*
%TO.P,J3,10,Pin_10*%
%TO.N,T0*%
X61100000Y-78980000D03*
%TO.P,J3,11,Pin_11*%
%TO.N,~{CS}*%
X61100000Y-81520000D03*
%TO.P,J3,12,Pin_12*%
%TO.N,GND*%
X61100000Y-84060000D03*
%TO.P,J3,13,Pin_13*%
%TO.N,unconnected-(J3-Pin_13-Pad13)*%
X61100000Y-86600000D03*
%TO.P,J3,14,Pin_14*%
%TO.N,CS*%
X61100000Y-89140000D03*
%TO.P,J3,15,Pin_15*%
%TO.N,~{WR}*%
X61100000Y-91680000D03*
%TO.P,J3,16,Pin_16*%
%TO.N,~{PSEN}*%
X61100000Y-94220000D03*
%TO.P,J3,17,Pin_17*%
%TO.N,D7*%
X61100000Y-96760000D03*
%TO.P,J3,18,Pin_18*%
%TO.N,D6*%
X61100000Y-99300000D03*
%TO.P,J3,19,Pin_19*%
%TO.N,D5*%
X61100000Y-101840000D03*
%TO.P,J3,20,Pin_20*%
%TO.N,D4*%
X61100000Y-104380000D03*
%TD*%
D14*
%TO.P,D1,1,K*%
%TO.N,Net-(D1-K)*%
X32015000Y-99375000D03*
D15*
%TO.P,D1,2,A*%
%TO.N,+5V*%
X32015000Y-91755000D03*
%TD*%
D12*
%TO.P,J2,1,Pin_1*%
%TO.N,A0*%
X43300000Y-56125000D03*
D13*
%TO.P,J2,2,Pin_2*%
%TO.N,A1*%
X43300000Y-58665000D03*
%TO.P,J2,3,Pin_3*%
%TO.N,A2*%
X43300000Y-61205000D03*
%TO.P,J2,4,Pin_4*%
%TO.N,A3*%
X43300000Y-63745000D03*
%TO.P,J2,5,Pin_5*%
%TO.N,A4*%
X43300000Y-66285000D03*
%TO.P,J2,6,Pin_6*%
%TO.N,GND*%
X43300000Y-68825000D03*
%TO.P,J2,7,Pin_7*%
%TO.N,A5*%
X43300000Y-71365000D03*
%TO.P,J2,8,Pin_8*%
%TO.N,A6*%
X43300000Y-73905000D03*
%TO.P,J2,9,Pin_9*%
%TO.N,A7*%
X43300000Y-76445000D03*
%TO.P,J2,10,Pin_10*%
%TO.N,A8*%
X43300000Y-78985000D03*
%TO.P,J2,11,Pin_11*%
%TO.N,A9*%
X43300000Y-81525000D03*
%TO.P,J2,12,Pin_12*%
%TO.N,A10*%
X43300000Y-84065000D03*
%TO.P,J2,13,Pin_13*%
%TO.N,A11*%
X43300000Y-86605000D03*
%TO.P,J2,14,Pin_14*%
%TO.N,A12*%
X43300000Y-89145000D03*
%TO.P,J2,15,Pin_15*%
%TO.N,GND*%
X43300000Y-91685000D03*
%TO.P,J2,16,Pin_16*%
%TO.N,A13*%
X43300000Y-94225000D03*
%TO.P,J2,17,Pin_17*%
%TO.N,D0*%
X43300000Y-96765000D03*
%TO.P,J2,18,Pin_18*%
%TO.N,D1*%
X43300000Y-99305000D03*
%TO.P,J2,19,Pin_19*%
%TO.N,D2*%
X43300000Y-101845000D03*
%TO.P,J2,20,Pin_20*%
%TO.N,D3*%
X43300000Y-104385000D03*
%TD*%
D16*
%TO.N,GND*%
X35740200Y-104834500D03*
%TO.N,A10*%
X63575000Y-111780300D03*
%TO.N,~{CS}*%
X43677400Y-127266100D03*
X56442500Y-89811600D03*
%TO.N,~{PSEN}*%
X45415700Y-127003600D03*
%TO.N,A12*%
X67449900Y-116427600D03*
%TO.N,A8*%
X45702700Y-79611500D03*
%TO.N,A13*%
X68956600Y-119881600D03*
%TO.N,~{WR}*%
X32385400Y-124231600D03*
%TD*%
D17*
%TO.N,+5V*%
X38320000Y-134000000D02*
X38320000Y-132625000D01*
X38320000Y-132625000D02*
X38320000Y-131250000D01*
D18*
X38320000Y-99186700D02*
X38320000Y-131250000D01*
X38286000Y-132659000D02*
X38286000Y-134000000D01*
X38320000Y-132625000D02*
X38286000Y-132659000D01*
X32015000Y-92881700D02*
X38320000Y-99186700D01*
X32015000Y-91755000D02*
X32015000Y-92881700D01*
D17*
%TO.N,GND*%
X34400000Y-134000000D02*
X34400000Y-132968700D01*
D18*
X61628400Y-62376700D02*
X61100000Y-62376700D01*
X43300000Y-90508300D02*
X43667800Y-90508300D01*
X43300000Y-69413300D02*
X59330000Y-69413300D01*
X42932300Y-70001700D02*
X43300000Y-70001700D01*
X32984300Y-129673300D02*
X32984300Y-130521800D01*
X44476700Y-88618500D02*
X43826500Y-87968300D01*
X43300000Y-69413300D02*
X43300000Y-70001700D01*
X62276700Y-66834400D02*
X62276700Y-63025000D01*
D17*
X34400000Y-131937500D02*
X34400000Y-131250000D01*
D18*
X61467800Y-67643300D02*
X62276700Y-66834400D01*
X41671300Y-86645100D02*
X41671300Y-71262700D01*
X59330000Y-69413300D02*
X59923300Y-68820000D01*
X30429000Y-134000000D02*
X30429000Y-129673300D01*
X61100000Y-61200000D02*
X61100000Y-62376700D01*
X30429000Y-129673300D02*
X32984300Y-129673300D01*
D17*
X34400000Y-132968700D02*
X34400000Y-131937500D01*
D18*
X44476700Y-89699400D02*
X44476700Y-88618500D01*
X61100000Y-68820000D02*
X61100000Y-67643300D01*
X61100000Y-67643300D02*
X61467800Y-67643300D01*
X32984300Y-129673300D02*
X35740200Y-126917400D01*
X41671300Y-71262700D02*
X42932300Y-70001700D01*
X34357000Y-133011700D02*
X34357000Y-134000000D01*
X43300000Y-91685000D02*
X43300000Y-90508300D01*
X62276700Y-63025000D02*
X61628400Y-62376700D01*
X43667800Y-90508300D02*
X44476700Y-89699400D01*
X32984300Y-130521800D02*
X34400000Y-131937500D01*
X34400000Y-132968700D02*
X34357000Y-133011700D01*
X35740200Y-126917400D02*
X35740200Y-104834500D01*
X43300000Y-68825000D02*
X43300000Y-69413300D01*
X61100000Y-68820000D02*
X59923300Y-68820000D01*
X42994500Y-87968300D02*
X41671300Y-86645100D01*
X62276700Y-63025000D02*
X72275000Y-63025000D01*
X72275000Y-63025000D02*
X78775000Y-63025000D01*
X43826500Y-87968300D02*
X42994500Y-87968300D01*
%TO.N,A10*%
X43300000Y-85241700D02*
X43667700Y-85241700D01*
X43300000Y-84065000D02*
X43300000Y-85241700D01*
X45243000Y-86817000D02*
X45243000Y-93448300D01*
X43667700Y-85241700D02*
X45243000Y-86817000D01*
X45243000Y-93448300D02*
X63575000Y-111780300D01*
%TO.N,A0*%
X43300000Y-56125000D02*
X43300000Y-57301700D01*
X39367500Y-115145700D02*
X39367500Y-60866500D01*
X50071000Y-134000000D02*
X50071000Y-131000000D01*
X42932300Y-57301700D02*
X43300000Y-57301700D01*
X50071000Y-131000000D02*
X50071000Y-125849200D01*
X39367500Y-60866500D02*
X42932300Y-57301700D01*
X50071000Y-125849200D02*
X39367500Y-115145700D01*
%TO.N,A5*%
X69713900Y-129673300D02*
X69714000Y-129673300D01*
X42932200Y-72541700D02*
X42123300Y-73350600D01*
X43300000Y-72541700D02*
X42932200Y-72541700D01*
X69713900Y-116891400D02*
X69713900Y-129673300D01*
X43300000Y-71365000D02*
X43300000Y-72541700D01*
X42123300Y-82080100D02*
X42931500Y-82888300D01*
X54919300Y-94020100D02*
X54919300Y-102096800D01*
X42931500Y-82888300D02*
X43787500Y-82888300D01*
X43787500Y-82888300D02*
X54919300Y-94020100D01*
X54919300Y-102096800D02*
X69713900Y-116891400D01*
X42123300Y-73350600D02*
X42123300Y-82080100D01*
X69714000Y-134000000D02*
X69714000Y-129673300D01*
%TO.N,A2*%
X57929000Y-129673300D02*
X40271700Y-112016000D01*
X40271700Y-65042300D02*
X42932300Y-62381700D01*
X42932300Y-62381700D02*
X43300000Y-62381700D01*
X40271700Y-112016000D02*
X40271700Y-65042300D01*
X43300000Y-61205000D02*
X43300000Y-62381700D01*
X57929000Y-134000000D02*
X57929000Y-129673300D01*
%TO.N,~{CS}*%
X56442500Y-89811600D02*
X56442500Y-86986500D01*
X60732300Y-82696700D02*
X61100000Y-82696700D01*
X61100000Y-81520000D02*
X61100000Y-82696700D01*
X43677400Y-128209900D02*
X43677400Y-127266100D01*
X42214000Y-129673300D02*
X43677400Y-128209900D01*
X42214000Y-134000000D02*
X42214000Y-129673300D01*
X56442500Y-86986500D02*
X60732300Y-82696700D01*
%TO.N,A1*%
X39819200Y-114855200D02*
X39819200Y-62956800D01*
X42934300Y-59841700D02*
X43300000Y-59841700D01*
X43300000Y-58665000D02*
X43300000Y-59841700D01*
X54000000Y-131000000D02*
X54000000Y-129036000D01*
X54000000Y-134000000D02*
X54000000Y-131000000D01*
X39819200Y-62956800D02*
X42934300Y-59841700D01*
X54000000Y-129036000D02*
X39819200Y-114855200D01*
%TO.N,A7*%
X43300000Y-77621700D02*
X43600900Y-77621700D01*
X55375600Y-101665500D02*
X73643000Y-119932900D01*
X44501000Y-78521800D02*
X44501000Y-81578200D01*
X55375600Y-92452800D02*
X55375600Y-101665500D01*
X73643000Y-119932900D02*
X73643000Y-134000000D01*
X43300000Y-76445000D02*
X43300000Y-77621700D01*
X44501000Y-81578200D02*
X55375600Y-92452800D01*
X43600900Y-77621700D02*
X44501000Y-78521800D01*
%TO.N,A6*%
X43663600Y-75081700D02*
X44976000Y-76394100D01*
X43300000Y-73905000D02*
X43300000Y-75081700D01*
X56278900Y-91321200D02*
X56278900Y-101875700D01*
X43300000Y-75081700D02*
X43663600Y-75081700D01*
X77571000Y-134000000D02*
X77571000Y-129673300D01*
X44976000Y-76394100D02*
X44976000Y-80018300D01*
X77571000Y-123167800D02*
X77571000Y-129673300D01*
X56278900Y-101875700D02*
X77571000Y-123167800D01*
X44976000Y-80018300D02*
X56278900Y-91321200D01*
%TO.N,A4*%
X41177300Y-69202900D02*
X42918500Y-67461700D01*
X43300000Y-66285000D02*
X43300000Y-67461700D01*
X41177300Y-103926500D02*
X41177300Y-69202900D01*
X42918500Y-67461700D02*
X43300000Y-67461700D01*
X65786000Y-134000000D02*
X65786000Y-128535200D01*
X65786000Y-128535200D02*
X41177300Y-103926500D01*
%TO.N,~{PSEN}*%
X46143000Y-127730900D02*
X45415700Y-127003600D01*
X46143000Y-134000000D02*
X46143000Y-131000000D01*
X46143000Y-131000000D02*
X46143000Y-127730900D01*
%TO.N,A12*%
X43707900Y-92952000D02*
X42858200Y-92952000D01*
X67449900Y-116427600D02*
X67183500Y-116427600D01*
X42858200Y-92952000D02*
X42115500Y-92209300D01*
X42115500Y-92209300D02*
X42115500Y-90329500D01*
X67183500Y-116427600D02*
X43707900Y-92952000D01*
X42115500Y-90329500D02*
X43300000Y-89145000D01*
%TO.N,A8*%
X59133200Y-93529900D02*
X59133200Y-104077400D01*
X45702700Y-80099400D02*
X59133200Y-93529900D01*
X81500000Y-126444200D02*
X81500000Y-134000000D01*
X45702700Y-79611500D02*
X45702700Y-80099400D01*
X59133200Y-104077400D02*
X81500000Y-126444200D01*
%TO.N,A13*%
X68956600Y-119881600D02*
X43300000Y-94225000D01*
%TO.N,A3*%
X40725600Y-107668400D02*
X40725600Y-67138000D01*
X61857000Y-128799800D02*
X40725600Y-107668400D01*
X61857000Y-134000000D02*
X61857000Y-128799800D01*
X40725600Y-67138000D02*
X42941900Y-64921700D01*
X42941900Y-64921700D02*
X43300000Y-64921700D01*
X43300000Y-63745000D02*
X43300000Y-64921700D01*
%TO.N,~{WR}*%
X26500000Y-134000000D02*
X26500000Y-129673300D01*
X26943700Y-129673300D02*
X32385400Y-124231600D01*
X26500000Y-129673300D02*
X26943700Y-129673300D01*
%TO.N,RST*%
X72275000Y-58525000D02*
X78775000Y-58525000D01*
%TD*%
M02*
