%TF.GenerationSoftware,KiCad,Pcbnew,8.0.4*%
%TF.CreationDate,2024-09-11T17:50:29+02:00*%
%TF.ProjectId,PicoPAC,5069636f-5041-4432-9e6b-696361645f70,rev?*%
%TF.SameCoordinates,Original*%
%TF.FileFunction,Soldermask,Top*%
%TF.FilePolarity,Negative*%
%FSLAX46Y46*%
G04 Gerber Fmt 4.6, Leading zero omitted, Abs format (unit mm)*
G04 Created by KiCad (PCBNEW 8.0.4) date 2024-09-11 17:50:29*
%MOMM*%
%LPD*%
G01*
G04 APERTURE LIST*
G04 APERTURE END LIST*
G36*
X88160301Y-129564237D02*
G01*
X88161821Y-129564612D01*
X88162361Y-129565090D01*
X88176891Y-129571109D01*
X88193000Y-129610000D01*
X88193000Y-138500000D01*
X88183760Y-138522307D01*
X88183387Y-138523821D01*
X88182910Y-138524359D01*
X88176891Y-138538891D01*
X88138000Y-138555000D01*
X88133329Y-138555000D01*
X22113178Y-138555000D01*
X22098000Y-138555000D01*
X22075694Y-138545760D01*
X22074178Y-138545387D01*
X22073638Y-138544909D01*
X22059109Y-138538891D01*
X22043000Y-138500000D01*
X22043000Y-129610000D01*
X22052236Y-129587699D01*
X22052612Y-129586178D01*
X22053091Y-129585636D01*
X22059109Y-129571109D01*
X22098000Y-129555000D01*
X88138000Y-129555000D01*
X88160301Y-129564237D01*
G37*
G36*
X27415208Y-108519196D02*
G01*
X27826873Y-108576621D01*
X28231483Y-108671785D01*
X28625587Y-108803875D01*
X29005823Y-108971765D01*
X29368945Y-109174023D01*
X29711856Y-109408922D01*
X30031630Y-109674460D01*
X30325540Y-109968370D01*
X30591078Y-110288144D01*
X30825977Y-110631055D01*
X31028235Y-110994177D01*
X31196125Y-111374413D01*
X31328215Y-111768517D01*
X31423379Y-112173127D01*
X31480804Y-112584792D01*
X31500000Y-113000000D01*
X31480804Y-113415208D01*
X31423379Y-113826873D01*
X31328215Y-114231483D01*
X31196125Y-114625587D01*
X31028235Y-115005823D01*
X30825977Y-115368945D01*
X30591078Y-115711856D01*
X30325540Y-116031630D01*
X30031630Y-116325540D01*
X29711856Y-116591078D01*
X29368945Y-116825977D01*
X29005823Y-117028235D01*
X28625587Y-117196125D01*
X28231483Y-117328215D01*
X27826873Y-117423379D01*
X27415208Y-117480804D01*
X27000000Y-117500000D01*
X26584792Y-117480804D01*
X26173127Y-117423379D01*
X25768517Y-117328215D01*
X25374413Y-117196125D01*
X24994177Y-117028235D01*
X24631055Y-116825977D01*
X24288144Y-116591078D01*
X23968370Y-116325540D01*
X23674460Y-116031630D01*
X23408922Y-115711856D01*
X23174023Y-115368945D01*
X22971765Y-115005823D01*
X22803875Y-114625587D01*
X22671785Y-114231483D01*
X22576621Y-113826873D01*
X22519196Y-113415208D01*
X22500000Y-113000000D01*
X22519196Y-112584792D01*
X22576621Y-112173127D01*
X22671785Y-111768517D01*
X22803875Y-111374413D01*
X22971765Y-110994177D01*
X23174023Y-110631055D01*
X23408922Y-110288144D01*
X23674460Y-109968370D01*
X23968370Y-109674460D01*
X24288144Y-109408922D01*
X24631055Y-109174023D01*
X24994177Y-108971765D01*
X25374413Y-108803875D01*
X25768517Y-108671785D01*
X26173127Y-108576621D01*
X26584792Y-108519196D01*
X27000000Y-108500000D01*
X27415208Y-108519196D01*
G37*
G36*
X81415208Y-108519196D02*
G01*
X81826873Y-108576621D01*
X82231483Y-108671785D01*
X82625587Y-108803875D01*
X83005823Y-108971765D01*
X83368945Y-109174023D01*
X83711856Y-109408922D01*
X84031630Y-109674460D01*
X84325540Y-109968370D01*
X84591078Y-110288144D01*
X84825977Y-110631055D01*
X85028235Y-110994177D01*
X85196125Y-111374413D01*
X85328215Y-111768517D01*
X85423379Y-112173127D01*
X85480804Y-112584792D01*
X85500000Y-113000000D01*
X85480804Y-113415208D01*
X85423379Y-113826873D01*
X85328215Y-114231483D01*
X85196125Y-114625587D01*
X85028235Y-115005823D01*
X84825977Y-115368945D01*
X84591078Y-115711856D01*
X84325540Y-116031630D01*
X84031630Y-116325540D01*
X83711856Y-116591078D01*
X83368945Y-116825977D01*
X83005823Y-117028235D01*
X82625587Y-117196125D01*
X82231483Y-117328215D01*
X81826873Y-117423379D01*
X81415208Y-117480804D01*
X81000000Y-117500000D01*
X80584792Y-117480804D01*
X80173127Y-117423379D01*
X79768517Y-117328215D01*
X79374413Y-117196125D01*
X78994177Y-117028235D01*
X78631055Y-116825977D01*
X78288144Y-116591078D01*
X77968370Y-116325540D01*
X77674460Y-116031630D01*
X77408922Y-115711856D01*
X77174023Y-115368945D01*
X76971765Y-115005823D01*
X76803875Y-114625587D01*
X76671785Y-114231483D01*
X76576621Y-113826873D01*
X76519196Y-113415208D01*
X76500000Y-113000000D01*
X76519196Y-112584792D01*
X76576621Y-112173127D01*
X76671785Y-111768517D01*
X76803875Y-111374413D01*
X76971765Y-110994177D01*
X77174023Y-110631055D01*
X77408922Y-110288144D01*
X77674460Y-109968370D01*
X77968370Y-109674460D01*
X78288144Y-109408922D01*
X78631055Y-109174023D01*
X78994177Y-108971765D01*
X79374413Y-108803875D01*
X79768517Y-108671785D01*
X80173127Y-108576621D01*
X80584792Y-108519196D01*
X81000000Y-108500000D01*
X81415208Y-108519196D01*
G37*
G36*
X43343973Y-103489135D02*
G01*
X43394159Y-103489135D01*
X43437496Y-103498346D01*
X43475616Y-103502101D01*
X43523506Y-103516628D01*
X43578363Y-103528288D01*
X43613463Y-103543915D01*
X43644492Y-103553328D01*
X43693803Y-103579685D01*
X43750400Y-103604884D01*
X43776713Y-103624002D01*
X43800120Y-103636513D01*
X43847860Y-103675693D01*
X43902753Y-103715575D01*
X43920578Y-103735372D01*
X43936533Y-103748466D01*
X43979410Y-103800711D01*
X44028763Y-103855523D01*
X44039129Y-103873477D01*
X44048486Y-103884879D01*
X44083105Y-103949647D01*
X44122922Y-104018612D01*
X44127501Y-104032706D01*
X44131671Y-104040507D01*
X44154656Y-104116281D01*
X44181115Y-104197713D01*
X44182046Y-104206576D01*
X44182898Y-104209383D01*
X44191184Y-104293518D01*
X44200800Y-104385000D01*
X44191183Y-104476489D01*
X44182898Y-104560616D01*
X44182046Y-104563422D01*
X44181115Y-104572287D01*
X44154651Y-104653732D01*
X44131671Y-104729492D01*
X44127502Y-104737290D01*
X44122922Y-104751388D01*
X44083098Y-104820365D01*
X44048486Y-104885120D01*
X44039131Y-104896518D01*
X44028763Y-104914477D01*
X43979401Y-104969298D01*
X43936533Y-105021533D01*
X43920582Y-105034623D01*
X43902753Y-105054425D01*
X43847850Y-105094314D01*
X43800120Y-105133486D01*
X43776719Y-105145994D01*
X43750400Y-105165116D01*
X43693792Y-105190319D01*
X43644492Y-105216671D01*
X43613470Y-105226081D01*
X43578363Y-105241712D01*
X43523495Y-105253374D01*
X43475616Y-105267898D01*
X43437505Y-105271651D01*
X43394159Y-105280865D01*
X43343962Y-105280865D01*
X43300000Y-105285195D01*
X43256037Y-105280865D01*
X43205841Y-105280865D01*
X43162495Y-105271651D01*
X43124383Y-105267898D01*
X43076501Y-105253373D01*
X43021637Y-105241712D01*
X42986531Y-105226082D01*
X42955507Y-105216671D01*
X42906202Y-105190316D01*
X42849600Y-105165116D01*
X42823283Y-105145996D01*
X42799879Y-105133486D01*
X42752141Y-105094308D01*
X42697247Y-105054425D01*
X42679420Y-105034626D01*
X42663466Y-105021533D01*
X42620587Y-104969285D01*
X42571237Y-104914477D01*
X42560871Y-104896522D01*
X42551513Y-104885120D01*
X42516888Y-104820341D01*
X42477078Y-104751388D01*
X42472499Y-104737295D01*
X42468328Y-104729492D01*
X42445332Y-104653686D01*
X42418885Y-104572287D01*
X42417953Y-104563427D01*
X42417101Y-104560616D01*
X42408800Y-104476338D01*
X42399200Y-104385000D01*
X42408799Y-104293669D01*
X42417101Y-104209383D01*
X42417953Y-104206571D01*
X42418885Y-104197713D01*
X42445328Y-104116327D01*
X42468328Y-104040507D01*
X42472499Y-104032701D01*
X42477078Y-104018612D01*
X42516881Y-103949670D01*
X42551513Y-103884879D01*
X42560873Y-103873473D01*
X42571237Y-103855523D01*
X42620577Y-103800724D01*
X42663466Y-103748466D01*
X42679424Y-103735369D01*
X42697247Y-103715575D01*
X42752130Y-103675699D01*
X42799879Y-103636513D01*
X42823288Y-103624000D01*
X42849600Y-103604884D01*
X42906190Y-103579688D01*
X42955507Y-103553328D01*
X42986538Y-103543914D01*
X43021637Y-103528288D01*
X43076490Y-103516628D01*
X43124383Y-103502101D01*
X43162504Y-103498346D01*
X43205841Y-103489135D01*
X43256027Y-103489135D01*
X43300000Y-103484804D01*
X43343973Y-103489135D01*
G37*
G36*
X61143973Y-103484135D02*
G01*
X61194159Y-103484135D01*
X61237496Y-103493346D01*
X61275616Y-103497101D01*
X61323506Y-103511628D01*
X61378363Y-103523288D01*
X61413463Y-103538915D01*
X61444492Y-103548328D01*
X61493803Y-103574685D01*
X61550400Y-103599884D01*
X61576713Y-103619002D01*
X61600120Y-103631513D01*
X61647860Y-103670693D01*
X61702753Y-103710575D01*
X61720578Y-103730372D01*
X61736533Y-103743466D01*
X61779410Y-103795711D01*
X61828763Y-103850523D01*
X61839129Y-103868477D01*
X61848486Y-103879879D01*
X61883105Y-103944647D01*
X61922922Y-104013612D01*
X61927501Y-104027706D01*
X61931671Y-104035507D01*
X61954656Y-104111281D01*
X61981115Y-104192713D01*
X61982046Y-104201576D01*
X61982898Y-104204383D01*
X61991184Y-104288518D01*
X62000800Y-104380000D01*
X61991183Y-104471489D01*
X61982898Y-104555616D01*
X61982046Y-104558422D01*
X61981115Y-104567287D01*
X61954651Y-104648732D01*
X61931671Y-104724492D01*
X61927502Y-104732290D01*
X61922922Y-104746388D01*
X61883098Y-104815365D01*
X61848486Y-104880120D01*
X61839131Y-104891518D01*
X61828763Y-104909477D01*
X61779401Y-104964298D01*
X61736533Y-105016533D01*
X61720582Y-105029623D01*
X61702753Y-105049425D01*
X61647850Y-105089314D01*
X61600120Y-105128486D01*
X61576719Y-105140994D01*
X61550400Y-105160116D01*
X61493792Y-105185319D01*
X61444492Y-105211671D01*
X61413470Y-105221081D01*
X61378363Y-105236712D01*
X61323495Y-105248374D01*
X61275616Y-105262898D01*
X61237505Y-105266651D01*
X61194159Y-105275865D01*
X61143962Y-105275865D01*
X61100000Y-105280195D01*
X61056037Y-105275865D01*
X61005841Y-105275865D01*
X60962495Y-105266651D01*
X60924383Y-105262898D01*
X60876501Y-105248373D01*
X60821637Y-105236712D01*
X60786531Y-105221082D01*
X60755507Y-105211671D01*
X60706202Y-105185316D01*
X60649600Y-105160116D01*
X60623283Y-105140996D01*
X60599879Y-105128486D01*
X60552141Y-105089308D01*
X60497247Y-105049425D01*
X60479420Y-105029626D01*
X60463466Y-105016533D01*
X60420587Y-104964285D01*
X60371237Y-104909477D01*
X60360871Y-104891522D01*
X60351513Y-104880120D01*
X60316888Y-104815341D01*
X60277078Y-104746388D01*
X60272499Y-104732295D01*
X60268328Y-104724492D01*
X60245332Y-104648686D01*
X60218885Y-104567287D01*
X60217953Y-104558427D01*
X60217101Y-104555616D01*
X60208800Y-104471338D01*
X60199200Y-104380000D01*
X60208799Y-104288669D01*
X60217101Y-104204383D01*
X60217953Y-104201571D01*
X60218885Y-104192713D01*
X60245328Y-104111327D01*
X60268328Y-104035507D01*
X60272499Y-104027701D01*
X60277078Y-104013612D01*
X60316881Y-103944670D01*
X60351513Y-103879879D01*
X60360873Y-103868473D01*
X60371237Y-103850523D01*
X60420577Y-103795724D01*
X60463466Y-103743466D01*
X60479424Y-103730369D01*
X60497247Y-103710575D01*
X60552130Y-103670699D01*
X60599879Y-103631513D01*
X60623288Y-103619000D01*
X60649600Y-103599884D01*
X60706190Y-103574688D01*
X60755507Y-103548328D01*
X60786538Y-103538914D01*
X60821637Y-103523288D01*
X60876490Y-103511628D01*
X60924383Y-103497101D01*
X60962504Y-103493346D01*
X61005841Y-103484135D01*
X61056027Y-103484135D01*
X61100000Y-103479804D01*
X61143973Y-103484135D01*
G37*
G36*
X43343973Y-100949135D02*
G01*
X43394159Y-100949135D01*
X43437496Y-100958346D01*
X43475616Y-100962101D01*
X43523506Y-100976628D01*
X43578363Y-100988288D01*
X43613463Y-101003915D01*
X43644492Y-101013328D01*
X43693803Y-101039685D01*
X43750400Y-101064884D01*
X43776713Y-101084002D01*
X43800120Y-101096513D01*
X43847860Y-101135693D01*
X43902753Y-101175575D01*
X43920578Y-101195372D01*
X43936533Y-101208466D01*
X43979410Y-101260711D01*
X44028763Y-101315523D01*
X44039129Y-101333477D01*
X44048486Y-101344879D01*
X44083105Y-101409647D01*
X44122922Y-101478612D01*
X44127501Y-101492706D01*
X44131671Y-101500507D01*
X44154656Y-101576281D01*
X44181115Y-101657713D01*
X44182046Y-101666576D01*
X44182898Y-101669383D01*
X44191184Y-101753518D01*
X44200800Y-101845000D01*
X44191183Y-101936489D01*
X44182898Y-102020616D01*
X44182046Y-102023422D01*
X44181115Y-102032287D01*
X44154651Y-102113732D01*
X44131671Y-102189492D01*
X44127502Y-102197290D01*
X44122922Y-102211388D01*
X44083098Y-102280365D01*
X44048486Y-102345120D01*
X44039131Y-102356518D01*
X44028763Y-102374477D01*
X43979401Y-102429298D01*
X43936533Y-102481533D01*
X43920582Y-102494623D01*
X43902753Y-102514425D01*
X43847850Y-102554314D01*
X43800120Y-102593486D01*
X43776719Y-102605994D01*
X43750400Y-102625116D01*
X43693792Y-102650319D01*
X43644492Y-102676671D01*
X43613470Y-102686081D01*
X43578363Y-102701712D01*
X43523495Y-102713374D01*
X43475616Y-102727898D01*
X43437505Y-102731651D01*
X43394159Y-102740865D01*
X43343962Y-102740865D01*
X43300000Y-102745195D01*
X43256037Y-102740865D01*
X43205841Y-102740865D01*
X43162495Y-102731651D01*
X43124383Y-102727898D01*
X43076501Y-102713373D01*
X43021637Y-102701712D01*
X42986531Y-102686082D01*
X42955507Y-102676671D01*
X42906202Y-102650316D01*
X42849600Y-102625116D01*
X42823283Y-102605996D01*
X42799879Y-102593486D01*
X42752141Y-102554308D01*
X42697247Y-102514425D01*
X42679420Y-102494626D01*
X42663466Y-102481533D01*
X42620587Y-102429285D01*
X42571237Y-102374477D01*
X42560871Y-102356522D01*
X42551513Y-102345120D01*
X42516888Y-102280341D01*
X42477078Y-102211388D01*
X42472499Y-102197295D01*
X42468328Y-102189492D01*
X42445332Y-102113686D01*
X42418885Y-102032287D01*
X42417953Y-102023427D01*
X42417101Y-102020616D01*
X42408800Y-101936338D01*
X42399200Y-101845000D01*
X42408799Y-101753669D01*
X42417101Y-101669383D01*
X42417953Y-101666571D01*
X42418885Y-101657713D01*
X42445328Y-101576327D01*
X42468328Y-101500507D01*
X42472499Y-101492701D01*
X42477078Y-101478612D01*
X42516881Y-101409670D01*
X42551513Y-101344879D01*
X42560873Y-101333473D01*
X42571237Y-101315523D01*
X42620577Y-101260724D01*
X42663466Y-101208466D01*
X42679424Y-101195369D01*
X42697247Y-101175575D01*
X42752130Y-101135699D01*
X42799879Y-101096513D01*
X42823288Y-101084000D01*
X42849600Y-101064884D01*
X42906190Y-101039688D01*
X42955507Y-101013328D01*
X42986538Y-101003914D01*
X43021637Y-100988288D01*
X43076490Y-100976628D01*
X43124383Y-100962101D01*
X43162504Y-100958346D01*
X43205841Y-100949135D01*
X43256027Y-100949135D01*
X43300000Y-100944804D01*
X43343973Y-100949135D01*
G37*
G36*
X61143973Y-100944135D02*
G01*
X61194159Y-100944135D01*
X61237496Y-100953346D01*
X61275616Y-100957101D01*
X61323506Y-100971628D01*
X61378363Y-100983288D01*
X61413463Y-100998915D01*
X61444492Y-101008328D01*
X61493803Y-101034685D01*
X61550400Y-101059884D01*
X61576713Y-101079002D01*
X61600120Y-101091513D01*
X61647860Y-101130693D01*
X61702753Y-101170575D01*
X61720578Y-101190372D01*
X61736533Y-101203466D01*
X61779410Y-101255711D01*
X61828763Y-101310523D01*
X61839129Y-101328477D01*
X61848486Y-101339879D01*
X61883105Y-101404647D01*
X61922922Y-101473612D01*
X61927501Y-101487706D01*
X61931671Y-101495507D01*
X61954656Y-101571281D01*
X61981115Y-101652713D01*
X61982046Y-101661576D01*
X61982898Y-101664383D01*
X61991184Y-101748518D01*
X62000800Y-101840000D01*
X61991183Y-101931489D01*
X61982898Y-102015616D01*
X61982046Y-102018422D01*
X61981115Y-102027287D01*
X61954651Y-102108732D01*
X61931671Y-102184492D01*
X61927502Y-102192290D01*
X61922922Y-102206388D01*
X61883098Y-102275365D01*
X61848486Y-102340120D01*
X61839131Y-102351518D01*
X61828763Y-102369477D01*
X61779401Y-102424298D01*
X61736533Y-102476533D01*
X61720582Y-102489623D01*
X61702753Y-102509425D01*
X61647850Y-102549314D01*
X61600120Y-102588486D01*
X61576719Y-102600994D01*
X61550400Y-102620116D01*
X61493792Y-102645319D01*
X61444492Y-102671671D01*
X61413470Y-102681081D01*
X61378363Y-102696712D01*
X61323495Y-102708374D01*
X61275616Y-102722898D01*
X61237505Y-102726651D01*
X61194159Y-102735865D01*
X61143962Y-102735865D01*
X61100000Y-102740195D01*
X61056037Y-102735865D01*
X61005841Y-102735865D01*
X60962495Y-102726651D01*
X60924383Y-102722898D01*
X60876501Y-102708373D01*
X60821637Y-102696712D01*
X60786531Y-102681082D01*
X60755507Y-102671671D01*
X60706202Y-102645316D01*
X60649600Y-102620116D01*
X60623283Y-102600996D01*
X60599879Y-102588486D01*
X60552141Y-102549308D01*
X60497247Y-102509425D01*
X60479420Y-102489626D01*
X60463466Y-102476533D01*
X60420587Y-102424285D01*
X60371237Y-102369477D01*
X60360871Y-102351522D01*
X60351513Y-102340120D01*
X60316888Y-102275341D01*
X60277078Y-102206388D01*
X60272499Y-102192295D01*
X60268328Y-102184492D01*
X60245332Y-102108686D01*
X60218885Y-102027287D01*
X60217953Y-102018427D01*
X60217101Y-102015616D01*
X60208800Y-101931338D01*
X60199200Y-101840000D01*
X60208799Y-101748669D01*
X60217101Y-101664383D01*
X60217953Y-101661571D01*
X60218885Y-101652713D01*
X60245328Y-101571327D01*
X60268328Y-101495507D01*
X60272499Y-101487701D01*
X60277078Y-101473612D01*
X60316881Y-101404670D01*
X60351513Y-101339879D01*
X60360873Y-101328473D01*
X60371237Y-101310523D01*
X60420577Y-101255724D01*
X60463466Y-101203466D01*
X60479424Y-101190369D01*
X60497247Y-101170575D01*
X60552130Y-101130699D01*
X60599879Y-101091513D01*
X60623288Y-101079000D01*
X60649600Y-101059884D01*
X60706190Y-101034688D01*
X60755507Y-101008328D01*
X60786538Y-100998914D01*
X60821637Y-100983288D01*
X60876490Y-100971628D01*
X60924383Y-100957101D01*
X60962504Y-100953346D01*
X61005841Y-100944135D01*
X61056027Y-100944135D01*
X61100000Y-100939804D01*
X61143973Y-100944135D01*
G37*
G36*
X32834440Y-98528067D02*
G01*
X32850921Y-98539079D01*
X32861933Y-98555560D01*
X32865800Y-98575000D01*
X32865800Y-100175000D01*
X32861933Y-100194440D01*
X32850921Y-100210921D01*
X32834440Y-100221933D01*
X32815000Y-100225800D01*
X31215000Y-100225800D01*
X31195560Y-100221933D01*
X31179079Y-100210921D01*
X31168067Y-100194440D01*
X31164200Y-100175000D01*
X31164200Y-98575000D01*
X31168067Y-98555560D01*
X31179079Y-98539079D01*
X31195560Y-98528067D01*
X31215000Y-98524200D01*
X32815000Y-98524200D01*
X32834440Y-98528067D01*
G37*
G36*
X43343973Y-98409135D02*
G01*
X43394159Y-98409135D01*
X43437496Y-98418346D01*
X43475616Y-98422101D01*
X43523506Y-98436628D01*
X43578363Y-98448288D01*
X43613463Y-98463915D01*
X43644492Y-98473328D01*
X43693803Y-98499685D01*
X43750400Y-98524884D01*
X43776713Y-98544002D01*
X43800120Y-98556513D01*
X43847860Y-98595693D01*
X43902753Y-98635575D01*
X43920578Y-98655372D01*
X43936533Y-98668466D01*
X43979410Y-98720711D01*
X44028763Y-98775523D01*
X44039129Y-98793477D01*
X44048486Y-98804879D01*
X44083105Y-98869647D01*
X44122922Y-98938612D01*
X44127501Y-98952706D01*
X44131671Y-98960507D01*
X44154656Y-99036281D01*
X44181115Y-99117713D01*
X44182046Y-99126576D01*
X44182898Y-99129383D01*
X44191184Y-99213518D01*
X44200800Y-99305000D01*
X44191183Y-99396489D01*
X44182898Y-99480616D01*
X44182046Y-99483422D01*
X44181115Y-99492287D01*
X44154651Y-99573732D01*
X44131671Y-99649492D01*
X44127502Y-99657290D01*
X44122922Y-99671388D01*
X44083098Y-99740365D01*
X44048486Y-99805120D01*
X44039131Y-99816518D01*
X44028763Y-99834477D01*
X43979401Y-99889298D01*
X43936533Y-99941533D01*
X43920582Y-99954623D01*
X43902753Y-99974425D01*
X43847850Y-100014314D01*
X43800120Y-100053486D01*
X43776719Y-100065994D01*
X43750400Y-100085116D01*
X43693792Y-100110319D01*
X43644492Y-100136671D01*
X43613470Y-100146081D01*
X43578363Y-100161712D01*
X43523495Y-100173374D01*
X43475616Y-100187898D01*
X43437505Y-100191651D01*
X43394159Y-100200865D01*
X43343962Y-100200865D01*
X43300000Y-100205195D01*
X43256037Y-100200865D01*
X43205841Y-100200865D01*
X43162495Y-100191651D01*
X43124383Y-100187898D01*
X43076501Y-100173373D01*
X43021637Y-100161712D01*
X42986531Y-100146082D01*
X42955507Y-100136671D01*
X42906202Y-100110316D01*
X42849600Y-100085116D01*
X42823283Y-100065996D01*
X42799879Y-100053486D01*
X42752141Y-100014308D01*
X42697247Y-99974425D01*
X42679420Y-99954626D01*
X42663466Y-99941533D01*
X42620587Y-99889285D01*
X42571237Y-99834477D01*
X42560871Y-99816522D01*
X42551513Y-99805120D01*
X42516888Y-99740341D01*
X42477078Y-99671388D01*
X42472499Y-99657295D01*
X42468328Y-99649492D01*
X42445332Y-99573686D01*
X42418885Y-99492287D01*
X42417953Y-99483427D01*
X42417101Y-99480616D01*
X42408800Y-99396338D01*
X42399200Y-99305000D01*
X42408799Y-99213669D01*
X42417101Y-99129383D01*
X42417953Y-99126571D01*
X42418885Y-99117713D01*
X42445328Y-99036327D01*
X42468328Y-98960507D01*
X42472499Y-98952701D01*
X42477078Y-98938612D01*
X42516881Y-98869670D01*
X42551513Y-98804879D01*
X42560873Y-98793473D01*
X42571237Y-98775523D01*
X42620577Y-98720724D01*
X42663466Y-98668466D01*
X42679424Y-98655369D01*
X42697247Y-98635575D01*
X42752130Y-98595699D01*
X42799879Y-98556513D01*
X42823288Y-98544000D01*
X42849600Y-98524884D01*
X42906190Y-98499688D01*
X42955507Y-98473328D01*
X42986538Y-98463914D01*
X43021637Y-98448288D01*
X43076490Y-98436628D01*
X43124383Y-98422101D01*
X43162504Y-98418346D01*
X43205841Y-98409135D01*
X43256027Y-98409135D01*
X43300000Y-98404804D01*
X43343973Y-98409135D01*
G37*
G36*
X61143973Y-98404135D02*
G01*
X61194159Y-98404135D01*
X61237496Y-98413346D01*
X61275616Y-98417101D01*
X61323506Y-98431628D01*
X61378363Y-98443288D01*
X61413463Y-98458915D01*
X61444492Y-98468328D01*
X61493803Y-98494685D01*
X61550400Y-98519884D01*
X61576713Y-98539002D01*
X61600120Y-98551513D01*
X61647860Y-98590693D01*
X61702753Y-98630575D01*
X61720578Y-98650372D01*
X61736533Y-98663466D01*
X61779410Y-98715711D01*
X61828763Y-98770523D01*
X61839129Y-98788477D01*
X61848486Y-98799879D01*
X61883105Y-98864647D01*
X61922922Y-98933612D01*
X61927501Y-98947706D01*
X61931671Y-98955507D01*
X61954656Y-99031281D01*
X61981115Y-99112713D01*
X61982046Y-99121576D01*
X61982898Y-99124383D01*
X61991184Y-99208518D01*
X62000800Y-99300000D01*
X61991183Y-99391489D01*
X61982898Y-99475616D01*
X61982046Y-99478422D01*
X61981115Y-99487287D01*
X61954651Y-99568732D01*
X61931671Y-99644492D01*
X61927502Y-99652290D01*
X61922922Y-99666388D01*
X61883098Y-99735365D01*
X61848486Y-99800120D01*
X61839131Y-99811518D01*
X61828763Y-99829477D01*
X61779401Y-99884298D01*
X61736533Y-99936533D01*
X61720582Y-99949623D01*
X61702753Y-99969425D01*
X61647850Y-100009314D01*
X61600120Y-100048486D01*
X61576719Y-100060994D01*
X61550400Y-100080116D01*
X61493792Y-100105319D01*
X61444492Y-100131671D01*
X61413470Y-100141081D01*
X61378363Y-100156712D01*
X61323495Y-100168374D01*
X61275616Y-100182898D01*
X61237505Y-100186651D01*
X61194159Y-100195865D01*
X61143962Y-100195865D01*
X61100000Y-100200195D01*
X61056037Y-100195865D01*
X61005841Y-100195865D01*
X60962495Y-100186651D01*
X60924383Y-100182898D01*
X60876501Y-100168373D01*
X60821637Y-100156712D01*
X60786531Y-100141082D01*
X60755507Y-100131671D01*
X60706202Y-100105316D01*
X60649600Y-100080116D01*
X60623283Y-100060996D01*
X60599879Y-100048486D01*
X60552141Y-100009308D01*
X60497247Y-99969425D01*
X60479420Y-99949626D01*
X60463466Y-99936533D01*
X60420587Y-99884285D01*
X60371237Y-99829477D01*
X60360871Y-99811522D01*
X60351513Y-99800120D01*
X60316888Y-99735341D01*
X60277078Y-99666388D01*
X60272499Y-99652295D01*
X60268328Y-99644492D01*
X60245332Y-99568686D01*
X60218885Y-99487287D01*
X60217953Y-99478427D01*
X60217101Y-99475616D01*
X60208800Y-99391338D01*
X60199200Y-99300000D01*
X60208799Y-99208669D01*
X60217101Y-99124383D01*
X60217953Y-99121571D01*
X60218885Y-99112713D01*
X60245328Y-99031327D01*
X60268328Y-98955507D01*
X60272499Y-98947701D01*
X60277078Y-98933612D01*
X60316881Y-98864670D01*
X60351513Y-98799879D01*
X60360873Y-98788473D01*
X60371237Y-98770523D01*
X60420577Y-98715724D01*
X60463466Y-98663466D01*
X60479424Y-98650369D01*
X60497247Y-98630575D01*
X60552130Y-98590699D01*
X60599879Y-98551513D01*
X60623288Y-98539000D01*
X60649600Y-98519884D01*
X60706190Y-98494688D01*
X60755507Y-98468328D01*
X60786538Y-98458914D01*
X60821637Y-98443288D01*
X60876490Y-98431628D01*
X60924383Y-98417101D01*
X60962504Y-98413346D01*
X61005841Y-98404135D01*
X61056027Y-98404135D01*
X61100000Y-98399804D01*
X61143973Y-98404135D01*
G37*
G36*
X43343973Y-95869135D02*
G01*
X43394159Y-95869135D01*
X43437496Y-95878346D01*
X43475616Y-95882101D01*
X43523506Y-95896628D01*
X43578363Y-95908288D01*
X43613463Y-95923915D01*
X43644492Y-95933328D01*
X43693803Y-95959685D01*
X43750400Y-95984884D01*
X43776713Y-96004002D01*
X43800120Y-96016513D01*
X43847860Y-96055693D01*
X43902753Y-96095575D01*
X43920578Y-96115372D01*
X43936533Y-96128466D01*
X43979410Y-96180711D01*
X44028763Y-96235523D01*
X44039129Y-96253477D01*
X44048486Y-96264879D01*
X44083105Y-96329647D01*
X44122922Y-96398612D01*
X44127501Y-96412706D01*
X44131671Y-96420507D01*
X44154656Y-96496281D01*
X44181115Y-96577713D01*
X44182046Y-96586576D01*
X44182898Y-96589383D01*
X44191184Y-96673518D01*
X44200800Y-96765000D01*
X44191183Y-96856489D01*
X44182898Y-96940616D01*
X44182046Y-96943422D01*
X44181115Y-96952287D01*
X44154651Y-97033732D01*
X44131671Y-97109492D01*
X44127502Y-97117290D01*
X44122922Y-97131388D01*
X44083098Y-97200365D01*
X44048486Y-97265120D01*
X44039131Y-97276518D01*
X44028763Y-97294477D01*
X43979401Y-97349298D01*
X43936533Y-97401533D01*
X43920582Y-97414623D01*
X43902753Y-97434425D01*
X43847850Y-97474314D01*
X43800120Y-97513486D01*
X43776719Y-97525994D01*
X43750400Y-97545116D01*
X43693792Y-97570319D01*
X43644492Y-97596671D01*
X43613470Y-97606081D01*
X43578363Y-97621712D01*
X43523495Y-97633374D01*
X43475616Y-97647898D01*
X43437505Y-97651651D01*
X43394159Y-97660865D01*
X43343962Y-97660865D01*
X43300000Y-97665195D01*
X43256037Y-97660865D01*
X43205841Y-97660865D01*
X43162495Y-97651651D01*
X43124383Y-97647898D01*
X43076501Y-97633373D01*
X43021637Y-97621712D01*
X42986531Y-97606082D01*
X42955507Y-97596671D01*
X42906202Y-97570316D01*
X42849600Y-97545116D01*
X42823283Y-97525996D01*
X42799879Y-97513486D01*
X42752141Y-97474308D01*
X42697247Y-97434425D01*
X42679420Y-97414626D01*
X42663466Y-97401533D01*
X42620587Y-97349285D01*
X42571237Y-97294477D01*
X42560871Y-97276522D01*
X42551513Y-97265120D01*
X42516888Y-97200341D01*
X42477078Y-97131388D01*
X42472499Y-97117295D01*
X42468328Y-97109492D01*
X42445332Y-97033686D01*
X42418885Y-96952287D01*
X42417953Y-96943427D01*
X42417101Y-96940616D01*
X42408800Y-96856338D01*
X42399200Y-96765000D01*
X42408799Y-96673669D01*
X42417101Y-96589383D01*
X42417953Y-96586571D01*
X42418885Y-96577713D01*
X42445328Y-96496327D01*
X42468328Y-96420507D01*
X42472499Y-96412701D01*
X42477078Y-96398612D01*
X42516881Y-96329670D01*
X42551513Y-96264879D01*
X42560873Y-96253473D01*
X42571237Y-96235523D01*
X42620577Y-96180724D01*
X42663466Y-96128466D01*
X42679424Y-96115369D01*
X42697247Y-96095575D01*
X42752130Y-96055699D01*
X42799879Y-96016513D01*
X42823288Y-96004000D01*
X42849600Y-95984884D01*
X42906190Y-95959688D01*
X42955507Y-95933328D01*
X42986538Y-95923914D01*
X43021637Y-95908288D01*
X43076490Y-95896628D01*
X43124383Y-95882101D01*
X43162504Y-95878346D01*
X43205841Y-95869135D01*
X43256027Y-95869135D01*
X43300000Y-95864804D01*
X43343973Y-95869135D01*
G37*
G36*
X61143973Y-95864135D02*
G01*
X61194159Y-95864135D01*
X61237496Y-95873346D01*
X61275616Y-95877101D01*
X61323506Y-95891628D01*
X61378363Y-95903288D01*
X61413463Y-95918915D01*
X61444492Y-95928328D01*
X61493803Y-95954685D01*
X61550400Y-95979884D01*
X61576713Y-95999002D01*
X61600120Y-96011513D01*
X61647860Y-96050693D01*
X61702753Y-96090575D01*
X61720578Y-96110372D01*
X61736533Y-96123466D01*
X61779410Y-96175711D01*
X61828763Y-96230523D01*
X61839129Y-96248477D01*
X61848486Y-96259879D01*
X61883105Y-96324647D01*
X61922922Y-96393612D01*
X61927501Y-96407706D01*
X61931671Y-96415507D01*
X61954656Y-96491281D01*
X61981115Y-96572713D01*
X61982046Y-96581576D01*
X61982898Y-96584383D01*
X61991184Y-96668518D01*
X62000800Y-96760000D01*
X61991183Y-96851489D01*
X61982898Y-96935616D01*
X61982046Y-96938422D01*
X61981115Y-96947287D01*
X61954651Y-97028732D01*
X61931671Y-97104492D01*
X61927502Y-97112290D01*
X61922922Y-97126388D01*
X61883098Y-97195365D01*
X61848486Y-97260120D01*
X61839131Y-97271518D01*
X61828763Y-97289477D01*
X61779401Y-97344298D01*
X61736533Y-97396533D01*
X61720582Y-97409623D01*
X61702753Y-97429425D01*
X61647850Y-97469314D01*
X61600120Y-97508486D01*
X61576719Y-97520994D01*
X61550400Y-97540116D01*
X61493792Y-97565319D01*
X61444492Y-97591671D01*
X61413470Y-97601081D01*
X61378363Y-97616712D01*
X61323495Y-97628374D01*
X61275616Y-97642898D01*
X61237505Y-97646651D01*
X61194159Y-97655865D01*
X61143962Y-97655865D01*
X61100000Y-97660195D01*
X61056037Y-97655865D01*
X61005841Y-97655865D01*
X60962495Y-97646651D01*
X60924383Y-97642898D01*
X60876501Y-97628373D01*
X60821637Y-97616712D01*
X60786531Y-97601082D01*
X60755507Y-97591671D01*
X60706202Y-97565316D01*
X60649600Y-97540116D01*
X60623283Y-97520996D01*
X60599879Y-97508486D01*
X60552141Y-97469308D01*
X60497247Y-97429425D01*
X60479420Y-97409626D01*
X60463466Y-97396533D01*
X60420587Y-97344285D01*
X60371237Y-97289477D01*
X60360871Y-97271522D01*
X60351513Y-97260120D01*
X60316888Y-97195341D01*
X60277078Y-97126388D01*
X60272499Y-97112295D01*
X60268328Y-97104492D01*
X60245332Y-97028686D01*
X60218885Y-96947287D01*
X60217953Y-96938427D01*
X60217101Y-96935616D01*
X60208800Y-96851338D01*
X60199200Y-96760000D01*
X60208799Y-96668669D01*
X60217101Y-96584383D01*
X60217953Y-96581571D01*
X60218885Y-96572713D01*
X60245328Y-96491327D01*
X60268328Y-96415507D01*
X60272499Y-96407701D01*
X60277078Y-96393612D01*
X60316881Y-96324670D01*
X60351513Y-96259879D01*
X60360873Y-96248473D01*
X60371237Y-96230523D01*
X60420577Y-96175724D01*
X60463466Y-96123466D01*
X60479424Y-96110369D01*
X60497247Y-96090575D01*
X60552130Y-96050699D01*
X60599879Y-96011513D01*
X60623288Y-95999000D01*
X60649600Y-95979884D01*
X60706190Y-95954688D01*
X60755507Y-95928328D01*
X60786538Y-95918914D01*
X60821637Y-95903288D01*
X60876490Y-95891628D01*
X60924383Y-95877101D01*
X60962504Y-95873346D01*
X61005841Y-95864135D01*
X61056027Y-95864135D01*
X61100000Y-95859804D01*
X61143973Y-95864135D01*
G37*
G36*
X43343973Y-93329135D02*
G01*
X43394159Y-93329135D01*
X43437496Y-93338346D01*
X43475616Y-93342101D01*
X43523506Y-93356628D01*
X43578363Y-93368288D01*
X43613463Y-93383915D01*
X43644492Y-93393328D01*
X43693803Y-93419685D01*
X43750400Y-93444884D01*
X43776713Y-93464002D01*
X43800120Y-93476513D01*
X43847860Y-93515693D01*
X43902753Y-93555575D01*
X43920578Y-93575372D01*
X43936533Y-93588466D01*
X43979410Y-93640711D01*
X44028763Y-93695523D01*
X44039129Y-93713477D01*
X44048486Y-93724879D01*
X44083105Y-93789647D01*
X44122922Y-93858612D01*
X44127501Y-93872706D01*
X44131671Y-93880507D01*
X44154656Y-93956281D01*
X44181115Y-94037713D01*
X44182046Y-94046576D01*
X44182898Y-94049383D01*
X44191184Y-94133518D01*
X44200800Y-94225000D01*
X44191183Y-94316489D01*
X44182898Y-94400616D01*
X44182046Y-94403422D01*
X44181115Y-94412287D01*
X44154651Y-94493732D01*
X44131671Y-94569492D01*
X44127502Y-94577290D01*
X44122922Y-94591388D01*
X44083098Y-94660365D01*
X44048486Y-94725120D01*
X44039131Y-94736518D01*
X44028763Y-94754477D01*
X43979401Y-94809298D01*
X43936533Y-94861533D01*
X43920582Y-94874623D01*
X43902753Y-94894425D01*
X43847850Y-94934314D01*
X43800120Y-94973486D01*
X43776719Y-94985994D01*
X43750400Y-95005116D01*
X43693792Y-95030319D01*
X43644492Y-95056671D01*
X43613470Y-95066081D01*
X43578363Y-95081712D01*
X43523495Y-95093374D01*
X43475616Y-95107898D01*
X43437505Y-95111651D01*
X43394159Y-95120865D01*
X43343962Y-95120865D01*
X43300000Y-95125195D01*
X43256037Y-95120865D01*
X43205841Y-95120865D01*
X43162495Y-95111651D01*
X43124383Y-95107898D01*
X43076501Y-95093373D01*
X43021637Y-95081712D01*
X42986531Y-95066082D01*
X42955507Y-95056671D01*
X42906202Y-95030316D01*
X42849600Y-95005116D01*
X42823283Y-94985996D01*
X42799879Y-94973486D01*
X42752141Y-94934308D01*
X42697247Y-94894425D01*
X42679420Y-94874626D01*
X42663466Y-94861533D01*
X42620587Y-94809285D01*
X42571237Y-94754477D01*
X42560871Y-94736522D01*
X42551513Y-94725120D01*
X42516888Y-94660341D01*
X42477078Y-94591388D01*
X42472499Y-94577295D01*
X42468328Y-94569492D01*
X42445332Y-94493686D01*
X42418885Y-94412287D01*
X42417953Y-94403427D01*
X42417101Y-94400616D01*
X42408800Y-94316338D01*
X42399200Y-94225000D01*
X42408799Y-94133669D01*
X42417101Y-94049383D01*
X42417953Y-94046571D01*
X42418885Y-94037713D01*
X42445328Y-93956327D01*
X42468328Y-93880507D01*
X42472499Y-93872701D01*
X42477078Y-93858612D01*
X42516881Y-93789670D01*
X42551513Y-93724879D01*
X42560873Y-93713473D01*
X42571237Y-93695523D01*
X42620577Y-93640724D01*
X42663466Y-93588466D01*
X42679424Y-93575369D01*
X42697247Y-93555575D01*
X42752130Y-93515699D01*
X42799879Y-93476513D01*
X42823288Y-93464000D01*
X42849600Y-93444884D01*
X42906190Y-93419688D01*
X42955507Y-93393328D01*
X42986538Y-93383914D01*
X43021637Y-93368288D01*
X43076490Y-93356628D01*
X43124383Y-93342101D01*
X43162504Y-93338346D01*
X43205841Y-93329135D01*
X43256027Y-93329135D01*
X43300000Y-93324804D01*
X43343973Y-93329135D01*
G37*
G36*
X61143973Y-93324135D02*
G01*
X61194159Y-93324135D01*
X61237496Y-93333346D01*
X61275616Y-93337101D01*
X61323506Y-93351628D01*
X61378363Y-93363288D01*
X61413463Y-93378915D01*
X61444492Y-93388328D01*
X61493803Y-93414685D01*
X61550400Y-93439884D01*
X61576713Y-93459002D01*
X61600120Y-93471513D01*
X61647860Y-93510693D01*
X61702753Y-93550575D01*
X61720578Y-93570372D01*
X61736533Y-93583466D01*
X61779410Y-93635711D01*
X61828763Y-93690523D01*
X61839129Y-93708477D01*
X61848486Y-93719879D01*
X61883105Y-93784647D01*
X61922922Y-93853612D01*
X61927501Y-93867706D01*
X61931671Y-93875507D01*
X61954656Y-93951281D01*
X61981115Y-94032713D01*
X61982046Y-94041576D01*
X61982898Y-94044383D01*
X61991184Y-94128518D01*
X62000800Y-94220000D01*
X61991183Y-94311489D01*
X61982898Y-94395616D01*
X61982046Y-94398422D01*
X61981115Y-94407287D01*
X61954651Y-94488732D01*
X61931671Y-94564492D01*
X61927502Y-94572290D01*
X61922922Y-94586388D01*
X61883098Y-94655365D01*
X61848486Y-94720120D01*
X61839131Y-94731518D01*
X61828763Y-94749477D01*
X61779401Y-94804298D01*
X61736533Y-94856533D01*
X61720582Y-94869623D01*
X61702753Y-94889425D01*
X61647850Y-94929314D01*
X61600120Y-94968486D01*
X61576719Y-94980994D01*
X61550400Y-95000116D01*
X61493792Y-95025319D01*
X61444492Y-95051671D01*
X61413470Y-95061081D01*
X61378363Y-95076712D01*
X61323495Y-95088374D01*
X61275616Y-95102898D01*
X61237505Y-95106651D01*
X61194159Y-95115865D01*
X61143962Y-95115865D01*
X61100000Y-95120195D01*
X61056037Y-95115865D01*
X61005841Y-95115865D01*
X60962495Y-95106651D01*
X60924383Y-95102898D01*
X60876501Y-95088373D01*
X60821637Y-95076712D01*
X60786531Y-95061082D01*
X60755507Y-95051671D01*
X60706202Y-95025316D01*
X60649600Y-95000116D01*
X60623283Y-94980996D01*
X60599879Y-94968486D01*
X60552141Y-94929308D01*
X60497247Y-94889425D01*
X60479420Y-94869626D01*
X60463466Y-94856533D01*
X60420587Y-94804285D01*
X60371237Y-94749477D01*
X60360871Y-94731522D01*
X60351513Y-94720120D01*
X60316888Y-94655341D01*
X60277078Y-94586388D01*
X60272499Y-94572295D01*
X60268328Y-94564492D01*
X60245332Y-94488686D01*
X60218885Y-94407287D01*
X60217953Y-94398427D01*
X60217101Y-94395616D01*
X60208800Y-94311338D01*
X60199200Y-94220000D01*
X60208799Y-94128669D01*
X60217101Y-94044383D01*
X60217953Y-94041571D01*
X60218885Y-94032713D01*
X60245328Y-93951327D01*
X60268328Y-93875507D01*
X60272499Y-93867701D01*
X60277078Y-93853612D01*
X60316881Y-93784670D01*
X60351513Y-93719879D01*
X60360873Y-93708473D01*
X60371237Y-93690523D01*
X60420577Y-93635724D01*
X60463466Y-93583466D01*
X60479424Y-93570369D01*
X60497247Y-93550575D01*
X60552130Y-93510699D01*
X60599879Y-93471513D01*
X60623288Y-93459000D01*
X60649600Y-93439884D01*
X60706190Y-93414688D01*
X60755507Y-93388328D01*
X60786538Y-93378914D01*
X60821637Y-93363288D01*
X60876490Y-93351628D01*
X60924383Y-93337101D01*
X60962504Y-93333346D01*
X61005841Y-93324135D01*
X61056027Y-93324135D01*
X61100000Y-93319804D01*
X61143973Y-93324135D01*
G37*
G36*
X32056189Y-90908861D02*
G01*
X32103933Y-90908861D01*
X32145164Y-90917624D01*
X32180862Y-90921141D01*
X32225708Y-90934745D01*
X32277912Y-90945841D01*
X32311314Y-90960712D01*
X32340358Y-90969523D01*
X32386515Y-90994194D01*
X32440400Y-91018186D01*
X32465453Y-91036388D01*
X32487338Y-91048086D01*
X32531981Y-91084723D01*
X32584296Y-91122732D01*
X32601280Y-91141595D01*
X32616178Y-91153821D01*
X32656205Y-91202594D01*
X32703312Y-91254912D01*
X32713210Y-91272056D01*
X32721913Y-91282661D01*
X32754113Y-91342903D01*
X32792244Y-91408948D01*
X32796629Y-91422444D01*
X32800476Y-91429641D01*
X32821680Y-91499545D01*
X32847208Y-91578109D01*
X32848106Y-91586660D01*
X32848858Y-91589137D01*
X32856176Y-91663434D01*
X32865800Y-91755000D01*
X32856175Y-91846573D01*
X32848858Y-91920862D01*
X32848106Y-91923337D01*
X32847208Y-91931891D01*
X32821676Y-92010468D01*
X32800476Y-92080358D01*
X32796630Y-92087553D01*
X32792244Y-92101052D01*
X32754106Y-92167108D01*
X32721913Y-92227338D01*
X32713212Y-92237939D01*
X32703312Y-92255088D01*
X32656195Y-92307415D01*
X32616178Y-92356178D01*
X32601283Y-92368401D01*
X32584296Y-92387268D01*
X32531970Y-92425284D01*
X32487338Y-92461913D01*
X32465459Y-92473607D01*
X32440400Y-92491814D01*
X32386504Y-92515810D01*
X32340358Y-92540476D01*
X32311321Y-92549284D01*
X32277912Y-92564159D01*
X32225697Y-92575257D01*
X32180862Y-92588858D01*
X32145172Y-92592373D01*
X32103933Y-92601139D01*
X32056179Y-92601139D01*
X32015000Y-92605195D01*
X31973821Y-92601139D01*
X31926067Y-92601139D01*
X31884827Y-92592373D01*
X31849137Y-92588858D01*
X31804298Y-92575256D01*
X31752088Y-92564159D01*
X31718680Y-92549285D01*
X31689641Y-92540476D01*
X31643489Y-92515807D01*
X31589600Y-92491814D01*
X31564543Y-92473609D01*
X31542661Y-92461913D01*
X31498020Y-92425278D01*
X31445704Y-92387268D01*
X31428718Y-92368404D01*
X31413821Y-92356178D01*
X31373792Y-92307402D01*
X31326688Y-92255088D01*
X31316789Y-92237943D01*
X31308086Y-92227338D01*
X31275880Y-92167085D01*
X31237756Y-92101052D01*
X31233371Y-92087558D01*
X31229523Y-92080358D01*
X31208308Y-92010422D01*
X31182792Y-91931891D01*
X31181893Y-91923342D01*
X31181141Y-91920862D01*
X31173808Y-91846421D01*
X31164200Y-91755000D01*
X31173807Y-91663586D01*
X31181141Y-91589137D01*
X31181893Y-91586655D01*
X31182792Y-91578109D01*
X31208304Y-91499591D01*
X31229523Y-91429641D01*
X31233372Y-91422439D01*
X31237756Y-91408948D01*
X31275872Y-91342927D01*
X31308086Y-91282661D01*
X31316791Y-91272052D01*
X31326688Y-91254912D01*
X31373783Y-91202607D01*
X31413821Y-91153821D01*
X31428722Y-91141591D01*
X31445704Y-91122732D01*
X31498010Y-91084729D01*
X31542661Y-91048086D01*
X31564548Y-91036386D01*
X31589600Y-91018186D01*
X31643478Y-90994197D01*
X31689641Y-90969523D01*
X31718687Y-90960711D01*
X31752088Y-90945841D01*
X31804287Y-90934745D01*
X31849137Y-90921141D01*
X31884836Y-90917624D01*
X31926067Y-90908861D01*
X31973811Y-90908861D01*
X32015000Y-90904804D01*
X32056189Y-90908861D01*
G37*
G36*
X43343973Y-90789135D02*
G01*
X43394159Y-90789135D01*
X43437496Y-90798346D01*
X43475616Y-90802101D01*
X43523506Y-90816628D01*
X43578363Y-90828288D01*
X43613463Y-90843915D01*
X43644492Y-90853328D01*
X43693803Y-90879685D01*
X43750400Y-90904884D01*
X43776713Y-90924002D01*
X43800120Y-90936513D01*
X43847860Y-90975693D01*
X43902753Y-91015575D01*
X43920578Y-91035372D01*
X43936533Y-91048466D01*
X43979410Y-91100711D01*
X44028763Y-91155523D01*
X44039129Y-91173477D01*
X44048486Y-91184879D01*
X44083105Y-91249647D01*
X44122922Y-91318612D01*
X44127501Y-91332706D01*
X44131671Y-91340507D01*
X44154656Y-91416281D01*
X44181115Y-91497713D01*
X44182046Y-91506576D01*
X44182898Y-91509383D01*
X44191184Y-91593518D01*
X44200800Y-91685000D01*
X44191183Y-91776489D01*
X44182898Y-91860616D01*
X44182046Y-91863422D01*
X44181115Y-91872287D01*
X44154651Y-91953732D01*
X44131671Y-92029492D01*
X44127502Y-92037290D01*
X44122922Y-92051388D01*
X44083098Y-92120365D01*
X44048486Y-92185120D01*
X44039131Y-92196518D01*
X44028763Y-92214477D01*
X43979401Y-92269298D01*
X43936533Y-92321533D01*
X43920582Y-92334623D01*
X43902753Y-92354425D01*
X43847850Y-92394314D01*
X43800120Y-92433486D01*
X43776719Y-92445994D01*
X43750400Y-92465116D01*
X43693792Y-92490319D01*
X43644492Y-92516671D01*
X43613470Y-92526081D01*
X43578363Y-92541712D01*
X43523495Y-92553374D01*
X43475616Y-92567898D01*
X43437505Y-92571651D01*
X43394159Y-92580865D01*
X43343962Y-92580865D01*
X43300000Y-92585195D01*
X43256037Y-92580865D01*
X43205841Y-92580865D01*
X43162495Y-92571651D01*
X43124383Y-92567898D01*
X43076501Y-92553373D01*
X43021637Y-92541712D01*
X42986531Y-92526082D01*
X42955507Y-92516671D01*
X42906202Y-92490316D01*
X42849600Y-92465116D01*
X42823283Y-92445996D01*
X42799879Y-92433486D01*
X42752141Y-92394308D01*
X42697247Y-92354425D01*
X42679420Y-92334626D01*
X42663466Y-92321533D01*
X42620587Y-92269285D01*
X42571237Y-92214477D01*
X42560871Y-92196522D01*
X42551513Y-92185120D01*
X42516888Y-92120341D01*
X42477078Y-92051388D01*
X42472499Y-92037295D01*
X42468328Y-92029492D01*
X42445332Y-91953686D01*
X42418885Y-91872287D01*
X42417953Y-91863427D01*
X42417101Y-91860616D01*
X42408800Y-91776338D01*
X42399200Y-91685000D01*
X42408799Y-91593669D01*
X42417101Y-91509383D01*
X42417953Y-91506571D01*
X42418885Y-91497713D01*
X42445328Y-91416327D01*
X42468328Y-91340507D01*
X42472499Y-91332701D01*
X42477078Y-91318612D01*
X42516881Y-91249670D01*
X42551513Y-91184879D01*
X42560873Y-91173473D01*
X42571237Y-91155523D01*
X42620577Y-91100724D01*
X42663466Y-91048466D01*
X42679424Y-91035369D01*
X42697247Y-91015575D01*
X42752130Y-90975699D01*
X42799879Y-90936513D01*
X42823288Y-90924000D01*
X42849600Y-90904884D01*
X42906190Y-90879688D01*
X42955507Y-90853328D01*
X42986538Y-90843914D01*
X43021637Y-90828288D01*
X43076490Y-90816628D01*
X43124383Y-90802101D01*
X43162504Y-90798346D01*
X43205841Y-90789135D01*
X43256027Y-90789135D01*
X43300000Y-90784804D01*
X43343973Y-90789135D01*
G37*
G36*
X61143973Y-90784135D02*
G01*
X61194159Y-90784135D01*
X61237496Y-90793346D01*
X61275616Y-90797101D01*
X61323506Y-90811628D01*
X61378363Y-90823288D01*
X61413463Y-90838915D01*
X61444492Y-90848328D01*
X61493803Y-90874685D01*
X61550400Y-90899884D01*
X61576713Y-90919002D01*
X61600120Y-90931513D01*
X61647860Y-90970693D01*
X61702753Y-91010575D01*
X61720578Y-91030372D01*
X61736533Y-91043466D01*
X61779410Y-91095711D01*
X61828763Y-91150523D01*
X61839129Y-91168477D01*
X61848486Y-91179879D01*
X61883105Y-91244647D01*
X61922922Y-91313612D01*
X61927501Y-91327706D01*
X61931671Y-91335507D01*
X61954656Y-91411281D01*
X61981115Y-91492713D01*
X61982046Y-91501576D01*
X61982898Y-91504383D01*
X61991184Y-91588518D01*
X62000800Y-91680000D01*
X61991183Y-91771489D01*
X61982898Y-91855616D01*
X61982046Y-91858422D01*
X61981115Y-91867287D01*
X61954651Y-91948732D01*
X61931671Y-92024492D01*
X61927502Y-92032290D01*
X61922922Y-92046388D01*
X61883098Y-92115365D01*
X61848486Y-92180120D01*
X61839131Y-92191518D01*
X61828763Y-92209477D01*
X61779401Y-92264298D01*
X61736533Y-92316533D01*
X61720582Y-92329623D01*
X61702753Y-92349425D01*
X61647850Y-92389314D01*
X61600120Y-92428486D01*
X61576719Y-92440994D01*
X61550400Y-92460116D01*
X61493792Y-92485319D01*
X61444492Y-92511671D01*
X61413470Y-92521081D01*
X61378363Y-92536712D01*
X61323495Y-92548374D01*
X61275616Y-92562898D01*
X61237505Y-92566651D01*
X61194159Y-92575865D01*
X61143962Y-92575865D01*
X61100000Y-92580195D01*
X61056037Y-92575865D01*
X61005841Y-92575865D01*
X60962495Y-92566651D01*
X60924383Y-92562898D01*
X60876501Y-92548373D01*
X60821637Y-92536712D01*
X60786531Y-92521082D01*
X60755507Y-92511671D01*
X60706202Y-92485316D01*
X60649600Y-92460116D01*
X60623283Y-92440996D01*
X60599879Y-92428486D01*
X60552141Y-92389308D01*
X60497247Y-92349425D01*
X60479420Y-92329626D01*
X60463466Y-92316533D01*
X60420587Y-92264285D01*
X60371237Y-92209477D01*
X60360871Y-92191522D01*
X60351513Y-92180120D01*
X60316888Y-92115341D01*
X60277078Y-92046388D01*
X60272499Y-92032295D01*
X60268328Y-92024492D01*
X60245332Y-91948686D01*
X60218885Y-91867287D01*
X60217953Y-91858427D01*
X60217101Y-91855616D01*
X60208800Y-91771338D01*
X60199200Y-91680000D01*
X60208799Y-91588669D01*
X60217101Y-91504383D01*
X60217953Y-91501571D01*
X60218885Y-91492713D01*
X60245328Y-91411327D01*
X60268328Y-91335507D01*
X60272499Y-91327701D01*
X60277078Y-91313612D01*
X60316881Y-91244670D01*
X60351513Y-91179879D01*
X60360873Y-91168473D01*
X60371237Y-91150523D01*
X60420577Y-91095724D01*
X60463466Y-91043466D01*
X60479424Y-91030369D01*
X60497247Y-91010575D01*
X60552130Y-90970699D01*
X60599879Y-90931513D01*
X60623288Y-90919000D01*
X60649600Y-90899884D01*
X60706190Y-90874688D01*
X60755507Y-90848328D01*
X60786538Y-90838914D01*
X60821637Y-90823288D01*
X60876490Y-90811628D01*
X60924383Y-90797101D01*
X60962504Y-90793346D01*
X61005841Y-90784135D01*
X61056027Y-90784135D01*
X61100000Y-90779804D01*
X61143973Y-90784135D01*
G37*
G36*
X43343973Y-88249135D02*
G01*
X43394159Y-88249135D01*
X43437496Y-88258346D01*
X43475616Y-88262101D01*
X43523506Y-88276628D01*
X43578363Y-88288288D01*
X43613463Y-88303915D01*
X43644492Y-88313328D01*
X43693803Y-88339685D01*
X43750400Y-88364884D01*
X43776713Y-88384002D01*
X43800120Y-88396513D01*
X43847860Y-88435693D01*
X43902753Y-88475575D01*
X43920578Y-88495372D01*
X43936533Y-88508466D01*
X43979410Y-88560711D01*
X44028763Y-88615523D01*
X44039129Y-88633477D01*
X44048486Y-88644879D01*
X44083105Y-88709647D01*
X44122922Y-88778612D01*
X44127501Y-88792706D01*
X44131671Y-88800507D01*
X44154656Y-88876281D01*
X44181115Y-88957713D01*
X44182046Y-88966576D01*
X44182898Y-88969383D01*
X44191184Y-89053518D01*
X44200800Y-89145000D01*
X44191183Y-89236489D01*
X44182898Y-89320616D01*
X44182046Y-89323422D01*
X44181115Y-89332287D01*
X44154651Y-89413732D01*
X44131671Y-89489492D01*
X44127502Y-89497290D01*
X44122922Y-89511388D01*
X44083098Y-89580365D01*
X44048486Y-89645120D01*
X44039131Y-89656518D01*
X44028763Y-89674477D01*
X43979401Y-89729298D01*
X43936533Y-89781533D01*
X43920582Y-89794623D01*
X43902753Y-89814425D01*
X43847850Y-89854314D01*
X43800120Y-89893486D01*
X43776719Y-89905994D01*
X43750400Y-89925116D01*
X43693792Y-89950319D01*
X43644492Y-89976671D01*
X43613470Y-89986081D01*
X43578363Y-90001712D01*
X43523495Y-90013374D01*
X43475616Y-90027898D01*
X43437505Y-90031651D01*
X43394159Y-90040865D01*
X43343962Y-90040865D01*
X43300000Y-90045195D01*
X43256037Y-90040865D01*
X43205841Y-90040865D01*
X43162495Y-90031651D01*
X43124383Y-90027898D01*
X43076501Y-90013373D01*
X43021637Y-90001712D01*
X42986531Y-89986082D01*
X42955507Y-89976671D01*
X42906202Y-89950316D01*
X42849600Y-89925116D01*
X42823283Y-89905996D01*
X42799879Y-89893486D01*
X42752141Y-89854308D01*
X42697247Y-89814425D01*
X42679420Y-89794626D01*
X42663466Y-89781533D01*
X42620587Y-89729285D01*
X42571237Y-89674477D01*
X42560871Y-89656522D01*
X42551513Y-89645120D01*
X42516888Y-89580341D01*
X42477078Y-89511388D01*
X42472499Y-89497295D01*
X42468328Y-89489492D01*
X42445332Y-89413686D01*
X42418885Y-89332287D01*
X42417953Y-89323427D01*
X42417101Y-89320616D01*
X42408800Y-89236338D01*
X42399200Y-89145000D01*
X42408799Y-89053669D01*
X42417101Y-88969383D01*
X42417953Y-88966571D01*
X42418885Y-88957713D01*
X42445328Y-88876327D01*
X42468328Y-88800507D01*
X42472499Y-88792701D01*
X42477078Y-88778612D01*
X42516881Y-88709670D01*
X42551513Y-88644879D01*
X42560873Y-88633473D01*
X42571237Y-88615523D01*
X42620577Y-88560724D01*
X42663466Y-88508466D01*
X42679424Y-88495369D01*
X42697247Y-88475575D01*
X42752130Y-88435699D01*
X42799879Y-88396513D01*
X42823288Y-88384000D01*
X42849600Y-88364884D01*
X42906190Y-88339688D01*
X42955507Y-88313328D01*
X42986538Y-88303914D01*
X43021637Y-88288288D01*
X43076490Y-88276628D01*
X43124383Y-88262101D01*
X43162504Y-88258346D01*
X43205841Y-88249135D01*
X43256027Y-88249135D01*
X43300000Y-88244804D01*
X43343973Y-88249135D01*
G37*
G36*
X61143973Y-88244135D02*
G01*
X61194159Y-88244135D01*
X61237496Y-88253346D01*
X61275616Y-88257101D01*
X61323506Y-88271628D01*
X61378363Y-88283288D01*
X61413463Y-88298915D01*
X61444492Y-88308328D01*
X61493803Y-88334685D01*
X61550400Y-88359884D01*
X61576713Y-88379002D01*
X61600120Y-88391513D01*
X61647860Y-88430693D01*
X61702753Y-88470575D01*
X61720578Y-88490372D01*
X61736533Y-88503466D01*
X61779410Y-88555711D01*
X61828763Y-88610523D01*
X61839129Y-88628477D01*
X61848486Y-88639879D01*
X61883105Y-88704647D01*
X61922922Y-88773612D01*
X61927501Y-88787706D01*
X61931671Y-88795507D01*
X61954656Y-88871281D01*
X61981115Y-88952713D01*
X61982046Y-88961576D01*
X61982898Y-88964383D01*
X61991184Y-89048518D01*
X62000800Y-89140000D01*
X61991183Y-89231489D01*
X61982898Y-89315616D01*
X61982046Y-89318422D01*
X61981115Y-89327287D01*
X61954651Y-89408732D01*
X61931671Y-89484492D01*
X61927502Y-89492290D01*
X61922922Y-89506388D01*
X61883098Y-89575365D01*
X61848486Y-89640120D01*
X61839131Y-89651518D01*
X61828763Y-89669477D01*
X61779401Y-89724298D01*
X61736533Y-89776533D01*
X61720582Y-89789623D01*
X61702753Y-89809425D01*
X61647850Y-89849314D01*
X61600120Y-89888486D01*
X61576719Y-89900994D01*
X61550400Y-89920116D01*
X61493792Y-89945319D01*
X61444492Y-89971671D01*
X61413470Y-89981081D01*
X61378363Y-89996712D01*
X61323495Y-90008374D01*
X61275616Y-90022898D01*
X61237505Y-90026651D01*
X61194159Y-90035865D01*
X61143962Y-90035865D01*
X61100000Y-90040195D01*
X61056037Y-90035865D01*
X61005841Y-90035865D01*
X60962495Y-90026651D01*
X60924383Y-90022898D01*
X60876501Y-90008373D01*
X60821637Y-89996712D01*
X60786531Y-89981082D01*
X60755507Y-89971671D01*
X60706202Y-89945316D01*
X60649600Y-89920116D01*
X60623283Y-89900996D01*
X60599879Y-89888486D01*
X60552141Y-89849308D01*
X60497247Y-89809425D01*
X60479420Y-89789626D01*
X60463466Y-89776533D01*
X60420587Y-89724285D01*
X60371237Y-89669477D01*
X60360871Y-89651522D01*
X60351513Y-89640120D01*
X60316888Y-89575341D01*
X60277078Y-89506388D01*
X60272499Y-89492295D01*
X60268328Y-89484492D01*
X60245332Y-89408686D01*
X60218885Y-89327287D01*
X60217953Y-89318427D01*
X60217101Y-89315616D01*
X60208800Y-89231338D01*
X60199200Y-89140000D01*
X60208799Y-89048669D01*
X60217101Y-88964383D01*
X60217953Y-88961571D01*
X60218885Y-88952713D01*
X60245328Y-88871327D01*
X60268328Y-88795507D01*
X60272499Y-88787701D01*
X60277078Y-88773612D01*
X60316881Y-88704670D01*
X60351513Y-88639879D01*
X60360873Y-88628473D01*
X60371237Y-88610523D01*
X60420577Y-88555724D01*
X60463466Y-88503466D01*
X60479424Y-88490369D01*
X60497247Y-88470575D01*
X60552130Y-88430699D01*
X60599879Y-88391513D01*
X60623288Y-88379000D01*
X60649600Y-88359884D01*
X60706190Y-88334688D01*
X60755507Y-88308328D01*
X60786538Y-88298914D01*
X60821637Y-88283288D01*
X60876490Y-88271628D01*
X60924383Y-88257101D01*
X60962504Y-88253346D01*
X61005841Y-88244135D01*
X61056027Y-88244135D01*
X61100000Y-88239804D01*
X61143973Y-88244135D01*
G37*
G36*
X43343973Y-85709135D02*
G01*
X43394159Y-85709135D01*
X43437496Y-85718346D01*
X43475616Y-85722101D01*
X43523506Y-85736628D01*
X43578363Y-85748288D01*
X43613463Y-85763915D01*
X43644492Y-85773328D01*
X43693803Y-85799685D01*
X43750400Y-85824884D01*
X43776713Y-85844002D01*
X43800120Y-85856513D01*
X43847860Y-85895693D01*
X43902753Y-85935575D01*
X43920578Y-85955372D01*
X43936533Y-85968466D01*
X43979410Y-86020711D01*
X44028763Y-86075523D01*
X44039129Y-86093477D01*
X44048486Y-86104879D01*
X44083105Y-86169647D01*
X44122922Y-86238612D01*
X44127501Y-86252706D01*
X44131671Y-86260507D01*
X44154656Y-86336281D01*
X44181115Y-86417713D01*
X44182046Y-86426576D01*
X44182898Y-86429383D01*
X44191184Y-86513518D01*
X44200800Y-86605000D01*
X44191183Y-86696489D01*
X44182898Y-86780616D01*
X44182046Y-86783422D01*
X44181115Y-86792287D01*
X44154651Y-86873732D01*
X44131671Y-86949492D01*
X44127502Y-86957290D01*
X44122922Y-86971388D01*
X44083098Y-87040365D01*
X44048486Y-87105120D01*
X44039131Y-87116518D01*
X44028763Y-87134477D01*
X43979401Y-87189298D01*
X43936533Y-87241533D01*
X43920582Y-87254623D01*
X43902753Y-87274425D01*
X43847850Y-87314314D01*
X43800120Y-87353486D01*
X43776719Y-87365994D01*
X43750400Y-87385116D01*
X43693792Y-87410319D01*
X43644492Y-87436671D01*
X43613470Y-87446081D01*
X43578363Y-87461712D01*
X43523495Y-87473374D01*
X43475616Y-87487898D01*
X43437505Y-87491651D01*
X43394159Y-87500865D01*
X43343962Y-87500865D01*
X43300000Y-87505195D01*
X43256037Y-87500865D01*
X43205841Y-87500865D01*
X43162495Y-87491651D01*
X43124383Y-87487898D01*
X43076501Y-87473373D01*
X43021637Y-87461712D01*
X42986531Y-87446082D01*
X42955507Y-87436671D01*
X42906202Y-87410316D01*
X42849600Y-87385116D01*
X42823283Y-87365996D01*
X42799879Y-87353486D01*
X42752141Y-87314308D01*
X42697247Y-87274425D01*
X42679420Y-87254626D01*
X42663466Y-87241533D01*
X42620587Y-87189285D01*
X42571237Y-87134477D01*
X42560871Y-87116522D01*
X42551513Y-87105120D01*
X42516888Y-87040341D01*
X42477078Y-86971388D01*
X42472499Y-86957295D01*
X42468328Y-86949492D01*
X42445332Y-86873686D01*
X42418885Y-86792287D01*
X42417953Y-86783427D01*
X42417101Y-86780616D01*
X42408800Y-86696338D01*
X42399200Y-86605000D01*
X42408799Y-86513669D01*
X42417101Y-86429383D01*
X42417953Y-86426571D01*
X42418885Y-86417713D01*
X42445328Y-86336327D01*
X42468328Y-86260507D01*
X42472499Y-86252701D01*
X42477078Y-86238612D01*
X42516881Y-86169670D01*
X42551513Y-86104879D01*
X42560873Y-86093473D01*
X42571237Y-86075523D01*
X42620577Y-86020724D01*
X42663466Y-85968466D01*
X42679424Y-85955369D01*
X42697247Y-85935575D01*
X42752130Y-85895699D01*
X42799879Y-85856513D01*
X42823288Y-85844000D01*
X42849600Y-85824884D01*
X42906190Y-85799688D01*
X42955507Y-85773328D01*
X42986538Y-85763914D01*
X43021637Y-85748288D01*
X43076490Y-85736628D01*
X43124383Y-85722101D01*
X43162504Y-85718346D01*
X43205841Y-85709135D01*
X43256027Y-85709135D01*
X43300000Y-85704804D01*
X43343973Y-85709135D01*
G37*
G36*
X61143973Y-85704135D02*
G01*
X61194159Y-85704135D01*
X61237496Y-85713346D01*
X61275616Y-85717101D01*
X61323506Y-85731628D01*
X61378363Y-85743288D01*
X61413463Y-85758915D01*
X61444492Y-85768328D01*
X61493803Y-85794685D01*
X61550400Y-85819884D01*
X61576713Y-85839002D01*
X61600120Y-85851513D01*
X61647860Y-85890693D01*
X61702753Y-85930575D01*
X61720578Y-85950372D01*
X61736533Y-85963466D01*
X61779410Y-86015711D01*
X61828763Y-86070523D01*
X61839129Y-86088477D01*
X61848486Y-86099879D01*
X61883105Y-86164647D01*
X61922922Y-86233612D01*
X61927501Y-86247706D01*
X61931671Y-86255507D01*
X61954656Y-86331281D01*
X61981115Y-86412713D01*
X61982046Y-86421576D01*
X61982898Y-86424383D01*
X61991184Y-86508518D01*
X62000800Y-86600000D01*
X61991183Y-86691489D01*
X61982898Y-86775616D01*
X61982046Y-86778422D01*
X61981115Y-86787287D01*
X61954651Y-86868732D01*
X61931671Y-86944492D01*
X61927502Y-86952290D01*
X61922922Y-86966388D01*
X61883098Y-87035365D01*
X61848486Y-87100120D01*
X61839131Y-87111518D01*
X61828763Y-87129477D01*
X61779401Y-87184298D01*
X61736533Y-87236533D01*
X61720582Y-87249623D01*
X61702753Y-87269425D01*
X61647850Y-87309314D01*
X61600120Y-87348486D01*
X61576719Y-87360994D01*
X61550400Y-87380116D01*
X61493792Y-87405319D01*
X61444492Y-87431671D01*
X61413470Y-87441081D01*
X61378363Y-87456712D01*
X61323495Y-87468374D01*
X61275616Y-87482898D01*
X61237505Y-87486651D01*
X61194159Y-87495865D01*
X61143962Y-87495865D01*
X61100000Y-87500195D01*
X61056037Y-87495865D01*
X61005841Y-87495865D01*
X60962495Y-87486651D01*
X60924383Y-87482898D01*
X60876501Y-87468373D01*
X60821637Y-87456712D01*
X60786531Y-87441082D01*
X60755507Y-87431671D01*
X60706202Y-87405316D01*
X60649600Y-87380116D01*
X60623283Y-87360996D01*
X60599879Y-87348486D01*
X60552141Y-87309308D01*
X60497247Y-87269425D01*
X60479420Y-87249626D01*
X60463466Y-87236533D01*
X60420587Y-87184285D01*
X60371237Y-87129477D01*
X60360871Y-87111522D01*
X60351513Y-87100120D01*
X60316888Y-87035341D01*
X60277078Y-86966388D01*
X60272499Y-86952295D01*
X60268328Y-86944492D01*
X60245332Y-86868686D01*
X60218885Y-86787287D01*
X60217953Y-86778427D01*
X60217101Y-86775616D01*
X60208800Y-86691338D01*
X60199200Y-86600000D01*
X60208799Y-86508669D01*
X60217101Y-86424383D01*
X60217953Y-86421571D01*
X60218885Y-86412713D01*
X60245328Y-86331327D01*
X60268328Y-86255507D01*
X60272499Y-86247701D01*
X60277078Y-86233612D01*
X60316881Y-86164670D01*
X60351513Y-86099879D01*
X60360873Y-86088473D01*
X60371237Y-86070523D01*
X60420577Y-86015724D01*
X60463466Y-85963466D01*
X60479424Y-85950369D01*
X60497247Y-85930575D01*
X60552130Y-85890699D01*
X60599879Y-85851513D01*
X60623288Y-85839000D01*
X60649600Y-85819884D01*
X60706190Y-85794688D01*
X60755507Y-85768328D01*
X60786538Y-85758914D01*
X60821637Y-85743288D01*
X60876490Y-85731628D01*
X60924383Y-85717101D01*
X60962504Y-85713346D01*
X61005841Y-85704135D01*
X61056027Y-85704135D01*
X61100000Y-85699804D01*
X61143973Y-85704135D01*
G37*
G36*
X43343973Y-83169135D02*
G01*
X43394159Y-83169135D01*
X43437496Y-83178346D01*
X43475616Y-83182101D01*
X43523506Y-83196628D01*
X43578363Y-83208288D01*
X43613463Y-83223915D01*
X43644492Y-83233328D01*
X43693803Y-83259685D01*
X43750400Y-83284884D01*
X43776713Y-83304002D01*
X43800120Y-83316513D01*
X43847860Y-83355693D01*
X43902753Y-83395575D01*
X43920578Y-83415372D01*
X43936533Y-83428466D01*
X43979410Y-83480711D01*
X44028763Y-83535523D01*
X44039129Y-83553477D01*
X44048486Y-83564879D01*
X44083105Y-83629647D01*
X44122922Y-83698612D01*
X44127501Y-83712706D01*
X44131671Y-83720507D01*
X44154656Y-83796281D01*
X44181115Y-83877713D01*
X44182046Y-83886576D01*
X44182898Y-83889383D01*
X44191184Y-83973518D01*
X44200800Y-84065000D01*
X44191183Y-84156489D01*
X44182898Y-84240616D01*
X44182046Y-84243422D01*
X44181115Y-84252287D01*
X44154651Y-84333732D01*
X44131671Y-84409492D01*
X44127502Y-84417290D01*
X44122922Y-84431388D01*
X44083098Y-84500365D01*
X44048486Y-84565120D01*
X44039131Y-84576518D01*
X44028763Y-84594477D01*
X43979401Y-84649298D01*
X43936533Y-84701533D01*
X43920582Y-84714623D01*
X43902753Y-84734425D01*
X43847850Y-84774314D01*
X43800120Y-84813486D01*
X43776719Y-84825994D01*
X43750400Y-84845116D01*
X43693792Y-84870319D01*
X43644492Y-84896671D01*
X43613470Y-84906081D01*
X43578363Y-84921712D01*
X43523495Y-84933374D01*
X43475616Y-84947898D01*
X43437505Y-84951651D01*
X43394159Y-84960865D01*
X43343962Y-84960865D01*
X43300000Y-84965195D01*
X43256037Y-84960865D01*
X43205841Y-84960865D01*
X43162495Y-84951651D01*
X43124383Y-84947898D01*
X43076501Y-84933373D01*
X43021637Y-84921712D01*
X42986531Y-84906082D01*
X42955507Y-84896671D01*
X42906202Y-84870316D01*
X42849600Y-84845116D01*
X42823283Y-84825996D01*
X42799879Y-84813486D01*
X42752141Y-84774308D01*
X42697247Y-84734425D01*
X42679420Y-84714626D01*
X42663466Y-84701533D01*
X42620587Y-84649285D01*
X42571237Y-84594477D01*
X42560871Y-84576522D01*
X42551513Y-84565120D01*
X42516888Y-84500341D01*
X42477078Y-84431388D01*
X42472499Y-84417295D01*
X42468328Y-84409492D01*
X42445332Y-84333686D01*
X42418885Y-84252287D01*
X42417953Y-84243427D01*
X42417101Y-84240616D01*
X42408800Y-84156338D01*
X42399200Y-84065000D01*
X42408799Y-83973669D01*
X42417101Y-83889383D01*
X42417953Y-83886571D01*
X42418885Y-83877713D01*
X42445328Y-83796327D01*
X42468328Y-83720507D01*
X42472499Y-83712701D01*
X42477078Y-83698612D01*
X42516881Y-83629670D01*
X42551513Y-83564879D01*
X42560873Y-83553473D01*
X42571237Y-83535523D01*
X42620577Y-83480724D01*
X42663466Y-83428466D01*
X42679424Y-83415369D01*
X42697247Y-83395575D01*
X42752130Y-83355699D01*
X42799879Y-83316513D01*
X42823288Y-83304000D01*
X42849600Y-83284884D01*
X42906190Y-83259688D01*
X42955507Y-83233328D01*
X42986538Y-83223914D01*
X43021637Y-83208288D01*
X43076490Y-83196628D01*
X43124383Y-83182101D01*
X43162504Y-83178346D01*
X43205841Y-83169135D01*
X43256027Y-83169135D01*
X43300000Y-83164804D01*
X43343973Y-83169135D01*
G37*
G36*
X61143973Y-83164135D02*
G01*
X61194159Y-83164135D01*
X61237496Y-83173346D01*
X61275616Y-83177101D01*
X61323506Y-83191628D01*
X61378363Y-83203288D01*
X61413463Y-83218915D01*
X61444492Y-83228328D01*
X61493803Y-83254685D01*
X61550400Y-83279884D01*
X61576713Y-83299002D01*
X61600120Y-83311513D01*
X61647860Y-83350693D01*
X61702753Y-83390575D01*
X61720578Y-83410372D01*
X61736533Y-83423466D01*
X61779410Y-83475711D01*
X61828763Y-83530523D01*
X61839129Y-83548477D01*
X61848486Y-83559879D01*
X61883105Y-83624647D01*
X61922922Y-83693612D01*
X61927501Y-83707706D01*
X61931671Y-83715507D01*
X61954656Y-83791281D01*
X61981115Y-83872713D01*
X61982046Y-83881576D01*
X61982898Y-83884383D01*
X61991184Y-83968518D01*
X62000800Y-84060000D01*
X61991183Y-84151489D01*
X61982898Y-84235616D01*
X61982046Y-84238422D01*
X61981115Y-84247287D01*
X61954651Y-84328732D01*
X61931671Y-84404492D01*
X61927502Y-84412290D01*
X61922922Y-84426388D01*
X61883098Y-84495365D01*
X61848486Y-84560120D01*
X61839131Y-84571518D01*
X61828763Y-84589477D01*
X61779401Y-84644298D01*
X61736533Y-84696533D01*
X61720582Y-84709623D01*
X61702753Y-84729425D01*
X61647850Y-84769314D01*
X61600120Y-84808486D01*
X61576719Y-84820994D01*
X61550400Y-84840116D01*
X61493792Y-84865319D01*
X61444492Y-84891671D01*
X61413470Y-84901081D01*
X61378363Y-84916712D01*
X61323495Y-84928374D01*
X61275616Y-84942898D01*
X61237505Y-84946651D01*
X61194159Y-84955865D01*
X61143962Y-84955865D01*
X61100000Y-84960195D01*
X61056037Y-84955865D01*
X61005841Y-84955865D01*
X60962495Y-84946651D01*
X60924383Y-84942898D01*
X60876501Y-84928373D01*
X60821637Y-84916712D01*
X60786531Y-84901082D01*
X60755507Y-84891671D01*
X60706202Y-84865316D01*
X60649600Y-84840116D01*
X60623283Y-84820996D01*
X60599879Y-84808486D01*
X60552141Y-84769308D01*
X60497247Y-84729425D01*
X60479420Y-84709626D01*
X60463466Y-84696533D01*
X60420587Y-84644285D01*
X60371237Y-84589477D01*
X60360871Y-84571522D01*
X60351513Y-84560120D01*
X60316888Y-84495341D01*
X60277078Y-84426388D01*
X60272499Y-84412295D01*
X60268328Y-84404492D01*
X60245332Y-84328686D01*
X60218885Y-84247287D01*
X60217953Y-84238427D01*
X60217101Y-84235616D01*
X60208800Y-84151338D01*
X60199200Y-84060000D01*
X60208799Y-83968669D01*
X60217101Y-83884383D01*
X60217953Y-83881571D01*
X60218885Y-83872713D01*
X60245328Y-83791327D01*
X60268328Y-83715507D01*
X60272499Y-83707701D01*
X60277078Y-83693612D01*
X60316881Y-83624670D01*
X60351513Y-83559879D01*
X60360873Y-83548473D01*
X60371237Y-83530523D01*
X60420577Y-83475724D01*
X60463466Y-83423466D01*
X60479424Y-83410369D01*
X60497247Y-83390575D01*
X60552130Y-83350699D01*
X60599879Y-83311513D01*
X60623288Y-83299000D01*
X60649600Y-83279884D01*
X60706190Y-83254688D01*
X60755507Y-83228328D01*
X60786538Y-83218914D01*
X60821637Y-83203288D01*
X60876490Y-83191628D01*
X60924383Y-83177101D01*
X60962504Y-83173346D01*
X61005841Y-83164135D01*
X61056027Y-83164135D01*
X61100000Y-83159804D01*
X61143973Y-83164135D01*
G37*
G36*
X43343973Y-80629135D02*
G01*
X43394159Y-80629135D01*
X43437496Y-80638346D01*
X43475616Y-80642101D01*
X43523506Y-80656628D01*
X43578363Y-80668288D01*
X43613463Y-80683915D01*
X43644492Y-80693328D01*
X43693803Y-80719685D01*
X43750400Y-80744884D01*
X43776713Y-80764002D01*
X43800120Y-80776513D01*
X43847860Y-80815693D01*
X43902753Y-80855575D01*
X43920578Y-80875372D01*
X43936533Y-80888466D01*
X43979410Y-80940711D01*
X44028763Y-80995523D01*
X44039129Y-81013477D01*
X44048486Y-81024879D01*
X44083105Y-81089647D01*
X44122922Y-81158612D01*
X44127501Y-81172706D01*
X44131671Y-81180507D01*
X44154656Y-81256281D01*
X44181115Y-81337713D01*
X44182046Y-81346576D01*
X44182898Y-81349383D01*
X44191184Y-81433518D01*
X44200800Y-81525000D01*
X44191183Y-81616489D01*
X44182898Y-81700616D01*
X44182046Y-81703422D01*
X44181115Y-81712287D01*
X44154651Y-81793732D01*
X44131671Y-81869492D01*
X44127502Y-81877290D01*
X44122922Y-81891388D01*
X44083098Y-81960365D01*
X44048486Y-82025120D01*
X44039131Y-82036518D01*
X44028763Y-82054477D01*
X43979401Y-82109298D01*
X43936533Y-82161533D01*
X43920582Y-82174623D01*
X43902753Y-82194425D01*
X43847850Y-82234314D01*
X43800120Y-82273486D01*
X43776719Y-82285994D01*
X43750400Y-82305116D01*
X43693792Y-82330319D01*
X43644492Y-82356671D01*
X43613470Y-82366081D01*
X43578363Y-82381712D01*
X43523495Y-82393374D01*
X43475616Y-82407898D01*
X43437505Y-82411651D01*
X43394159Y-82420865D01*
X43343962Y-82420865D01*
X43300000Y-82425195D01*
X43256037Y-82420865D01*
X43205841Y-82420865D01*
X43162495Y-82411651D01*
X43124383Y-82407898D01*
X43076501Y-82393373D01*
X43021637Y-82381712D01*
X42986531Y-82366082D01*
X42955507Y-82356671D01*
X42906202Y-82330316D01*
X42849600Y-82305116D01*
X42823283Y-82285996D01*
X42799879Y-82273486D01*
X42752141Y-82234308D01*
X42697247Y-82194425D01*
X42679420Y-82174626D01*
X42663466Y-82161533D01*
X42620587Y-82109285D01*
X42571237Y-82054477D01*
X42560871Y-82036522D01*
X42551513Y-82025120D01*
X42516888Y-81960341D01*
X42477078Y-81891388D01*
X42472499Y-81877295D01*
X42468328Y-81869492D01*
X42445332Y-81793686D01*
X42418885Y-81712287D01*
X42417953Y-81703427D01*
X42417101Y-81700616D01*
X42408800Y-81616338D01*
X42399200Y-81525000D01*
X42408799Y-81433669D01*
X42417101Y-81349383D01*
X42417953Y-81346571D01*
X42418885Y-81337713D01*
X42445328Y-81256327D01*
X42468328Y-81180507D01*
X42472499Y-81172701D01*
X42477078Y-81158612D01*
X42516881Y-81089670D01*
X42551513Y-81024879D01*
X42560873Y-81013473D01*
X42571237Y-80995523D01*
X42620577Y-80940724D01*
X42663466Y-80888466D01*
X42679424Y-80875369D01*
X42697247Y-80855575D01*
X42752130Y-80815699D01*
X42799879Y-80776513D01*
X42823288Y-80764000D01*
X42849600Y-80744884D01*
X42906190Y-80719688D01*
X42955507Y-80693328D01*
X42986538Y-80683914D01*
X43021637Y-80668288D01*
X43076490Y-80656628D01*
X43124383Y-80642101D01*
X43162504Y-80638346D01*
X43205841Y-80629135D01*
X43256027Y-80629135D01*
X43300000Y-80624804D01*
X43343973Y-80629135D01*
G37*
G36*
X61143973Y-80624135D02*
G01*
X61194159Y-80624135D01*
X61237496Y-80633346D01*
X61275616Y-80637101D01*
X61323506Y-80651628D01*
X61378363Y-80663288D01*
X61413463Y-80678915D01*
X61444492Y-80688328D01*
X61493803Y-80714685D01*
X61550400Y-80739884D01*
X61576713Y-80759002D01*
X61600120Y-80771513D01*
X61647860Y-80810693D01*
X61702753Y-80850575D01*
X61720578Y-80870372D01*
X61736533Y-80883466D01*
X61779410Y-80935711D01*
X61828763Y-80990523D01*
X61839129Y-81008477D01*
X61848486Y-81019879D01*
X61883105Y-81084647D01*
X61922922Y-81153612D01*
X61927501Y-81167706D01*
X61931671Y-81175507D01*
X61954656Y-81251281D01*
X61981115Y-81332713D01*
X61982046Y-81341576D01*
X61982898Y-81344383D01*
X61991184Y-81428518D01*
X62000800Y-81520000D01*
X61991183Y-81611489D01*
X61982898Y-81695616D01*
X61982046Y-81698422D01*
X61981115Y-81707287D01*
X61954651Y-81788732D01*
X61931671Y-81864492D01*
X61927502Y-81872290D01*
X61922922Y-81886388D01*
X61883098Y-81955365D01*
X61848486Y-82020120D01*
X61839131Y-82031518D01*
X61828763Y-82049477D01*
X61779401Y-82104298D01*
X61736533Y-82156533D01*
X61720582Y-82169623D01*
X61702753Y-82189425D01*
X61647850Y-82229314D01*
X61600120Y-82268486D01*
X61576719Y-82280994D01*
X61550400Y-82300116D01*
X61493792Y-82325319D01*
X61444492Y-82351671D01*
X61413470Y-82361081D01*
X61378363Y-82376712D01*
X61323495Y-82388374D01*
X61275616Y-82402898D01*
X61237505Y-82406651D01*
X61194159Y-82415865D01*
X61143962Y-82415865D01*
X61100000Y-82420195D01*
X61056037Y-82415865D01*
X61005841Y-82415865D01*
X60962495Y-82406651D01*
X60924383Y-82402898D01*
X60876501Y-82388373D01*
X60821637Y-82376712D01*
X60786531Y-82361082D01*
X60755507Y-82351671D01*
X60706202Y-82325316D01*
X60649600Y-82300116D01*
X60623283Y-82280996D01*
X60599879Y-82268486D01*
X60552141Y-82229308D01*
X60497247Y-82189425D01*
X60479420Y-82169626D01*
X60463466Y-82156533D01*
X60420587Y-82104285D01*
X60371237Y-82049477D01*
X60360871Y-82031522D01*
X60351513Y-82020120D01*
X60316888Y-81955341D01*
X60277078Y-81886388D01*
X60272499Y-81872295D01*
X60268328Y-81864492D01*
X60245332Y-81788686D01*
X60218885Y-81707287D01*
X60217953Y-81698427D01*
X60217101Y-81695616D01*
X60208800Y-81611338D01*
X60199200Y-81520000D01*
X60208799Y-81428669D01*
X60217101Y-81344383D01*
X60217953Y-81341571D01*
X60218885Y-81332713D01*
X60245328Y-81251327D01*
X60268328Y-81175507D01*
X60272499Y-81167701D01*
X60277078Y-81153612D01*
X60316881Y-81084670D01*
X60351513Y-81019879D01*
X60360873Y-81008473D01*
X60371237Y-80990523D01*
X60420577Y-80935724D01*
X60463466Y-80883466D01*
X60479424Y-80870369D01*
X60497247Y-80850575D01*
X60552130Y-80810699D01*
X60599879Y-80771513D01*
X60623288Y-80759000D01*
X60649600Y-80739884D01*
X60706190Y-80714688D01*
X60755507Y-80688328D01*
X60786538Y-80678914D01*
X60821637Y-80663288D01*
X60876490Y-80651628D01*
X60924383Y-80637101D01*
X60962504Y-80633346D01*
X61005841Y-80624135D01*
X61056027Y-80624135D01*
X61100000Y-80619804D01*
X61143973Y-80624135D01*
G37*
G36*
X43343973Y-78089135D02*
G01*
X43394159Y-78089135D01*
X43437496Y-78098346D01*
X43475616Y-78102101D01*
X43523506Y-78116628D01*
X43578363Y-78128288D01*
X43613463Y-78143915D01*
X43644492Y-78153328D01*
X43693803Y-78179685D01*
X43750400Y-78204884D01*
X43776713Y-78224002D01*
X43800120Y-78236513D01*
X43847860Y-78275693D01*
X43902753Y-78315575D01*
X43920578Y-78335372D01*
X43936533Y-78348466D01*
X43979410Y-78400711D01*
X44028763Y-78455523D01*
X44039129Y-78473477D01*
X44048486Y-78484879D01*
X44083105Y-78549647D01*
X44122922Y-78618612D01*
X44127501Y-78632706D01*
X44131671Y-78640507D01*
X44154656Y-78716281D01*
X44181115Y-78797713D01*
X44182046Y-78806576D01*
X44182898Y-78809383D01*
X44191184Y-78893518D01*
X44200800Y-78985000D01*
X44191183Y-79076489D01*
X44182898Y-79160616D01*
X44182046Y-79163422D01*
X44181115Y-79172287D01*
X44154651Y-79253732D01*
X44131671Y-79329492D01*
X44127502Y-79337290D01*
X44122922Y-79351388D01*
X44083098Y-79420365D01*
X44048486Y-79485120D01*
X44039131Y-79496518D01*
X44028763Y-79514477D01*
X43979401Y-79569298D01*
X43936533Y-79621533D01*
X43920582Y-79634623D01*
X43902753Y-79654425D01*
X43847850Y-79694314D01*
X43800120Y-79733486D01*
X43776719Y-79745994D01*
X43750400Y-79765116D01*
X43693792Y-79790319D01*
X43644492Y-79816671D01*
X43613470Y-79826081D01*
X43578363Y-79841712D01*
X43523495Y-79853374D01*
X43475616Y-79867898D01*
X43437505Y-79871651D01*
X43394159Y-79880865D01*
X43343962Y-79880865D01*
X43300000Y-79885195D01*
X43256037Y-79880865D01*
X43205841Y-79880865D01*
X43162495Y-79871651D01*
X43124383Y-79867898D01*
X43076501Y-79853373D01*
X43021637Y-79841712D01*
X42986531Y-79826082D01*
X42955507Y-79816671D01*
X42906202Y-79790316D01*
X42849600Y-79765116D01*
X42823283Y-79745996D01*
X42799879Y-79733486D01*
X42752141Y-79694308D01*
X42697247Y-79654425D01*
X42679420Y-79634626D01*
X42663466Y-79621533D01*
X42620587Y-79569285D01*
X42571237Y-79514477D01*
X42560871Y-79496522D01*
X42551513Y-79485120D01*
X42516888Y-79420341D01*
X42477078Y-79351388D01*
X42472499Y-79337295D01*
X42468328Y-79329492D01*
X42445332Y-79253686D01*
X42418885Y-79172287D01*
X42417953Y-79163427D01*
X42417101Y-79160616D01*
X42408800Y-79076338D01*
X42399200Y-78985000D01*
X42408799Y-78893669D01*
X42417101Y-78809383D01*
X42417953Y-78806571D01*
X42418885Y-78797713D01*
X42445328Y-78716327D01*
X42468328Y-78640507D01*
X42472499Y-78632701D01*
X42477078Y-78618612D01*
X42516881Y-78549670D01*
X42551513Y-78484879D01*
X42560873Y-78473473D01*
X42571237Y-78455523D01*
X42620577Y-78400724D01*
X42663466Y-78348466D01*
X42679424Y-78335369D01*
X42697247Y-78315575D01*
X42752130Y-78275699D01*
X42799879Y-78236513D01*
X42823288Y-78224000D01*
X42849600Y-78204884D01*
X42906190Y-78179688D01*
X42955507Y-78153328D01*
X42986538Y-78143914D01*
X43021637Y-78128288D01*
X43076490Y-78116628D01*
X43124383Y-78102101D01*
X43162504Y-78098346D01*
X43205841Y-78089135D01*
X43256027Y-78089135D01*
X43300000Y-78084804D01*
X43343973Y-78089135D01*
G37*
G36*
X61143973Y-78084135D02*
G01*
X61194159Y-78084135D01*
X61237496Y-78093346D01*
X61275616Y-78097101D01*
X61323506Y-78111628D01*
X61378363Y-78123288D01*
X61413463Y-78138915D01*
X61444492Y-78148328D01*
X61493803Y-78174685D01*
X61550400Y-78199884D01*
X61576713Y-78219002D01*
X61600120Y-78231513D01*
X61647860Y-78270693D01*
X61702753Y-78310575D01*
X61720578Y-78330372D01*
X61736533Y-78343466D01*
X61779410Y-78395711D01*
X61828763Y-78450523D01*
X61839129Y-78468477D01*
X61848486Y-78479879D01*
X61883105Y-78544647D01*
X61922922Y-78613612D01*
X61927501Y-78627706D01*
X61931671Y-78635507D01*
X61954656Y-78711281D01*
X61981115Y-78792713D01*
X61982046Y-78801576D01*
X61982898Y-78804383D01*
X61991184Y-78888518D01*
X62000800Y-78980000D01*
X61991183Y-79071489D01*
X61982898Y-79155616D01*
X61982046Y-79158422D01*
X61981115Y-79167287D01*
X61954651Y-79248732D01*
X61931671Y-79324492D01*
X61927502Y-79332290D01*
X61922922Y-79346388D01*
X61883098Y-79415365D01*
X61848486Y-79480120D01*
X61839131Y-79491518D01*
X61828763Y-79509477D01*
X61779401Y-79564298D01*
X61736533Y-79616533D01*
X61720582Y-79629623D01*
X61702753Y-79649425D01*
X61647850Y-79689314D01*
X61600120Y-79728486D01*
X61576719Y-79740994D01*
X61550400Y-79760116D01*
X61493792Y-79785319D01*
X61444492Y-79811671D01*
X61413470Y-79821081D01*
X61378363Y-79836712D01*
X61323495Y-79848374D01*
X61275616Y-79862898D01*
X61237505Y-79866651D01*
X61194159Y-79875865D01*
X61143962Y-79875865D01*
X61100000Y-79880195D01*
X61056037Y-79875865D01*
X61005841Y-79875865D01*
X60962495Y-79866651D01*
X60924383Y-79862898D01*
X60876501Y-79848373D01*
X60821637Y-79836712D01*
X60786531Y-79821082D01*
X60755507Y-79811671D01*
X60706202Y-79785316D01*
X60649600Y-79760116D01*
X60623283Y-79740996D01*
X60599879Y-79728486D01*
X60552141Y-79689308D01*
X60497247Y-79649425D01*
X60479420Y-79629626D01*
X60463466Y-79616533D01*
X60420587Y-79564285D01*
X60371237Y-79509477D01*
X60360871Y-79491522D01*
X60351513Y-79480120D01*
X60316888Y-79415341D01*
X60277078Y-79346388D01*
X60272499Y-79332295D01*
X60268328Y-79324492D01*
X60245332Y-79248686D01*
X60218885Y-79167287D01*
X60217953Y-79158427D01*
X60217101Y-79155616D01*
X60208800Y-79071338D01*
X60199200Y-78980000D01*
X60208799Y-78888669D01*
X60217101Y-78804383D01*
X60217953Y-78801571D01*
X60218885Y-78792713D01*
X60245328Y-78711327D01*
X60268328Y-78635507D01*
X60272499Y-78627701D01*
X60277078Y-78613612D01*
X60316881Y-78544670D01*
X60351513Y-78479879D01*
X60360873Y-78468473D01*
X60371237Y-78450523D01*
X60420577Y-78395724D01*
X60463466Y-78343466D01*
X60479424Y-78330369D01*
X60497247Y-78310575D01*
X60552130Y-78270699D01*
X60599879Y-78231513D01*
X60623288Y-78219000D01*
X60649600Y-78199884D01*
X60706190Y-78174688D01*
X60755507Y-78148328D01*
X60786538Y-78138914D01*
X60821637Y-78123288D01*
X60876490Y-78111628D01*
X60924383Y-78097101D01*
X60962504Y-78093346D01*
X61005841Y-78084135D01*
X61056027Y-78084135D01*
X61100000Y-78079804D01*
X61143973Y-78084135D01*
G37*
G36*
X43343973Y-75549135D02*
G01*
X43394159Y-75549135D01*
X43437496Y-75558346D01*
X43475616Y-75562101D01*
X43523506Y-75576628D01*
X43578363Y-75588288D01*
X43613463Y-75603915D01*
X43644492Y-75613328D01*
X43693803Y-75639685D01*
X43750400Y-75664884D01*
X43776713Y-75684002D01*
X43800120Y-75696513D01*
X43847860Y-75735693D01*
X43902753Y-75775575D01*
X43920578Y-75795372D01*
X43936533Y-75808466D01*
X43979410Y-75860711D01*
X44028763Y-75915523D01*
X44039129Y-75933477D01*
X44048486Y-75944879D01*
X44083105Y-76009647D01*
X44122922Y-76078612D01*
X44127501Y-76092706D01*
X44131671Y-76100507D01*
X44154656Y-76176281D01*
X44181115Y-76257713D01*
X44182046Y-76266576D01*
X44182898Y-76269383D01*
X44191184Y-76353518D01*
X44200800Y-76445000D01*
X44191183Y-76536489D01*
X44182898Y-76620616D01*
X44182046Y-76623422D01*
X44181115Y-76632287D01*
X44154651Y-76713732D01*
X44131671Y-76789492D01*
X44127502Y-76797290D01*
X44122922Y-76811388D01*
X44083098Y-76880365D01*
X44048486Y-76945120D01*
X44039131Y-76956518D01*
X44028763Y-76974477D01*
X43979401Y-77029298D01*
X43936533Y-77081533D01*
X43920582Y-77094623D01*
X43902753Y-77114425D01*
X43847850Y-77154314D01*
X43800120Y-77193486D01*
X43776719Y-77205994D01*
X43750400Y-77225116D01*
X43693792Y-77250319D01*
X43644492Y-77276671D01*
X43613470Y-77286081D01*
X43578363Y-77301712D01*
X43523495Y-77313374D01*
X43475616Y-77327898D01*
X43437505Y-77331651D01*
X43394159Y-77340865D01*
X43343962Y-77340865D01*
X43300000Y-77345195D01*
X43256037Y-77340865D01*
X43205841Y-77340865D01*
X43162495Y-77331651D01*
X43124383Y-77327898D01*
X43076501Y-77313373D01*
X43021637Y-77301712D01*
X42986531Y-77286082D01*
X42955507Y-77276671D01*
X42906202Y-77250316D01*
X42849600Y-77225116D01*
X42823283Y-77205996D01*
X42799879Y-77193486D01*
X42752141Y-77154308D01*
X42697247Y-77114425D01*
X42679420Y-77094626D01*
X42663466Y-77081533D01*
X42620587Y-77029285D01*
X42571237Y-76974477D01*
X42560871Y-76956522D01*
X42551513Y-76945120D01*
X42516888Y-76880341D01*
X42477078Y-76811388D01*
X42472499Y-76797295D01*
X42468328Y-76789492D01*
X42445332Y-76713686D01*
X42418885Y-76632287D01*
X42417953Y-76623427D01*
X42417101Y-76620616D01*
X42408800Y-76536338D01*
X42399200Y-76445000D01*
X42408799Y-76353669D01*
X42417101Y-76269383D01*
X42417953Y-76266571D01*
X42418885Y-76257713D01*
X42445328Y-76176327D01*
X42468328Y-76100507D01*
X42472499Y-76092701D01*
X42477078Y-76078612D01*
X42516881Y-76009670D01*
X42551513Y-75944879D01*
X42560873Y-75933473D01*
X42571237Y-75915523D01*
X42620577Y-75860724D01*
X42663466Y-75808466D01*
X42679424Y-75795369D01*
X42697247Y-75775575D01*
X42752130Y-75735699D01*
X42799879Y-75696513D01*
X42823288Y-75684000D01*
X42849600Y-75664884D01*
X42906190Y-75639688D01*
X42955507Y-75613328D01*
X42986538Y-75603914D01*
X43021637Y-75588288D01*
X43076490Y-75576628D01*
X43124383Y-75562101D01*
X43162504Y-75558346D01*
X43205841Y-75549135D01*
X43256027Y-75549135D01*
X43300000Y-75544804D01*
X43343973Y-75549135D01*
G37*
G36*
X61143973Y-75544135D02*
G01*
X61194159Y-75544135D01*
X61237496Y-75553346D01*
X61275616Y-75557101D01*
X61323506Y-75571628D01*
X61378363Y-75583288D01*
X61413463Y-75598915D01*
X61444492Y-75608328D01*
X61493803Y-75634685D01*
X61550400Y-75659884D01*
X61576713Y-75679002D01*
X61600120Y-75691513D01*
X61647860Y-75730693D01*
X61702753Y-75770575D01*
X61720578Y-75790372D01*
X61736533Y-75803466D01*
X61779410Y-75855711D01*
X61828763Y-75910523D01*
X61839129Y-75928477D01*
X61848486Y-75939879D01*
X61883105Y-76004647D01*
X61922922Y-76073612D01*
X61927501Y-76087706D01*
X61931671Y-76095507D01*
X61954656Y-76171281D01*
X61981115Y-76252713D01*
X61982046Y-76261576D01*
X61982898Y-76264383D01*
X61991184Y-76348518D01*
X62000800Y-76440000D01*
X61991183Y-76531489D01*
X61982898Y-76615616D01*
X61982046Y-76618422D01*
X61981115Y-76627287D01*
X61954651Y-76708732D01*
X61931671Y-76784492D01*
X61927502Y-76792290D01*
X61922922Y-76806388D01*
X61883098Y-76875365D01*
X61848486Y-76940120D01*
X61839131Y-76951518D01*
X61828763Y-76969477D01*
X61779401Y-77024298D01*
X61736533Y-77076533D01*
X61720582Y-77089623D01*
X61702753Y-77109425D01*
X61647850Y-77149314D01*
X61600120Y-77188486D01*
X61576719Y-77200994D01*
X61550400Y-77220116D01*
X61493792Y-77245319D01*
X61444492Y-77271671D01*
X61413470Y-77281081D01*
X61378363Y-77296712D01*
X61323495Y-77308374D01*
X61275616Y-77322898D01*
X61237505Y-77326651D01*
X61194159Y-77335865D01*
X61143962Y-77335865D01*
X61100000Y-77340195D01*
X61056037Y-77335865D01*
X61005841Y-77335865D01*
X60962495Y-77326651D01*
X60924383Y-77322898D01*
X60876501Y-77308373D01*
X60821637Y-77296712D01*
X60786531Y-77281082D01*
X60755507Y-77271671D01*
X60706202Y-77245316D01*
X60649600Y-77220116D01*
X60623283Y-77200996D01*
X60599879Y-77188486D01*
X60552141Y-77149308D01*
X60497247Y-77109425D01*
X60479420Y-77089626D01*
X60463466Y-77076533D01*
X60420587Y-77024285D01*
X60371237Y-76969477D01*
X60360871Y-76951522D01*
X60351513Y-76940120D01*
X60316888Y-76875341D01*
X60277078Y-76806388D01*
X60272499Y-76792295D01*
X60268328Y-76784492D01*
X60245332Y-76708686D01*
X60218885Y-76627287D01*
X60217953Y-76618427D01*
X60217101Y-76615616D01*
X60208800Y-76531338D01*
X60199200Y-76440000D01*
X60208799Y-76348669D01*
X60217101Y-76264383D01*
X60217953Y-76261571D01*
X60218885Y-76252713D01*
X60245328Y-76171327D01*
X60268328Y-76095507D01*
X60272499Y-76087701D01*
X60277078Y-76073612D01*
X60316881Y-76004670D01*
X60351513Y-75939879D01*
X60360873Y-75928473D01*
X60371237Y-75910523D01*
X60420577Y-75855724D01*
X60463466Y-75803466D01*
X60479424Y-75790369D01*
X60497247Y-75770575D01*
X60552130Y-75730699D01*
X60599879Y-75691513D01*
X60623288Y-75679000D01*
X60649600Y-75659884D01*
X60706190Y-75634688D01*
X60755507Y-75608328D01*
X60786538Y-75598914D01*
X60821637Y-75583288D01*
X60876490Y-75571628D01*
X60924383Y-75557101D01*
X60962504Y-75553346D01*
X61005841Y-75544135D01*
X61056027Y-75544135D01*
X61100000Y-75539804D01*
X61143973Y-75544135D01*
G37*
G36*
X43343973Y-73009135D02*
G01*
X43394159Y-73009135D01*
X43437496Y-73018346D01*
X43475616Y-73022101D01*
X43523506Y-73036628D01*
X43578363Y-73048288D01*
X43613463Y-73063915D01*
X43644492Y-73073328D01*
X43693803Y-73099685D01*
X43750400Y-73124884D01*
X43776713Y-73144002D01*
X43800120Y-73156513D01*
X43847860Y-73195693D01*
X43902753Y-73235575D01*
X43920578Y-73255372D01*
X43936533Y-73268466D01*
X43979410Y-73320711D01*
X44028763Y-73375523D01*
X44039129Y-73393477D01*
X44048486Y-73404879D01*
X44083105Y-73469647D01*
X44122922Y-73538612D01*
X44127501Y-73552706D01*
X44131671Y-73560507D01*
X44154656Y-73636281D01*
X44181115Y-73717713D01*
X44182046Y-73726576D01*
X44182898Y-73729383D01*
X44191184Y-73813518D01*
X44200800Y-73905000D01*
X44191183Y-73996489D01*
X44182898Y-74080616D01*
X44182046Y-74083422D01*
X44181115Y-74092287D01*
X44154651Y-74173732D01*
X44131671Y-74249492D01*
X44127502Y-74257290D01*
X44122922Y-74271388D01*
X44083098Y-74340365D01*
X44048486Y-74405120D01*
X44039131Y-74416518D01*
X44028763Y-74434477D01*
X43979401Y-74489298D01*
X43936533Y-74541533D01*
X43920582Y-74554623D01*
X43902753Y-74574425D01*
X43847850Y-74614314D01*
X43800120Y-74653486D01*
X43776719Y-74665994D01*
X43750400Y-74685116D01*
X43693792Y-74710319D01*
X43644492Y-74736671D01*
X43613470Y-74746081D01*
X43578363Y-74761712D01*
X43523495Y-74773374D01*
X43475616Y-74787898D01*
X43437505Y-74791651D01*
X43394159Y-74800865D01*
X43343962Y-74800865D01*
X43300000Y-74805195D01*
X43256037Y-74800865D01*
X43205841Y-74800865D01*
X43162495Y-74791651D01*
X43124383Y-74787898D01*
X43076501Y-74773373D01*
X43021637Y-74761712D01*
X42986531Y-74746082D01*
X42955507Y-74736671D01*
X42906202Y-74710316D01*
X42849600Y-74685116D01*
X42823283Y-74665996D01*
X42799879Y-74653486D01*
X42752141Y-74614308D01*
X42697247Y-74574425D01*
X42679420Y-74554626D01*
X42663466Y-74541533D01*
X42620587Y-74489285D01*
X42571237Y-74434477D01*
X42560871Y-74416522D01*
X42551513Y-74405120D01*
X42516888Y-74340341D01*
X42477078Y-74271388D01*
X42472499Y-74257295D01*
X42468328Y-74249492D01*
X42445332Y-74173686D01*
X42418885Y-74092287D01*
X42417953Y-74083427D01*
X42417101Y-74080616D01*
X42408800Y-73996338D01*
X42399200Y-73905000D01*
X42408799Y-73813669D01*
X42417101Y-73729383D01*
X42417953Y-73726571D01*
X42418885Y-73717713D01*
X42445328Y-73636327D01*
X42468328Y-73560507D01*
X42472499Y-73552701D01*
X42477078Y-73538612D01*
X42516881Y-73469670D01*
X42551513Y-73404879D01*
X42560873Y-73393473D01*
X42571237Y-73375523D01*
X42620577Y-73320724D01*
X42663466Y-73268466D01*
X42679424Y-73255369D01*
X42697247Y-73235575D01*
X42752130Y-73195699D01*
X42799879Y-73156513D01*
X42823288Y-73144000D01*
X42849600Y-73124884D01*
X42906190Y-73099688D01*
X42955507Y-73073328D01*
X42986538Y-73063914D01*
X43021637Y-73048288D01*
X43076490Y-73036628D01*
X43124383Y-73022101D01*
X43162504Y-73018346D01*
X43205841Y-73009135D01*
X43256027Y-73009135D01*
X43300000Y-73004804D01*
X43343973Y-73009135D01*
G37*
G36*
X61143973Y-73004135D02*
G01*
X61194159Y-73004135D01*
X61237496Y-73013346D01*
X61275616Y-73017101D01*
X61323506Y-73031628D01*
X61378363Y-73043288D01*
X61413463Y-73058915D01*
X61444492Y-73068328D01*
X61493803Y-73094685D01*
X61550400Y-73119884D01*
X61576713Y-73139002D01*
X61600120Y-73151513D01*
X61647860Y-73190693D01*
X61702753Y-73230575D01*
X61720578Y-73250372D01*
X61736533Y-73263466D01*
X61779410Y-73315711D01*
X61828763Y-73370523D01*
X61839129Y-73388477D01*
X61848486Y-73399879D01*
X61883105Y-73464647D01*
X61922922Y-73533612D01*
X61927501Y-73547706D01*
X61931671Y-73555507D01*
X61954656Y-73631281D01*
X61981115Y-73712713D01*
X61982046Y-73721576D01*
X61982898Y-73724383D01*
X61991184Y-73808518D01*
X62000800Y-73900000D01*
X61991183Y-73991489D01*
X61982898Y-74075616D01*
X61982046Y-74078422D01*
X61981115Y-74087287D01*
X61954651Y-74168732D01*
X61931671Y-74244492D01*
X61927502Y-74252290D01*
X61922922Y-74266388D01*
X61883098Y-74335365D01*
X61848486Y-74400120D01*
X61839131Y-74411518D01*
X61828763Y-74429477D01*
X61779401Y-74484298D01*
X61736533Y-74536533D01*
X61720582Y-74549623D01*
X61702753Y-74569425D01*
X61647850Y-74609314D01*
X61600120Y-74648486D01*
X61576719Y-74660994D01*
X61550400Y-74680116D01*
X61493792Y-74705319D01*
X61444492Y-74731671D01*
X61413470Y-74741081D01*
X61378363Y-74756712D01*
X61323495Y-74768374D01*
X61275616Y-74782898D01*
X61237505Y-74786651D01*
X61194159Y-74795865D01*
X61143962Y-74795865D01*
X61100000Y-74800195D01*
X61056037Y-74795865D01*
X61005841Y-74795865D01*
X60962495Y-74786651D01*
X60924383Y-74782898D01*
X60876501Y-74768373D01*
X60821637Y-74756712D01*
X60786531Y-74741082D01*
X60755507Y-74731671D01*
X60706202Y-74705316D01*
X60649600Y-74680116D01*
X60623283Y-74660996D01*
X60599879Y-74648486D01*
X60552141Y-74609308D01*
X60497247Y-74569425D01*
X60479420Y-74549626D01*
X60463466Y-74536533D01*
X60420587Y-74484285D01*
X60371237Y-74429477D01*
X60360871Y-74411522D01*
X60351513Y-74400120D01*
X60316888Y-74335341D01*
X60277078Y-74266388D01*
X60272499Y-74252295D01*
X60268328Y-74244492D01*
X60245332Y-74168686D01*
X60218885Y-74087287D01*
X60217953Y-74078427D01*
X60217101Y-74075616D01*
X60208800Y-73991338D01*
X60199200Y-73900000D01*
X60208799Y-73808669D01*
X60217101Y-73724383D01*
X60217953Y-73721571D01*
X60218885Y-73712713D01*
X60245328Y-73631327D01*
X60268328Y-73555507D01*
X60272499Y-73547701D01*
X60277078Y-73533612D01*
X60316881Y-73464670D01*
X60351513Y-73399879D01*
X60360873Y-73388473D01*
X60371237Y-73370523D01*
X60420577Y-73315724D01*
X60463466Y-73263466D01*
X60479424Y-73250369D01*
X60497247Y-73230575D01*
X60552130Y-73190699D01*
X60599879Y-73151513D01*
X60623288Y-73139000D01*
X60649600Y-73119884D01*
X60706190Y-73094688D01*
X60755507Y-73068328D01*
X60786538Y-73058914D01*
X60821637Y-73043288D01*
X60876490Y-73031628D01*
X60924383Y-73017101D01*
X60962504Y-73013346D01*
X61005841Y-73004135D01*
X61056027Y-73004135D01*
X61100000Y-72999804D01*
X61143973Y-73004135D01*
G37*
G36*
X43343973Y-70469135D02*
G01*
X43394159Y-70469135D01*
X43437496Y-70478346D01*
X43475616Y-70482101D01*
X43523506Y-70496628D01*
X43578363Y-70508288D01*
X43613463Y-70523915D01*
X43644492Y-70533328D01*
X43693803Y-70559685D01*
X43750400Y-70584884D01*
X43776713Y-70604002D01*
X43800120Y-70616513D01*
X43847860Y-70655693D01*
X43902753Y-70695575D01*
X43920578Y-70715372D01*
X43936533Y-70728466D01*
X43979410Y-70780711D01*
X44028763Y-70835523D01*
X44039129Y-70853477D01*
X44048486Y-70864879D01*
X44083105Y-70929647D01*
X44122922Y-70998612D01*
X44127501Y-71012706D01*
X44131671Y-71020507D01*
X44154656Y-71096281D01*
X44181115Y-71177713D01*
X44182046Y-71186576D01*
X44182898Y-71189383D01*
X44191184Y-71273518D01*
X44200800Y-71365000D01*
X44191183Y-71456489D01*
X44182898Y-71540616D01*
X44182046Y-71543422D01*
X44181115Y-71552287D01*
X44154651Y-71633732D01*
X44131671Y-71709492D01*
X44127502Y-71717290D01*
X44122922Y-71731388D01*
X44083098Y-71800365D01*
X44048486Y-71865120D01*
X44039131Y-71876518D01*
X44028763Y-71894477D01*
X43979401Y-71949298D01*
X43936533Y-72001533D01*
X43920582Y-72014623D01*
X43902753Y-72034425D01*
X43847850Y-72074314D01*
X43800120Y-72113486D01*
X43776719Y-72125994D01*
X43750400Y-72145116D01*
X43693792Y-72170319D01*
X43644492Y-72196671D01*
X43613470Y-72206081D01*
X43578363Y-72221712D01*
X43523495Y-72233374D01*
X43475616Y-72247898D01*
X43437505Y-72251651D01*
X43394159Y-72260865D01*
X43343962Y-72260865D01*
X43300000Y-72265195D01*
X43256037Y-72260865D01*
X43205841Y-72260865D01*
X43162495Y-72251651D01*
X43124383Y-72247898D01*
X43076501Y-72233373D01*
X43021637Y-72221712D01*
X42986531Y-72206082D01*
X42955507Y-72196671D01*
X42906202Y-72170316D01*
X42849600Y-72145116D01*
X42823283Y-72125996D01*
X42799879Y-72113486D01*
X42752141Y-72074308D01*
X42697247Y-72034425D01*
X42679420Y-72014626D01*
X42663466Y-72001533D01*
X42620587Y-71949285D01*
X42571237Y-71894477D01*
X42560871Y-71876522D01*
X42551513Y-71865120D01*
X42516888Y-71800341D01*
X42477078Y-71731388D01*
X42472499Y-71717295D01*
X42468328Y-71709492D01*
X42445332Y-71633686D01*
X42418885Y-71552287D01*
X42417953Y-71543427D01*
X42417101Y-71540616D01*
X42408800Y-71456338D01*
X42399200Y-71365000D01*
X42408799Y-71273669D01*
X42417101Y-71189383D01*
X42417953Y-71186571D01*
X42418885Y-71177713D01*
X42445328Y-71096327D01*
X42468328Y-71020507D01*
X42472499Y-71012701D01*
X42477078Y-70998612D01*
X42516881Y-70929670D01*
X42551513Y-70864879D01*
X42560873Y-70853473D01*
X42571237Y-70835523D01*
X42620577Y-70780724D01*
X42663466Y-70728466D01*
X42679424Y-70715369D01*
X42697247Y-70695575D01*
X42752130Y-70655699D01*
X42799879Y-70616513D01*
X42823288Y-70604000D01*
X42849600Y-70584884D01*
X42906190Y-70559688D01*
X42955507Y-70533328D01*
X42986538Y-70523914D01*
X43021637Y-70508288D01*
X43076490Y-70496628D01*
X43124383Y-70482101D01*
X43162504Y-70478346D01*
X43205841Y-70469135D01*
X43256027Y-70469135D01*
X43300000Y-70464804D01*
X43343973Y-70469135D01*
G37*
G36*
X61143973Y-70464135D02*
G01*
X61194159Y-70464135D01*
X61237496Y-70473346D01*
X61275616Y-70477101D01*
X61323506Y-70491628D01*
X61378363Y-70503288D01*
X61413463Y-70518915D01*
X61444492Y-70528328D01*
X61493803Y-70554685D01*
X61550400Y-70579884D01*
X61576713Y-70599002D01*
X61600120Y-70611513D01*
X61647860Y-70650693D01*
X61702753Y-70690575D01*
X61720578Y-70710372D01*
X61736533Y-70723466D01*
X61779410Y-70775711D01*
X61828763Y-70830523D01*
X61839129Y-70848477D01*
X61848486Y-70859879D01*
X61883105Y-70924647D01*
X61922922Y-70993612D01*
X61927501Y-71007706D01*
X61931671Y-71015507D01*
X61954656Y-71091281D01*
X61981115Y-71172713D01*
X61982046Y-71181576D01*
X61982898Y-71184383D01*
X61991184Y-71268518D01*
X62000800Y-71360000D01*
X61991183Y-71451489D01*
X61982898Y-71535616D01*
X61982046Y-71538422D01*
X61981115Y-71547287D01*
X61954651Y-71628732D01*
X61931671Y-71704492D01*
X61927502Y-71712290D01*
X61922922Y-71726388D01*
X61883098Y-71795365D01*
X61848486Y-71860120D01*
X61839131Y-71871518D01*
X61828763Y-71889477D01*
X61779401Y-71944298D01*
X61736533Y-71996533D01*
X61720582Y-72009623D01*
X61702753Y-72029425D01*
X61647850Y-72069314D01*
X61600120Y-72108486D01*
X61576719Y-72120994D01*
X61550400Y-72140116D01*
X61493792Y-72165319D01*
X61444492Y-72191671D01*
X61413470Y-72201081D01*
X61378363Y-72216712D01*
X61323495Y-72228374D01*
X61275616Y-72242898D01*
X61237505Y-72246651D01*
X61194159Y-72255865D01*
X61143962Y-72255865D01*
X61100000Y-72260195D01*
X61056037Y-72255865D01*
X61005841Y-72255865D01*
X60962495Y-72246651D01*
X60924383Y-72242898D01*
X60876501Y-72228373D01*
X60821637Y-72216712D01*
X60786531Y-72201082D01*
X60755507Y-72191671D01*
X60706202Y-72165316D01*
X60649600Y-72140116D01*
X60623283Y-72120996D01*
X60599879Y-72108486D01*
X60552141Y-72069308D01*
X60497247Y-72029425D01*
X60479420Y-72009626D01*
X60463466Y-71996533D01*
X60420587Y-71944285D01*
X60371237Y-71889477D01*
X60360871Y-71871522D01*
X60351513Y-71860120D01*
X60316888Y-71795341D01*
X60277078Y-71726388D01*
X60272499Y-71712295D01*
X60268328Y-71704492D01*
X60245332Y-71628686D01*
X60218885Y-71547287D01*
X60217953Y-71538427D01*
X60217101Y-71535616D01*
X60208800Y-71451338D01*
X60199200Y-71360000D01*
X60208799Y-71268669D01*
X60217101Y-71184383D01*
X60217953Y-71181571D01*
X60218885Y-71172713D01*
X60245328Y-71091327D01*
X60268328Y-71015507D01*
X60272499Y-71007701D01*
X60277078Y-70993612D01*
X60316881Y-70924670D01*
X60351513Y-70859879D01*
X60360873Y-70848473D01*
X60371237Y-70830523D01*
X60420577Y-70775724D01*
X60463466Y-70723466D01*
X60479424Y-70710369D01*
X60497247Y-70690575D01*
X60552130Y-70650699D01*
X60599879Y-70611513D01*
X60623288Y-70599000D01*
X60649600Y-70579884D01*
X60706190Y-70554688D01*
X60755507Y-70528328D01*
X60786538Y-70518914D01*
X60821637Y-70503288D01*
X60876490Y-70491628D01*
X60924383Y-70477101D01*
X60962504Y-70473346D01*
X61005841Y-70464135D01*
X61056027Y-70464135D01*
X61100000Y-70459804D01*
X61143973Y-70464135D01*
G37*
G36*
X43343973Y-67929135D02*
G01*
X43394159Y-67929135D01*
X43437496Y-67938346D01*
X43475616Y-67942101D01*
X43523506Y-67956628D01*
X43578363Y-67968288D01*
X43613463Y-67983915D01*
X43644492Y-67993328D01*
X43693803Y-68019685D01*
X43750400Y-68044884D01*
X43776713Y-68064002D01*
X43800120Y-68076513D01*
X43847860Y-68115693D01*
X43902753Y-68155575D01*
X43920578Y-68175372D01*
X43936533Y-68188466D01*
X43979410Y-68240711D01*
X44028763Y-68295523D01*
X44039129Y-68313477D01*
X44048486Y-68324879D01*
X44083105Y-68389647D01*
X44122922Y-68458612D01*
X44127501Y-68472706D01*
X44131671Y-68480507D01*
X44154656Y-68556281D01*
X44181115Y-68637713D01*
X44182046Y-68646576D01*
X44182898Y-68649383D01*
X44191184Y-68733518D01*
X44200800Y-68825000D01*
X44191183Y-68916489D01*
X44182898Y-69000616D01*
X44182046Y-69003422D01*
X44181115Y-69012287D01*
X44154651Y-69093732D01*
X44131671Y-69169492D01*
X44127502Y-69177290D01*
X44122922Y-69191388D01*
X44083098Y-69260365D01*
X44048486Y-69325120D01*
X44039131Y-69336518D01*
X44028763Y-69354477D01*
X43979401Y-69409298D01*
X43936533Y-69461533D01*
X43920582Y-69474623D01*
X43902753Y-69494425D01*
X43847850Y-69534314D01*
X43800120Y-69573486D01*
X43776719Y-69585994D01*
X43750400Y-69605116D01*
X43693792Y-69630319D01*
X43644492Y-69656671D01*
X43613470Y-69666081D01*
X43578363Y-69681712D01*
X43523495Y-69693374D01*
X43475616Y-69707898D01*
X43437505Y-69711651D01*
X43394159Y-69720865D01*
X43343962Y-69720865D01*
X43300000Y-69725195D01*
X43256037Y-69720865D01*
X43205841Y-69720865D01*
X43162495Y-69711651D01*
X43124383Y-69707898D01*
X43076501Y-69693373D01*
X43021637Y-69681712D01*
X42986531Y-69666082D01*
X42955507Y-69656671D01*
X42906202Y-69630316D01*
X42849600Y-69605116D01*
X42823283Y-69585996D01*
X42799879Y-69573486D01*
X42752141Y-69534308D01*
X42697247Y-69494425D01*
X42679420Y-69474626D01*
X42663466Y-69461533D01*
X42620587Y-69409285D01*
X42571237Y-69354477D01*
X42560871Y-69336522D01*
X42551513Y-69325120D01*
X42516888Y-69260341D01*
X42477078Y-69191388D01*
X42472499Y-69177295D01*
X42468328Y-69169492D01*
X42445332Y-69093686D01*
X42418885Y-69012287D01*
X42417953Y-69003427D01*
X42417101Y-69000616D01*
X42408800Y-68916338D01*
X42399200Y-68825000D01*
X42408799Y-68733669D01*
X42417101Y-68649383D01*
X42417953Y-68646571D01*
X42418885Y-68637713D01*
X42445328Y-68556327D01*
X42468328Y-68480507D01*
X42472499Y-68472701D01*
X42477078Y-68458612D01*
X42516881Y-68389670D01*
X42551513Y-68324879D01*
X42560873Y-68313473D01*
X42571237Y-68295523D01*
X42620577Y-68240724D01*
X42663466Y-68188466D01*
X42679424Y-68175369D01*
X42697247Y-68155575D01*
X42752130Y-68115699D01*
X42799879Y-68076513D01*
X42823288Y-68064000D01*
X42849600Y-68044884D01*
X42906190Y-68019688D01*
X42955507Y-67993328D01*
X42986538Y-67983914D01*
X43021637Y-67968288D01*
X43076490Y-67956628D01*
X43124383Y-67942101D01*
X43162504Y-67938346D01*
X43205841Y-67929135D01*
X43256027Y-67929135D01*
X43300000Y-67924804D01*
X43343973Y-67929135D01*
G37*
G36*
X61143973Y-67924135D02*
G01*
X61194159Y-67924135D01*
X61237496Y-67933346D01*
X61275616Y-67937101D01*
X61323506Y-67951628D01*
X61378363Y-67963288D01*
X61413463Y-67978915D01*
X61444492Y-67988328D01*
X61493803Y-68014685D01*
X61550400Y-68039884D01*
X61576713Y-68059002D01*
X61600120Y-68071513D01*
X61647860Y-68110693D01*
X61702753Y-68150575D01*
X61720578Y-68170372D01*
X61736533Y-68183466D01*
X61779410Y-68235711D01*
X61828763Y-68290523D01*
X61839129Y-68308477D01*
X61848486Y-68319879D01*
X61883105Y-68384647D01*
X61922922Y-68453612D01*
X61927501Y-68467706D01*
X61931671Y-68475507D01*
X61954656Y-68551281D01*
X61981115Y-68632713D01*
X61982046Y-68641576D01*
X61982898Y-68644383D01*
X61991184Y-68728518D01*
X62000800Y-68820000D01*
X61991183Y-68911489D01*
X61982898Y-68995616D01*
X61982046Y-68998422D01*
X61981115Y-69007287D01*
X61954651Y-69088732D01*
X61931671Y-69164492D01*
X61927502Y-69172290D01*
X61922922Y-69186388D01*
X61883098Y-69255365D01*
X61848486Y-69320120D01*
X61839131Y-69331518D01*
X61828763Y-69349477D01*
X61779401Y-69404298D01*
X61736533Y-69456533D01*
X61720582Y-69469623D01*
X61702753Y-69489425D01*
X61647850Y-69529314D01*
X61600120Y-69568486D01*
X61576719Y-69580994D01*
X61550400Y-69600116D01*
X61493792Y-69625319D01*
X61444492Y-69651671D01*
X61413470Y-69661081D01*
X61378363Y-69676712D01*
X61323495Y-69688374D01*
X61275616Y-69702898D01*
X61237505Y-69706651D01*
X61194159Y-69715865D01*
X61143962Y-69715865D01*
X61100000Y-69720195D01*
X61056037Y-69715865D01*
X61005841Y-69715865D01*
X60962495Y-69706651D01*
X60924383Y-69702898D01*
X60876501Y-69688373D01*
X60821637Y-69676712D01*
X60786531Y-69661082D01*
X60755507Y-69651671D01*
X60706202Y-69625316D01*
X60649600Y-69600116D01*
X60623283Y-69580996D01*
X60599879Y-69568486D01*
X60552141Y-69529308D01*
X60497247Y-69489425D01*
X60479420Y-69469626D01*
X60463466Y-69456533D01*
X60420587Y-69404285D01*
X60371237Y-69349477D01*
X60360871Y-69331522D01*
X60351513Y-69320120D01*
X60316888Y-69255341D01*
X60277078Y-69186388D01*
X60272499Y-69172295D01*
X60268328Y-69164492D01*
X60245332Y-69088686D01*
X60218885Y-69007287D01*
X60217953Y-68998427D01*
X60217101Y-68995616D01*
X60208800Y-68911338D01*
X60199200Y-68820000D01*
X60208799Y-68728669D01*
X60217101Y-68644383D01*
X60217953Y-68641571D01*
X60218885Y-68632713D01*
X60245328Y-68551327D01*
X60268328Y-68475507D01*
X60272499Y-68467701D01*
X60277078Y-68453612D01*
X60316881Y-68384670D01*
X60351513Y-68319879D01*
X60360873Y-68308473D01*
X60371237Y-68290523D01*
X60420577Y-68235724D01*
X60463466Y-68183466D01*
X60479424Y-68170369D01*
X60497247Y-68150575D01*
X60552130Y-68110699D01*
X60599879Y-68071513D01*
X60623288Y-68059000D01*
X60649600Y-68039884D01*
X60706190Y-68014688D01*
X60755507Y-67988328D01*
X60786538Y-67978914D01*
X60821637Y-67963288D01*
X60876490Y-67951628D01*
X60924383Y-67937101D01*
X60962504Y-67933346D01*
X61005841Y-67924135D01*
X61056027Y-67924135D01*
X61100000Y-67919804D01*
X61143973Y-67924135D01*
G37*
G36*
X43343973Y-65389135D02*
G01*
X43394159Y-65389135D01*
X43437496Y-65398346D01*
X43475616Y-65402101D01*
X43523506Y-65416628D01*
X43578363Y-65428288D01*
X43613463Y-65443915D01*
X43644492Y-65453328D01*
X43693803Y-65479685D01*
X43750400Y-65504884D01*
X43776713Y-65524002D01*
X43800120Y-65536513D01*
X43847860Y-65575693D01*
X43902753Y-65615575D01*
X43920578Y-65635372D01*
X43936533Y-65648466D01*
X43979410Y-65700711D01*
X44028763Y-65755523D01*
X44039129Y-65773477D01*
X44048486Y-65784879D01*
X44083105Y-65849647D01*
X44122922Y-65918612D01*
X44127501Y-65932706D01*
X44131671Y-65940507D01*
X44154656Y-66016281D01*
X44181115Y-66097713D01*
X44182046Y-66106576D01*
X44182898Y-66109383D01*
X44191184Y-66193518D01*
X44200800Y-66285000D01*
X44191183Y-66376489D01*
X44182898Y-66460616D01*
X44182046Y-66463422D01*
X44181115Y-66472287D01*
X44154651Y-66553732D01*
X44131671Y-66629492D01*
X44127502Y-66637290D01*
X44122922Y-66651388D01*
X44083098Y-66720365D01*
X44048486Y-66785120D01*
X44039131Y-66796518D01*
X44028763Y-66814477D01*
X43979401Y-66869298D01*
X43936533Y-66921533D01*
X43920582Y-66934623D01*
X43902753Y-66954425D01*
X43847850Y-66994314D01*
X43800120Y-67033486D01*
X43776719Y-67045994D01*
X43750400Y-67065116D01*
X43693792Y-67090319D01*
X43644492Y-67116671D01*
X43613470Y-67126081D01*
X43578363Y-67141712D01*
X43523495Y-67153374D01*
X43475616Y-67167898D01*
X43437505Y-67171651D01*
X43394159Y-67180865D01*
X43343962Y-67180865D01*
X43300000Y-67185195D01*
X43256037Y-67180865D01*
X43205841Y-67180865D01*
X43162495Y-67171651D01*
X43124383Y-67167898D01*
X43076501Y-67153373D01*
X43021637Y-67141712D01*
X42986531Y-67126082D01*
X42955507Y-67116671D01*
X42906202Y-67090316D01*
X42849600Y-67065116D01*
X42823283Y-67045996D01*
X42799879Y-67033486D01*
X42752141Y-66994308D01*
X42697247Y-66954425D01*
X42679420Y-66934626D01*
X42663466Y-66921533D01*
X42620587Y-66869285D01*
X42571237Y-66814477D01*
X42560871Y-66796522D01*
X42551513Y-66785120D01*
X42516888Y-66720341D01*
X42477078Y-66651388D01*
X42472499Y-66637295D01*
X42468328Y-66629492D01*
X42445332Y-66553686D01*
X42418885Y-66472287D01*
X42417953Y-66463427D01*
X42417101Y-66460616D01*
X42408800Y-66376338D01*
X42399200Y-66285000D01*
X42408799Y-66193669D01*
X42417101Y-66109383D01*
X42417953Y-66106571D01*
X42418885Y-66097713D01*
X42445328Y-66016327D01*
X42468328Y-65940507D01*
X42472499Y-65932701D01*
X42477078Y-65918612D01*
X42516881Y-65849670D01*
X42551513Y-65784879D01*
X42560873Y-65773473D01*
X42571237Y-65755523D01*
X42620577Y-65700724D01*
X42663466Y-65648466D01*
X42679424Y-65635369D01*
X42697247Y-65615575D01*
X42752130Y-65575699D01*
X42799879Y-65536513D01*
X42823288Y-65524000D01*
X42849600Y-65504884D01*
X42906190Y-65479688D01*
X42955507Y-65453328D01*
X42986538Y-65443914D01*
X43021637Y-65428288D01*
X43076490Y-65416628D01*
X43124383Y-65402101D01*
X43162504Y-65398346D01*
X43205841Y-65389135D01*
X43256027Y-65389135D01*
X43300000Y-65384804D01*
X43343973Y-65389135D01*
G37*
G36*
X61143973Y-65384135D02*
G01*
X61194159Y-65384135D01*
X61237496Y-65393346D01*
X61275616Y-65397101D01*
X61323506Y-65411628D01*
X61378363Y-65423288D01*
X61413463Y-65438915D01*
X61444492Y-65448328D01*
X61493803Y-65474685D01*
X61550400Y-65499884D01*
X61576713Y-65519002D01*
X61600120Y-65531513D01*
X61647860Y-65570693D01*
X61702753Y-65610575D01*
X61720578Y-65630372D01*
X61736533Y-65643466D01*
X61779410Y-65695711D01*
X61828763Y-65750523D01*
X61839129Y-65768477D01*
X61848486Y-65779879D01*
X61883105Y-65844647D01*
X61922922Y-65913612D01*
X61927501Y-65927706D01*
X61931671Y-65935507D01*
X61954656Y-66011281D01*
X61981115Y-66092713D01*
X61982046Y-66101576D01*
X61982898Y-66104383D01*
X61991184Y-66188518D01*
X62000800Y-66280000D01*
X61991183Y-66371489D01*
X61982898Y-66455616D01*
X61982046Y-66458422D01*
X61981115Y-66467287D01*
X61954651Y-66548732D01*
X61931671Y-66624492D01*
X61927502Y-66632290D01*
X61922922Y-66646388D01*
X61883098Y-66715365D01*
X61848486Y-66780120D01*
X61839131Y-66791518D01*
X61828763Y-66809477D01*
X61779401Y-66864298D01*
X61736533Y-66916533D01*
X61720582Y-66929623D01*
X61702753Y-66949425D01*
X61647850Y-66989314D01*
X61600120Y-67028486D01*
X61576719Y-67040994D01*
X61550400Y-67060116D01*
X61493792Y-67085319D01*
X61444492Y-67111671D01*
X61413470Y-67121081D01*
X61378363Y-67136712D01*
X61323495Y-67148374D01*
X61275616Y-67162898D01*
X61237505Y-67166651D01*
X61194159Y-67175865D01*
X61143962Y-67175865D01*
X61100000Y-67180195D01*
X61056037Y-67175865D01*
X61005841Y-67175865D01*
X60962495Y-67166651D01*
X60924383Y-67162898D01*
X60876501Y-67148373D01*
X60821637Y-67136712D01*
X60786531Y-67121082D01*
X60755507Y-67111671D01*
X60706202Y-67085316D01*
X60649600Y-67060116D01*
X60623283Y-67040996D01*
X60599879Y-67028486D01*
X60552141Y-66989308D01*
X60497247Y-66949425D01*
X60479420Y-66929626D01*
X60463466Y-66916533D01*
X60420587Y-66864285D01*
X60371237Y-66809477D01*
X60360871Y-66791522D01*
X60351513Y-66780120D01*
X60316888Y-66715341D01*
X60277078Y-66646388D01*
X60272499Y-66632295D01*
X60268328Y-66624492D01*
X60245332Y-66548686D01*
X60218885Y-66467287D01*
X60217953Y-66458427D01*
X60217101Y-66455616D01*
X60208800Y-66371338D01*
X60199200Y-66280000D01*
X60208799Y-66188669D01*
X60217101Y-66104383D01*
X60217953Y-66101571D01*
X60218885Y-66092713D01*
X60245328Y-66011327D01*
X60268328Y-65935507D01*
X60272499Y-65927701D01*
X60277078Y-65913612D01*
X60316881Y-65844670D01*
X60351513Y-65779879D01*
X60360873Y-65768473D01*
X60371237Y-65750523D01*
X60420577Y-65695724D01*
X60463466Y-65643466D01*
X60479424Y-65630369D01*
X60497247Y-65610575D01*
X60552130Y-65570699D01*
X60599879Y-65531513D01*
X60623288Y-65519000D01*
X60649600Y-65499884D01*
X60706190Y-65474688D01*
X60755507Y-65448328D01*
X60786538Y-65438914D01*
X60821637Y-65423288D01*
X60876490Y-65411628D01*
X60924383Y-65397101D01*
X60962504Y-65393346D01*
X61005841Y-65384135D01*
X61056027Y-65384135D01*
X61100000Y-65379804D01*
X61143973Y-65384135D01*
G37*
G36*
X43343973Y-62849135D02*
G01*
X43394159Y-62849135D01*
X43437496Y-62858346D01*
X43475616Y-62862101D01*
X43523506Y-62876628D01*
X43578363Y-62888288D01*
X43613463Y-62903915D01*
X43644492Y-62913328D01*
X43693803Y-62939685D01*
X43750400Y-62964884D01*
X43776713Y-62984002D01*
X43800120Y-62996513D01*
X43847860Y-63035693D01*
X43902753Y-63075575D01*
X43920578Y-63095372D01*
X43936533Y-63108466D01*
X43979410Y-63160711D01*
X44028763Y-63215523D01*
X44039129Y-63233477D01*
X44048486Y-63244879D01*
X44083105Y-63309647D01*
X44122922Y-63378612D01*
X44127501Y-63392706D01*
X44131671Y-63400507D01*
X44154656Y-63476281D01*
X44181115Y-63557713D01*
X44182046Y-63566576D01*
X44182898Y-63569383D01*
X44191184Y-63653518D01*
X44200800Y-63745000D01*
X44191183Y-63836489D01*
X44182898Y-63920616D01*
X44182046Y-63923422D01*
X44181115Y-63932287D01*
X44154651Y-64013732D01*
X44131671Y-64089492D01*
X44127502Y-64097290D01*
X44122922Y-64111388D01*
X44083098Y-64180365D01*
X44048486Y-64245120D01*
X44039131Y-64256518D01*
X44028763Y-64274477D01*
X43979401Y-64329298D01*
X43936533Y-64381533D01*
X43920582Y-64394623D01*
X43902753Y-64414425D01*
X43847850Y-64454314D01*
X43800120Y-64493486D01*
X43776719Y-64505994D01*
X43750400Y-64525116D01*
X43693792Y-64550319D01*
X43644492Y-64576671D01*
X43613470Y-64586081D01*
X43578363Y-64601712D01*
X43523495Y-64613374D01*
X43475616Y-64627898D01*
X43437505Y-64631651D01*
X43394159Y-64640865D01*
X43343962Y-64640865D01*
X43300000Y-64645195D01*
X43256037Y-64640865D01*
X43205841Y-64640865D01*
X43162495Y-64631651D01*
X43124383Y-64627898D01*
X43076501Y-64613373D01*
X43021637Y-64601712D01*
X42986531Y-64586082D01*
X42955507Y-64576671D01*
X42906202Y-64550316D01*
X42849600Y-64525116D01*
X42823283Y-64505996D01*
X42799879Y-64493486D01*
X42752141Y-64454308D01*
X42697247Y-64414425D01*
X42679420Y-64394626D01*
X42663466Y-64381533D01*
X42620587Y-64329285D01*
X42571237Y-64274477D01*
X42560871Y-64256522D01*
X42551513Y-64245120D01*
X42516888Y-64180341D01*
X42477078Y-64111388D01*
X42472499Y-64097295D01*
X42468328Y-64089492D01*
X42445332Y-64013686D01*
X42418885Y-63932287D01*
X42417953Y-63923427D01*
X42417101Y-63920616D01*
X42408800Y-63836338D01*
X42399200Y-63745000D01*
X42408799Y-63653669D01*
X42417101Y-63569383D01*
X42417953Y-63566571D01*
X42418885Y-63557713D01*
X42445328Y-63476327D01*
X42468328Y-63400507D01*
X42472499Y-63392701D01*
X42477078Y-63378612D01*
X42516881Y-63309670D01*
X42551513Y-63244879D01*
X42560873Y-63233473D01*
X42571237Y-63215523D01*
X42620577Y-63160724D01*
X42663466Y-63108466D01*
X42679424Y-63095369D01*
X42697247Y-63075575D01*
X42752130Y-63035699D01*
X42799879Y-62996513D01*
X42823288Y-62984000D01*
X42849600Y-62964884D01*
X42906190Y-62939688D01*
X42955507Y-62913328D01*
X42986538Y-62903914D01*
X43021637Y-62888288D01*
X43076490Y-62876628D01*
X43124383Y-62862101D01*
X43162504Y-62858346D01*
X43205841Y-62849135D01*
X43256027Y-62849135D01*
X43300000Y-62844804D01*
X43343973Y-62849135D01*
G37*
G36*
X61143973Y-62844135D02*
G01*
X61194159Y-62844135D01*
X61237496Y-62853346D01*
X61275616Y-62857101D01*
X61323506Y-62871628D01*
X61378363Y-62883288D01*
X61413463Y-62898915D01*
X61444492Y-62908328D01*
X61493803Y-62934685D01*
X61550400Y-62959884D01*
X61576713Y-62979002D01*
X61600120Y-62991513D01*
X61647860Y-63030693D01*
X61702753Y-63070575D01*
X61720578Y-63090372D01*
X61736533Y-63103466D01*
X61779410Y-63155711D01*
X61828763Y-63210523D01*
X61839129Y-63228477D01*
X61848486Y-63239879D01*
X61883105Y-63304647D01*
X61922922Y-63373612D01*
X61927501Y-63387706D01*
X61931671Y-63395507D01*
X61954656Y-63471281D01*
X61981115Y-63552713D01*
X61982046Y-63561576D01*
X61982898Y-63564383D01*
X61991184Y-63648518D01*
X62000800Y-63740000D01*
X61991183Y-63831489D01*
X61982898Y-63915616D01*
X61982046Y-63918422D01*
X61981115Y-63927287D01*
X61954651Y-64008732D01*
X61931671Y-64084492D01*
X61927502Y-64092290D01*
X61922922Y-64106388D01*
X61883098Y-64175365D01*
X61848486Y-64240120D01*
X61839131Y-64251518D01*
X61828763Y-64269477D01*
X61779401Y-64324298D01*
X61736533Y-64376533D01*
X61720582Y-64389623D01*
X61702753Y-64409425D01*
X61647850Y-64449314D01*
X61600120Y-64488486D01*
X61576719Y-64500994D01*
X61550400Y-64520116D01*
X61493792Y-64545319D01*
X61444492Y-64571671D01*
X61413470Y-64581081D01*
X61378363Y-64596712D01*
X61323495Y-64608374D01*
X61275616Y-64622898D01*
X61237505Y-64626651D01*
X61194159Y-64635865D01*
X61143962Y-64635865D01*
X61100000Y-64640195D01*
X61056037Y-64635865D01*
X61005841Y-64635865D01*
X60962495Y-64626651D01*
X60924383Y-64622898D01*
X60876501Y-64608373D01*
X60821637Y-64596712D01*
X60786531Y-64581082D01*
X60755507Y-64571671D01*
X60706202Y-64545316D01*
X60649600Y-64520116D01*
X60623283Y-64500996D01*
X60599879Y-64488486D01*
X60552141Y-64449308D01*
X60497247Y-64409425D01*
X60479420Y-64389626D01*
X60463466Y-64376533D01*
X60420587Y-64324285D01*
X60371237Y-64269477D01*
X60360871Y-64251522D01*
X60351513Y-64240120D01*
X60316888Y-64175341D01*
X60277078Y-64106388D01*
X60272499Y-64092295D01*
X60268328Y-64084492D01*
X60245332Y-64008686D01*
X60218885Y-63927287D01*
X60217953Y-63918427D01*
X60217101Y-63915616D01*
X60208800Y-63831338D01*
X60199200Y-63740000D01*
X60208799Y-63648669D01*
X60217101Y-63564383D01*
X60217953Y-63561571D01*
X60218885Y-63552713D01*
X60245328Y-63471327D01*
X60268328Y-63395507D01*
X60272499Y-63387701D01*
X60277078Y-63373612D01*
X60316881Y-63304670D01*
X60351513Y-63239879D01*
X60360873Y-63228473D01*
X60371237Y-63210523D01*
X60420577Y-63155724D01*
X60463466Y-63103466D01*
X60479424Y-63090369D01*
X60497247Y-63070575D01*
X60552130Y-63030699D01*
X60599879Y-62991513D01*
X60623288Y-62979000D01*
X60649600Y-62959884D01*
X60706190Y-62934688D01*
X60755507Y-62908328D01*
X60786538Y-62898914D01*
X60821637Y-62883288D01*
X60876490Y-62871628D01*
X60924383Y-62857101D01*
X60962504Y-62853346D01*
X61005841Y-62844135D01*
X61056027Y-62844135D01*
X61100000Y-62839804D01*
X61143973Y-62844135D01*
G37*
G36*
X72325928Y-61979216D02*
G01*
X72371905Y-61979216D01*
X72423112Y-61988787D01*
X72480001Y-61994391D01*
X72523214Y-62007499D01*
X72562420Y-62014828D01*
X72616716Y-62035862D01*
X72677124Y-62054187D01*
X72711641Y-62072637D01*
X72743143Y-62084841D01*
X72797879Y-62118732D01*
X72858793Y-62151292D01*
X72884387Y-62172297D01*
X72907927Y-62186872D01*
X72960081Y-62234417D01*
X73018028Y-62281972D01*
X73035198Y-62302894D01*
X73051152Y-62317438D01*
X73097464Y-62378766D01*
X73148708Y-62441207D01*
X73158618Y-62459747D01*
X73167953Y-62472109D01*
X73205091Y-62546692D01*
X73245813Y-62622876D01*
X73250155Y-62637191D01*
X73254342Y-62645599D01*
X73279075Y-62732529D01*
X73305609Y-62819999D01*
X73306480Y-62828848D01*
X73307381Y-62832013D01*
X73316741Y-62933029D01*
X73325800Y-63025000D01*
X73316740Y-63116978D01*
X73307381Y-63217986D01*
X73306480Y-63221150D01*
X73305609Y-63230001D01*
X73279071Y-63317485D01*
X73254342Y-63404400D01*
X73250156Y-63412805D01*
X73245813Y-63427124D01*
X73205084Y-63503320D01*
X73167953Y-63577890D01*
X73158620Y-63590248D01*
X73148708Y-63608793D01*
X73097454Y-63671245D01*
X73051152Y-63732561D01*
X73035202Y-63747101D01*
X73018028Y-63768028D01*
X72960070Y-63815592D01*
X72907927Y-63863127D01*
X72884392Y-63877698D01*
X72858793Y-63898708D01*
X72797867Y-63931273D01*
X72743143Y-63965158D01*
X72711648Y-63977359D01*
X72677124Y-63995813D01*
X72616705Y-64014140D01*
X72562420Y-64035171D01*
X72523221Y-64042498D01*
X72480001Y-64055609D01*
X72423109Y-64061212D01*
X72371905Y-64070784D01*
X72325928Y-64070784D01*
X72275000Y-64075800D01*
X72224072Y-64070784D01*
X72178095Y-64070784D01*
X72126890Y-64061212D01*
X72069999Y-64055609D01*
X72026780Y-64042498D01*
X71987579Y-64035171D01*
X71933290Y-64014139D01*
X71872876Y-63995813D01*
X71838354Y-63977360D01*
X71806856Y-63965158D01*
X71752125Y-63931269D01*
X71691207Y-63898708D01*
X71665610Y-63877701D01*
X71642072Y-63863127D01*
X71589919Y-63815583D01*
X71531972Y-63768028D01*
X71514800Y-63747104D01*
X71498847Y-63732561D01*
X71452532Y-63671230D01*
X71401292Y-63608793D01*
X71391382Y-63590253D01*
X71382046Y-63577890D01*
X71344900Y-63503293D01*
X71304187Y-63427124D01*
X71299845Y-63412811D01*
X71295657Y-63404400D01*
X71270912Y-63317432D01*
X71244391Y-63230001D01*
X71243519Y-63221155D01*
X71242618Y-63217986D01*
X71233242Y-63116806D01*
X71224200Y-63025000D01*
X71233241Y-62933200D01*
X71242618Y-62832013D01*
X71243519Y-62828843D01*
X71244391Y-62819999D01*
X71270908Y-62732582D01*
X71295657Y-62645599D01*
X71299846Y-62637186D01*
X71304187Y-62622876D01*
X71344893Y-62546720D01*
X71382046Y-62472109D01*
X71391384Y-62459743D01*
X71401292Y-62441207D01*
X71452523Y-62378781D01*
X71498847Y-62317438D01*
X71514804Y-62302891D01*
X71531972Y-62281972D01*
X71589908Y-62234425D01*
X71642072Y-62186872D01*
X71665615Y-62172294D01*
X71691207Y-62151292D01*
X71752113Y-62118736D01*
X71806856Y-62084841D01*
X71838361Y-62072635D01*
X71872876Y-62054187D01*
X71933278Y-62035864D01*
X71987579Y-62014828D01*
X72026786Y-62007499D01*
X72069999Y-61994391D01*
X72126887Y-61988787D01*
X72178095Y-61979216D01*
X72224072Y-61979216D01*
X72275000Y-61974200D01*
X72325928Y-61979216D01*
G37*
G36*
X78825928Y-61979216D02*
G01*
X78871905Y-61979216D01*
X78923112Y-61988787D01*
X78980001Y-61994391D01*
X79023214Y-62007499D01*
X79062420Y-62014828D01*
X79116716Y-62035862D01*
X79177124Y-62054187D01*
X79211641Y-62072637D01*
X79243143Y-62084841D01*
X79297879Y-62118732D01*
X79358793Y-62151292D01*
X79384387Y-62172297D01*
X79407927Y-62186872D01*
X79460081Y-62234417D01*
X79518028Y-62281972D01*
X79535198Y-62302894D01*
X79551152Y-62317438D01*
X79597464Y-62378766D01*
X79648708Y-62441207D01*
X79658618Y-62459747D01*
X79667953Y-62472109D01*
X79705091Y-62546692D01*
X79745813Y-62622876D01*
X79750155Y-62637191D01*
X79754342Y-62645599D01*
X79779075Y-62732529D01*
X79805609Y-62819999D01*
X79806480Y-62828848D01*
X79807381Y-62832013D01*
X79816741Y-62933029D01*
X79825800Y-63025000D01*
X79816740Y-63116978D01*
X79807381Y-63217986D01*
X79806480Y-63221150D01*
X79805609Y-63230001D01*
X79779071Y-63317485D01*
X79754342Y-63404400D01*
X79750156Y-63412805D01*
X79745813Y-63427124D01*
X79705084Y-63503320D01*
X79667953Y-63577890D01*
X79658620Y-63590248D01*
X79648708Y-63608793D01*
X79597454Y-63671245D01*
X79551152Y-63732561D01*
X79535202Y-63747101D01*
X79518028Y-63768028D01*
X79460070Y-63815592D01*
X79407927Y-63863127D01*
X79384392Y-63877698D01*
X79358793Y-63898708D01*
X79297867Y-63931273D01*
X79243143Y-63965158D01*
X79211648Y-63977359D01*
X79177124Y-63995813D01*
X79116705Y-64014140D01*
X79062420Y-64035171D01*
X79023221Y-64042498D01*
X78980001Y-64055609D01*
X78923109Y-64061212D01*
X78871905Y-64070784D01*
X78825928Y-64070784D01*
X78775000Y-64075800D01*
X78724072Y-64070784D01*
X78678095Y-64070784D01*
X78626890Y-64061212D01*
X78569999Y-64055609D01*
X78526780Y-64042498D01*
X78487579Y-64035171D01*
X78433290Y-64014139D01*
X78372876Y-63995813D01*
X78338354Y-63977360D01*
X78306856Y-63965158D01*
X78252125Y-63931269D01*
X78191207Y-63898708D01*
X78165610Y-63877701D01*
X78142072Y-63863127D01*
X78089919Y-63815583D01*
X78031972Y-63768028D01*
X78014800Y-63747104D01*
X77998847Y-63732561D01*
X77952532Y-63671230D01*
X77901292Y-63608793D01*
X77891382Y-63590253D01*
X77882046Y-63577890D01*
X77844900Y-63503293D01*
X77804187Y-63427124D01*
X77799845Y-63412811D01*
X77795657Y-63404400D01*
X77770912Y-63317432D01*
X77744391Y-63230001D01*
X77743519Y-63221155D01*
X77742618Y-63217986D01*
X77733242Y-63116806D01*
X77724200Y-63025000D01*
X77733241Y-62933200D01*
X77742618Y-62832013D01*
X77743519Y-62828843D01*
X77744391Y-62819999D01*
X77770908Y-62732582D01*
X77795657Y-62645599D01*
X77799846Y-62637186D01*
X77804187Y-62622876D01*
X77844893Y-62546720D01*
X77882046Y-62472109D01*
X77891384Y-62459743D01*
X77901292Y-62441207D01*
X77952523Y-62378781D01*
X77998847Y-62317438D01*
X78014804Y-62302891D01*
X78031972Y-62281972D01*
X78089908Y-62234425D01*
X78142072Y-62186872D01*
X78165615Y-62172294D01*
X78191207Y-62151292D01*
X78252113Y-62118736D01*
X78306856Y-62084841D01*
X78338361Y-62072635D01*
X78372876Y-62054187D01*
X78433278Y-62035864D01*
X78487579Y-62014828D01*
X78526786Y-62007499D01*
X78569999Y-61994391D01*
X78626887Y-61988787D01*
X78678095Y-61979216D01*
X78724072Y-61979216D01*
X78775000Y-61974200D01*
X78825928Y-61979216D01*
G37*
G36*
X43343973Y-60309135D02*
G01*
X43394159Y-60309135D01*
X43437496Y-60318346D01*
X43475616Y-60322101D01*
X43523506Y-60336628D01*
X43578363Y-60348288D01*
X43613463Y-60363915D01*
X43644492Y-60373328D01*
X43693803Y-60399685D01*
X43750400Y-60424884D01*
X43776713Y-60444002D01*
X43800120Y-60456513D01*
X43847860Y-60495693D01*
X43902753Y-60535575D01*
X43920578Y-60555372D01*
X43936533Y-60568466D01*
X43979410Y-60620711D01*
X44028763Y-60675523D01*
X44039129Y-60693477D01*
X44048486Y-60704879D01*
X44083105Y-60769647D01*
X44122922Y-60838612D01*
X44127501Y-60852706D01*
X44131671Y-60860507D01*
X44154656Y-60936281D01*
X44181115Y-61017713D01*
X44182046Y-61026576D01*
X44182898Y-61029383D01*
X44191184Y-61113518D01*
X44200800Y-61205000D01*
X44191183Y-61296489D01*
X44182898Y-61380616D01*
X44182046Y-61383422D01*
X44181115Y-61392287D01*
X44154651Y-61473732D01*
X44131671Y-61549492D01*
X44127502Y-61557290D01*
X44122922Y-61571388D01*
X44083098Y-61640365D01*
X44048486Y-61705120D01*
X44039131Y-61716518D01*
X44028763Y-61734477D01*
X43979401Y-61789298D01*
X43936533Y-61841533D01*
X43920582Y-61854623D01*
X43902753Y-61874425D01*
X43847850Y-61914314D01*
X43800120Y-61953486D01*
X43776719Y-61965994D01*
X43750400Y-61985116D01*
X43693792Y-62010319D01*
X43644492Y-62036671D01*
X43613470Y-62046081D01*
X43578363Y-62061712D01*
X43523495Y-62073374D01*
X43475616Y-62087898D01*
X43437505Y-62091651D01*
X43394159Y-62100865D01*
X43343962Y-62100865D01*
X43300000Y-62105195D01*
X43256037Y-62100865D01*
X43205841Y-62100865D01*
X43162495Y-62091651D01*
X43124383Y-62087898D01*
X43076501Y-62073373D01*
X43021637Y-62061712D01*
X42986531Y-62046082D01*
X42955507Y-62036671D01*
X42906202Y-62010316D01*
X42849600Y-61985116D01*
X42823283Y-61965996D01*
X42799879Y-61953486D01*
X42752141Y-61914308D01*
X42697247Y-61874425D01*
X42679420Y-61854626D01*
X42663466Y-61841533D01*
X42620587Y-61789285D01*
X42571237Y-61734477D01*
X42560871Y-61716522D01*
X42551513Y-61705120D01*
X42516888Y-61640341D01*
X42477078Y-61571388D01*
X42472499Y-61557295D01*
X42468328Y-61549492D01*
X42445332Y-61473686D01*
X42418885Y-61392287D01*
X42417953Y-61383427D01*
X42417101Y-61380616D01*
X42408800Y-61296338D01*
X42399200Y-61205000D01*
X42408799Y-61113669D01*
X42417101Y-61029383D01*
X42417953Y-61026571D01*
X42418885Y-61017713D01*
X42445328Y-60936327D01*
X42468328Y-60860507D01*
X42472499Y-60852701D01*
X42477078Y-60838612D01*
X42516881Y-60769670D01*
X42551513Y-60704879D01*
X42560873Y-60693473D01*
X42571237Y-60675523D01*
X42620577Y-60620724D01*
X42663466Y-60568466D01*
X42679424Y-60555369D01*
X42697247Y-60535575D01*
X42752130Y-60495699D01*
X42799879Y-60456513D01*
X42823288Y-60444000D01*
X42849600Y-60424884D01*
X42906190Y-60399688D01*
X42955507Y-60373328D01*
X42986538Y-60363914D01*
X43021637Y-60348288D01*
X43076490Y-60336628D01*
X43124383Y-60322101D01*
X43162504Y-60318346D01*
X43205841Y-60309135D01*
X43256027Y-60309135D01*
X43300000Y-60304804D01*
X43343973Y-60309135D01*
G37*
G36*
X61143973Y-60304135D02*
G01*
X61194159Y-60304135D01*
X61237496Y-60313346D01*
X61275616Y-60317101D01*
X61323506Y-60331628D01*
X61378363Y-60343288D01*
X61413463Y-60358915D01*
X61444492Y-60368328D01*
X61493803Y-60394685D01*
X61550400Y-60419884D01*
X61576713Y-60439002D01*
X61600120Y-60451513D01*
X61647860Y-60490693D01*
X61702753Y-60530575D01*
X61720578Y-60550372D01*
X61736533Y-60563466D01*
X61779410Y-60615711D01*
X61828763Y-60670523D01*
X61839129Y-60688477D01*
X61848486Y-60699879D01*
X61883105Y-60764647D01*
X61922922Y-60833612D01*
X61927501Y-60847706D01*
X61931671Y-60855507D01*
X61954656Y-60931281D01*
X61981115Y-61012713D01*
X61982046Y-61021576D01*
X61982898Y-61024383D01*
X61991184Y-61108518D01*
X62000800Y-61200000D01*
X61991183Y-61291489D01*
X61982898Y-61375616D01*
X61982046Y-61378422D01*
X61981115Y-61387287D01*
X61954651Y-61468732D01*
X61931671Y-61544492D01*
X61927502Y-61552290D01*
X61922922Y-61566388D01*
X61883098Y-61635365D01*
X61848486Y-61700120D01*
X61839131Y-61711518D01*
X61828763Y-61729477D01*
X61779401Y-61784298D01*
X61736533Y-61836533D01*
X61720582Y-61849623D01*
X61702753Y-61869425D01*
X61647850Y-61909314D01*
X61600120Y-61948486D01*
X61576719Y-61960994D01*
X61550400Y-61980116D01*
X61493792Y-62005319D01*
X61444492Y-62031671D01*
X61413470Y-62041081D01*
X61378363Y-62056712D01*
X61323495Y-62068374D01*
X61275616Y-62082898D01*
X61237505Y-62086651D01*
X61194159Y-62095865D01*
X61143962Y-62095865D01*
X61100000Y-62100195D01*
X61056037Y-62095865D01*
X61005841Y-62095865D01*
X60962495Y-62086651D01*
X60924383Y-62082898D01*
X60876501Y-62068373D01*
X60821637Y-62056712D01*
X60786531Y-62041082D01*
X60755507Y-62031671D01*
X60706202Y-62005316D01*
X60649600Y-61980116D01*
X60623283Y-61960996D01*
X60599879Y-61948486D01*
X60552141Y-61909308D01*
X60497247Y-61869425D01*
X60479420Y-61849626D01*
X60463466Y-61836533D01*
X60420587Y-61784285D01*
X60371237Y-61729477D01*
X60360871Y-61711522D01*
X60351513Y-61700120D01*
X60316888Y-61635341D01*
X60277078Y-61566388D01*
X60272499Y-61552295D01*
X60268328Y-61544492D01*
X60245332Y-61468686D01*
X60218885Y-61387287D01*
X60217953Y-61378427D01*
X60217101Y-61375616D01*
X60208800Y-61291338D01*
X60199200Y-61200000D01*
X60208799Y-61108669D01*
X60217101Y-61024383D01*
X60217953Y-61021571D01*
X60218885Y-61012713D01*
X60245328Y-60931327D01*
X60268328Y-60855507D01*
X60272499Y-60847701D01*
X60277078Y-60833612D01*
X60316881Y-60764670D01*
X60351513Y-60699879D01*
X60360873Y-60688473D01*
X60371237Y-60670523D01*
X60420577Y-60615724D01*
X60463466Y-60563466D01*
X60479424Y-60550369D01*
X60497247Y-60530575D01*
X60552130Y-60490699D01*
X60599879Y-60451513D01*
X60623288Y-60439000D01*
X60649600Y-60419884D01*
X60706190Y-60394688D01*
X60755507Y-60368328D01*
X60786538Y-60358914D01*
X60821637Y-60343288D01*
X60876490Y-60331628D01*
X60924383Y-60317101D01*
X60962504Y-60313346D01*
X61005841Y-60304135D01*
X61056027Y-60304135D01*
X61100000Y-60299804D01*
X61143973Y-60304135D01*
G37*
G36*
X72325928Y-57479216D02*
G01*
X72371905Y-57479216D01*
X72423112Y-57488787D01*
X72480001Y-57494391D01*
X72523214Y-57507499D01*
X72562420Y-57514828D01*
X72616716Y-57535862D01*
X72677124Y-57554187D01*
X72711641Y-57572637D01*
X72743143Y-57584841D01*
X72797879Y-57618732D01*
X72858793Y-57651292D01*
X72884387Y-57672297D01*
X72907927Y-57686872D01*
X72960081Y-57734417D01*
X73018028Y-57781972D01*
X73035198Y-57802894D01*
X73051152Y-57817438D01*
X73097464Y-57878766D01*
X73148708Y-57941207D01*
X73158618Y-57959747D01*
X73167953Y-57972109D01*
X73205091Y-58046692D01*
X73245813Y-58122876D01*
X73250155Y-58137191D01*
X73254342Y-58145599D01*
X73279075Y-58232529D01*
X73305609Y-58319999D01*
X73306480Y-58328848D01*
X73307381Y-58332013D01*
X73316741Y-58433029D01*
X73325800Y-58525000D01*
X73316740Y-58616978D01*
X73307381Y-58717986D01*
X73306480Y-58721150D01*
X73305609Y-58730001D01*
X73279071Y-58817485D01*
X73254342Y-58904400D01*
X73250156Y-58912805D01*
X73245813Y-58927124D01*
X73205084Y-59003320D01*
X73167953Y-59077890D01*
X73158620Y-59090248D01*
X73148708Y-59108793D01*
X73097454Y-59171245D01*
X73051152Y-59232561D01*
X73035202Y-59247101D01*
X73018028Y-59268028D01*
X72960070Y-59315592D01*
X72907927Y-59363127D01*
X72884392Y-59377698D01*
X72858793Y-59398708D01*
X72797867Y-59431273D01*
X72743143Y-59465158D01*
X72711648Y-59477359D01*
X72677124Y-59495813D01*
X72616705Y-59514140D01*
X72562420Y-59535171D01*
X72523221Y-59542498D01*
X72480001Y-59555609D01*
X72423109Y-59561212D01*
X72371905Y-59570784D01*
X72325928Y-59570784D01*
X72275000Y-59575800D01*
X72224072Y-59570784D01*
X72178095Y-59570784D01*
X72126890Y-59561212D01*
X72069999Y-59555609D01*
X72026780Y-59542498D01*
X71987579Y-59535171D01*
X71933290Y-59514139D01*
X71872876Y-59495813D01*
X71838354Y-59477360D01*
X71806856Y-59465158D01*
X71752125Y-59431269D01*
X71691207Y-59398708D01*
X71665610Y-59377701D01*
X71642072Y-59363127D01*
X71589919Y-59315583D01*
X71531972Y-59268028D01*
X71514800Y-59247104D01*
X71498847Y-59232561D01*
X71452532Y-59171230D01*
X71401292Y-59108793D01*
X71391382Y-59090253D01*
X71382046Y-59077890D01*
X71344900Y-59003293D01*
X71304187Y-58927124D01*
X71299845Y-58912811D01*
X71295657Y-58904400D01*
X71270912Y-58817432D01*
X71244391Y-58730001D01*
X71243519Y-58721155D01*
X71242618Y-58717986D01*
X71233242Y-58616806D01*
X71224200Y-58525000D01*
X71233241Y-58433200D01*
X71242618Y-58332013D01*
X71243519Y-58328843D01*
X71244391Y-58319999D01*
X71270908Y-58232582D01*
X71295657Y-58145599D01*
X71299846Y-58137186D01*
X71304187Y-58122876D01*
X71344893Y-58046720D01*
X71382046Y-57972109D01*
X71391384Y-57959743D01*
X71401292Y-57941207D01*
X71452523Y-57878781D01*
X71498847Y-57817438D01*
X71514804Y-57802891D01*
X71531972Y-57781972D01*
X71589908Y-57734425D01*
X71642072Y-57686872D01*
X71665615Y-57672294D01*
X71691207Y-57651292D01*
X71752113Y-57618736D01*
X71806856Y-57584841D01*
X71838361Y-57572635D01*
X71872876Y-57554187D01*
X71933278Y-57535864D01*
X71987579Y-57514828D01*
X72026786Y-57507499D01*
X72069999Y-57494391D01*
X72126887Y-57488787D01*
X72178095Y-57479216D01*
X72224072Y-57479216D01*
X72275000Y-57474200D01*
X72325928Y-57479216D01*
G37*
G36*
X78825928Y-57479216D02*
G01*
X78871905Y-57479216D01*
X78923112Y-57488787D01*
X78980001Y-57494391D01*
X79023214Y-57507499D01*
X79062420Y-57514828D01*
X79116716Y-57535862D01*
X79177124Y-57554187D01*
X79211641Y-57572637D01*
X79243143Y-57584841D01*
X79297879Y-57618732D01*
X79358793Y-57651292D01*
X79384387Y-57672297D01*
X79407927Y-57686872D01*
X79460081Y-57734417D01*
X79518028Y-57781972D01*
X79535198Y-57802894D01*
X79551152Y-57817438D01*
X79597464Y-57878766D01*
X79648708Y-57941207D01*
X79658618Y-57959747D01*
X79667953Y-57972109D01*
X79705091Y-58046692D01*
X79745813Y-58122876D01*
X79750155Y-58137191D01*
X79754342Y-58145599D01*
X79779075Y-58232529D01*
X79805609Y-58319999D01*
X79806480Y-58328848D01*
X79807381Y-58332013D01*
X79816741Y-58433029D01*
X79825800Y-58525000D01*
X79816740Y-58616978D01*
X79807381Y-58717986D01*
X79806480Y-58721150D01*
X79805609Y-58730001D01*
X79779071Y-58817485D01*
X79754342Y-58904400D01*
X79750156Y-58912805D01*
X79745813Y-58927124D01*
X79705084Y-59003320D01*
X79667953Y-59077890D01*
X79658620Y-59090248D01*
X79648708Y-59108793D01*
X79597454Y-59171245D01*
X79551152Y-59232561D01*
X79535202Y-59247101D01*
X79518028Y-59268028D01*
X79460070Y-59315592D01*
X79407927Y-59363127D01*
X79384392Y-59377698D01*
X79358793Y-59398708D01*
X79297867Y-59431273D01*
X79243143Y-59465158D01*
X79211648Y-59477359D01*
X79177124Y-59495813D01*
X79116705Y-59514140D01*
X79062420Y-59535171D01*
X79023221Y-59542498D01*
X78980001Y-59555609D01*
X78923109Y-59561212D01*
X78871905Y-59570784D01*
X78825928Y-59570784D01*
X78775000Y-59575800D01*
X78724072Y-59570784D01*
X78678095Y-59570784D01*
X78626890Y-59561212D01*
X78569999Y-59555609D01*
X78526780Y-59542498D01*
X78487579Y-59535171D01*
X78433290Y-59514139D01*
X78372876Y-59495813D01*
X78338354Y-59477360D01*
X78306856Y-59465158D01*
X78252125Y-59431269D01*
X78191207Y-59398708D01*
X78165610Y-59377701D01*
X78142072Y-59363127D01*
X78089919Y-59315583D01*
X78031972Y-59268028D01*
X78014800Y-59247104D01*
X77998847Y-59232561D01*
X77952532Y-59171230D01*
X77901292Y-59108793D01*
X77891382Y-59090253D01*
X77882046Y-59077890D01*
X77844900Y-59003293D01*
X77804187Y-58927124D01*
X77799845Y-58912811D01*
X77795657Y-58904400D01*
X77770912Y-58817432D01*
X77744391Y-58730001D01*
X77743519Y-58721155D01*
X77742618Y-58717986D01*
X77733242Y-58616806D01*
X77724200Y-58525000D01*
X77733241Y-58433200D01*
X77742618Y-58332013D01*
X77743519Y-58328843D01*
X77744391Y-58319999D01*
X77770908Y-58232582D01*
X77795657Y-58145599D01*
X77799846Y-58137186D01*
X77804187Y-58122876D01*
X77844893Y-58046720D01*
X77882046Y-57972109D01*
X77891384Y-57959743D01*
X77901292Y-57941207D01*
X77952523Y-57878781D01*
X77998847Y-57817438D01*
X78014804Y-57802891D01*
X78031972Y-57781972D01*
X78089908Y-57734425D01*
X78142072Y-57686872D01*
X78165615Y-57672294D01*
X78191207Y-57651292D01*
X78252113Y-57618736D01*
X78306856Y-57584841D01*
X78338361Y-57572635D01*
X78372876Y-57554187D01*
X78433278Y-57535864D01*
X78487579Y-57514828D01*
X78526786Y-57507499D01*
X78569999Y-57494391D01*
X78626887Y-57488787D01*
X78678095Y-57479216D01*
X78724072Y-57479216D01*
X78775000Y-57474200D01*
X78825928Y-57479216D01*
G37*
G36*
X43343973Y-57769135D02*
G01*
X43394159Y-57769135D01*
X43437496Y-57778346D01*
X43475616Y-57782101D01*
X43523506Y-57796628D01*
X43578363Y-57808288D01*
X43613463Y-57823915D01*
X43644492Y-57833328D01*
X43693803Y-57859685D01*
X43750400Y-57884884D01*
X43776713Y-57904002D01*
X43800120Y-57916513D01*
X43847860Y-57955693D01*
X43902753Y-57995575D01*
X43920578Y-58015372D01*
X43936533Y-58028466D01*
X43979410Y-58080711D01*
X44028763Y-58135523D01*
X44039129Y-58153477D01*
X44048486Y-58164879D01*
X44083105Y-58229647D01*
X44122922Y-58298612D01*
X44127501Y-58312706D01*
X44131671Y-58320507D01*
X44154656Y-58396281D01*
X44181115Y-58477713D01*
X44182046Y-58486576D01*
X44182898Y-58489383D01*
X44191184Y-58573518D01*
X44200800Y-58665000D01*
X44191183Y-58756489D01*
X44182898Y-58840616D01*
X44182046Y-58843422D01*
X44181115Y-58852287D01*
X44154651Y-58933732D01*
X44131671Y-59009492D01*
X44127502Y-59017290D01*
X44122922Y-59031388D01*
X44083098Y-59100365D01*
X44048486Y-59165120D01*
X44039131Y-59176518D01*
X44028763Y-59194477D01*
X43979401Y-59249298D01*
X43936533Y-59301533D01*
X43920582Y-59314623D01*
X43902753Y-59334425D01*
X43847850Y-59374314D01*
X43800120Y-59413486D01*
X43776719Y-59425994D01*
X43750400Y-59445116D01*
X43693792Y-59470319D01*
X43644492Y-59496671D01*
X43613470Y-59506081D01*
X43578363Y-59521712D01*
X43523495Y-59533374D01*
X43475616Y-59547898D01*
X43437505Y-59551651D01*
X43394159Y-59560865D01*
X43343962Y-59560865D01*
X43300000Y-59565195D01*
X43256037Y-59560865D01*
X43205841Y-59560865D01*
X43162495Y-59551651D01*
X43124383Y-59547898D01*
X43076501Y-59533373D01*
X43021637Y-59521712D01*
X42986531Y-59506082D01*
X42955507Y-59496671D01*
X42906202Y-59470316D01*
X42849600Y-59445116D01*
X42823283Y-59425996D01*
X42799879Y-59413486D01*
X42752141Y-59374308D01*
X42697247Y-59334425D01*
X42679420Y-59314626D01*
X42663466Y-59301533D01*
X42620587Y-59249285D01*
X42571237Y-59194477D01*
X42560871Y-59176522D01*
X42551513Y-59165120D01*
X42516888Y-59100341D01*
X42477078Y-59031388D01*
X42472499Y-59017295D01*
X42468328Y-59009492D01*
X42445332Y-58933686D01*
X42418885Y-58852287D01*
X42417953Y-58843427D01*
X42417101Y-58840616D01*
X42408800Y-58756338D01*
X42399200Y-58665000D01*
X42408799Y-58573669D01*
X42417101Y-58489383D01*
X42417953Y-58486571D01*
X42418885Y-58477713D01*
X42445328Y-58396327D01*
X42468328Y-58320507D01*
X42472499Y-58312701D01*
X42477078Y-58298612D01*
X42516881Y-58229670D01*
X42551513Y-58164879D01*
X42560873Y-58153473D01*
X42571237Y-58135523D01*
X42620577Y-58080724D01*
X42663466Y-58028466D01*
X42679424Y-58015369D01*
X42697247Y-57995575D01*
X42752130Y-57955699D01*
X42799879Y-57916513D01*
X42823288Y-57904000D01*
X42849600Y-57884884D01*
X42906190Y-57859688D01*
X42955507Y-57833328D01*
X42986538Y-57823914D01*
X43021637Y-57808288D01*
X43076490Y-57796628D01*
X43124383Y-57782101D01*
X43162504Y-57778346D01*
X43205841Y-57769135D01*
X43256027Y-57769135D01*
X43300000Y-57764804D01*
X43343973Y-57769135D01*
G37*
G36*
X61143973Y-57764135D02*
G01*
X61194159Y-57764135D01*
X61237496Y-57773346D01*
X61275616Y-57777101D01*
X61323506Y-57791628D01*
X61378363Y-57803288D01*
X61413463Y-57818915D01*
X61444492Y-57828328D01*
X61493803Y-57854685D01*
X61550400Y-57879884D01*
X61576713Y-57899002D01*
X61600120Y-57911513D01*
X61647860Y-57950693D01*
X61702753Y-57990575D01*
X61720578Y-58010372D01*
X61736533Y-58023466D01*
X61779410Y-58075711D01*
X61828763Y-58130523D01*
X61839129Y-58148477D01*
X61848486Y-58159879D01*
X61883105Y-58224647D01*
X61922922Y-58293612D01*
X61927501Y-58307706D01*
X61931671Y-58315507D01*
X61954656Y-58391281D01*
X61981115Y-58472713D01*
X61982046Y-58481576D01*
X61982898Y-58484383D01*
X61991184Y-58568518D01*
X62000800Y-58660000D01*
X61991183Y-58751489D01*
X61982898Y-58835616D01*
X61982046Y-58838422D01*
X61981115Y-58847287D01*
X61954651Y-58928732D01*
X61931671Y-59004492D01*
X61927502Y-59012290D01*
X61922922Y-59026388D01*
X61883098Y-59095365D01*
X61848486Y-59160120D01*
X61839131Y-59171518D01*
X61828763Y-59189477D01*
X61779401Y-59244298D01*
X61736533Y-59296533D01*
X61720582Y-59309623D01*
X61702753Y-59329425D01*
X61647850Y-59369314D01*
X61600120Y-59408486D01*
X61576719Y-59420994D01*
X61550400Y-59440116D01*
X61493792Y-59465319D01*
X61444492Y-59491671D01*
X61413470Y-59501081D01*
X61378363Y-59516712D01*
X61323495Y-59528374D01*
X61275616Y-59542898D01*
X61237505Y-59546651D01*
X61194159Y-59555865D01*
X61143962Y-59555865D01*
X61100000Y-59560195D01*
X61056037Y-59555865D01*
X61005841Y-59555865D01*
X60962495Y-59546651D01*
X60924383Y-59542898D01*
X60876501Y-59528373D01*
X60821637Y-59516712D01*
X60786531Y-59501082D01*
X60755507Y-59491671D01*
X60706202Y-59465316D01*
X60649600Y-59440116D01*
X60623283Y-59420996D01*
X60599879Y-59408486D01*
X60552141Y-59369308D01*
X60497247Y-59329425D01*
X60479420Y-59309626D01*
X60463466Y-59296533D01*
X60420587Y-59244285D01*
X60371237Y-59189477D01*
X60360871Y-59171522D01*
X60351513Y-59160120D01*
X60316888Y-59095341D01*
X60277078Y-59026388D01*
X60272499Y-59012295D01*
X60268328Y-59004492D01*
X60245332Y-58928686D01*
X60218885Y-58847287D01*
X60217953Y-58838427D01*
X60217101Y-58835616D01*
X60208800Y-58751338D01*
X60199200Y-58660000D01*
X60208799Y-58568669D01*
X60217101Y-58484383D01*
X60217953Y-58481571D01*
X60218885Y-58472713D01*
X60245328Y-58391327D01*
X60268328Y-58315507D01*
X60272499Y-58307701D01*
X60277078Y-58293612D01*
X60316881Y-58224670D01*
X60351513Y-58159879D01*
X60360873Y-58148473D01*
X60371237Y-58130523D01*
X60420577Y-58075724D01*
X60463466Y-58023466D01*
X60479424Y-58010369D01*
X60497247Y-57990575D01*
X60552130Y-57950699D01*
X60599879Y-57911513D01*
X60623288Y-57899000D01*
X60649600Y-57879884D01*
X60706190Y-57854688D01*
X60755507Y-57828328D01*
X60786538Y-57818914D01*
X60821637Y-57803288D01*
X60876490Y-57791628D01*
X60924383Y-57777101D01*
X60962504Y-57773346D01*
X61005841Y-57764135D01*
X61056027Y-57764135D01*
X61100000Y-57759804D01*
X61143973Y-57764135D01*
G37*
G36*
X44169440Y-55228067D02*
G01*
X44185921Y-55239079D01*
X44196933Y-55255560D01*
X44200800Y-55275000D01*
X44200800Y-56975000D01*
X44196933Y-56994440D01*
X44185921Y-57010921D01*
X44169440Y-57021933D01*
X44150000Y-57025800D01*
X42450000Y-57025800D01*
X42430560Y-57021933D01*
X42414079Y-57010921D01*
X42403067Y-56994440D01*
X42399200Y-56975000D01*
X42399200Y-55275000D01*
X42403067Y-55255560D01*
X42414079Y-55239079D01*
X42430560Y-55228067D01*
X42450000Y-55224200D01*
X44150000Y-55224200D01*
X44169440Y-55228067D01*
G37*
G36*
X61969440Y-55223067D02*
G01*
X61985921Y-55234079D01*
X61996933Y-55250560D01*
X62000800Y-55270000D01*
X62000800Y-56970000D01*
X61996933Y-56989440D01*
X61985921Y-57005921D01*
X61969440Y-57016933D01*
X61950000Y-57020800D01*
X60250000Y-57020800D01*
X60230560Y-57016933D01*
X60214079Y-57005921D01*
X60203067Y-56989440D01*
X60199200Y-56970000D01*
X60199200Y-55270000D01*
X60203067Y-55250560D01*
X60214079Y-55234079D01*
X60230560Y-55223067D01*
X60250000Y-55219200D01*
X61950000Y-55219200D01*
X61969440Y-55223067D01*
G37*
M02*
