M48
; DRILL file {KiCad 8.0.4} date 2024-09-11T17:50:29+0200
; FORMAT={-:-/ absolute / inch / decimal}
; #@! TF.CreationDate,2024-09-11T17:50:29+02:00
; #@! TF.GenerationSoftware,Kicad,Pcbnew,8.0.4
; #@! TF.FileFunction,Plated,1,2,PTH
FMAT,2
INCH
; #@! TA.AperFunction,Plated,PTH,ViaDrill
T1C0.0157
; #@! TA.AperFunction,Plated,PTH,ComponentDrill
T2C0.0315
; #@! TA.AperFunction,Plated,PTH,ComponentDrill
T3C0.0394
; #@! TA.AperFunction,Plated,PTH,ComponentDrill
T4C0.0433
%
G90
G05
T1
X1.275Y-4.891
X1.4071Y-4.1273
X1.7196Y-5.0105
X1.788Y-5.0001
X1.7993Y-3.1343
X2.2221Y-3.5359
X2.503Y-4.4008
X2.6555Y-4.5838
X2.7148Y-4.7197
T2
X1.2604Y-3.6124
X1.2604Y-3.9124
T3
X1.7047Y-2.2096
X1.7047Y-2.3096
X1.7047Y-2.4096
X1.7047Y-2.5096
X1.7047Y-2.6096
X1.7047Y-2.7096
X1.7047Y-2.8096
X1.7047Y-2.9096
X1.7047Y-3.0096
X1.7047Y-3.1096
X1.7047Y-3.2096
X1.7047Y-3.3096
X1.7047Y-3.4096
X1.7047Y-3.5096
X1.7047Y-3.6096
X1.7047Y-3.7096
X1.7047Y-3.8096
X1.7047Y-3.9096
X1.7047Y-4.0096
X1.7047Y-4.1096
X2.4055Y-2.2094
X2.4055Y-2.3094
X2.4055Y-2.4094
X2.4055Y-2.5094
X2.4055Y-2.6094
X2.4055Y-2.7094
X2.4055Y-2.8094
X2.4055Y-2.9094
X2.4055Y-3.0094
X2.4055Y-3.1094
X2.4055Y-3.2094
X2.4055Y-3.3094
X2.4055Y-3.4094
X2.4055Y-3.5094
X2.4055Y-3.6094
X2.4055Y-3.7094
X2.4055Y-3.8094
X2.4055Y-3.9094
X2.4055Y-4.0094
X2.4055Y-4.1094
T4
X2.8455Y-2.3041
X2.8455Y-2.4813
X3.1014Y-2.3041
X3.1014Y-2.4813
M30
