%TF.GenerationSoftware,KiCad,Pcbnew,8.0.4*%
%TF.CreationDate,2024-09-11T17:50:29+02:00*%
%TF.ProjectId,PicoPAC,5069636f-5041-4432-9e6b-696361645f70,rev?*%
%TF.SameCoordinates,Original*%
%TF.FileFunction,Copper,L1,Top*%
%TF.FilePolarity,Positive*%
%FSLAX46Y46*%
G04 Gerber Fmt 4.6, Leading zero omitted, Abs format (unit mm)*
G04 Created by KiCad (PCBNEW 8.0.4) date 2024-09-11 17:50:29*
%MOMM*%
%LPD*%
G01*
G04 APERTURE LIST*
%TA.AperFunction,SMDPad,CuDef*%
%ADD10R,2.000000X8.000000*%
%TD*%
%TA.AperFunction,ComponentPad*%
%ADD11C,2.000000*%
%TD*%
%TA.AperFunction,ComponentPad*%
%ADD12R,1.700000X1.700000*%
%TD*%
%TA.AperFunction,ComponentPad*%
%ADD13O,1.700000X1.700000*%
%TD*%
%TA.AperFunction,ComponentPad*%
%ADD14R,1.600000X1.600000*%
%TD*%
%TA.AperFunction,ComponentPad*%
%ADD15O,1.600000X1.600000*%
%TD*%
%TA.AperFunction,ViaPad*%
%ADD16C,0.800000*%
%TD*%
%TA.AperFunction,Conductor*%
%ADD17C,0.250000*%
%TD*%
G04 APERTURE END LIST*
D10*
%TO.P,J1,1,T0*%
%TO.N,T0*%
X26500000Y-134000000D03*
%TO.P,J1,2,B0*%
%TO.N,D0*%
X30429000Y-134000000D03*
%TO.P,J1,3,B1*%
%TO.N,D1*%
X34357000Y-134000000D03*
%TO.P,J1,4,B2*%
%TO.N,D2*%
X38286000Y-134000000D03*
%TO.P,J1,5,B3*%
%TO.N,D3*%
X42214000Y-134000000D03*
%TO.P,J1,6,B4*%
%TO.N,D4*%
X46143000Y-134000000D03*
%TO.P,J1,7,B5*%
%TO.N,D5*%
X50071000Y-134000000D03*
%TO.P,J1,8,B6*%
%TO.N,D6*%
X54000000Y-134000000D03*
%TO.P,J1,9,B7*%
%TO.N,D7*%
X57929000Y-134000000D03*
%TO.P,J1,10,A10*%
%TO.N,A10*%
X61857000Y-134000000D03*
%TO.P,J1,11,CS*%
%TO.N,CS*%
X65786000Y-134000000D03*
%TO.P,J1,12,P11*%
%TO.N,A12*%
X69714000Y-134000000D03*
%TO.P,J1,13,P10*%
%TO.N,A13*%
X73643000Y-134000000D03*
%TO.P,J1,14,A11*%
%TO.N,A11*%
X77571000Y-134000000D03*
%TO.P,J1,15,A9*%
%TO.N,A9*%
X81500000Y-134000000D03*
%TD*%
D11*
%TO.P,SW1,1,1*%
%TO.N,RST*%
X72275000Y-58525000D03*
X78775000Y-58525000D03*
%TO.P,SW1,2,2*%
%TO.N,GND*%
X72275000Y-63025000D03*
X78775000Y-63025000D03*
%TD*%
D12*
%TO.P,J3,1,Pin_1*%
%TO.N,unconnected-(J3-Pin_1-Pad1)*%
X61100000Y-56120000D03*
D13*
%TO.P,J3,2,Pin_2*%
%TO.N,Net-(D1-K)*%
X61100000Y-58660000D03*
%TO.P,J3,3,Pin_3*%
%TO.N,GND*%
X61100000Y-61200000D03*
%TO.P,J3,4,Pin_4*%
%TO.N,unconnected-(J3-Pin_4-Pad4)*%
X61100000Y-63740000D03*
%TO.P,J3,5,Pin_5*%
%TO.N,unconnected-(J3-Pin_5-Pad5)*%
X61100000Y-66280000D03*
%TO.P,J3,6,Pin_6*%
%TO.N,GND*%
X61100000Y-68820000D03*
%TO.P,J3,7,Pin_7*%
%TO.N,RST*%
X61100000Y-71360000D03*
%TO.P,J3,8,Pin_8*%
%TO.N,unconnected-(J3-Pin_8-Pad8)*%
X61100000Y-73900000D03*
%TO.P,J3,9,Pin_9*%
%TO.N,unconnected-(J3-Pin_9-Pad9)*%
X61100000Y-76440000D03*
%TO.P,J3,10,Pin_10*%
%TO.N,T0*%
X61100000Y-78980000D03*
%TO.P,J3,11,Pin_11*%
%TO.N,~{CS}*%
X61100000Y-81520000D03*
%TO.P,J3,12,Pin_12*%
%TO.N,GND*%
X61100000Y-84060000D03*
%TO.P,J3,13,Pin_13*%
%TO.N,unconnected-(J3-Pin_13-Pad13)*%
X61100000Y-86600000D03*
%TO.P,J3,14,Pin_14*%
%TO.N,CS*%
X61100000Y-89140000D03*
%TO.P,J3,15,Pin_15*%
%TO.N,~{WR}*%
X61100000Y-91680000D03*
%TO.P,J3,16,Pin_16*%
%TO.N,~{PSEN}*%
X61100000Y-94220000D03*
%TO.P,J3,17,Pin_17*%
%TO.N,D7*%
X61100000Y-96760000D03*
%TO.P,J3,18,Pin_18*%
%TO.N,D6*%
X61100000Y-99300000D03*
%TO.P,J3,19,Pin_19*%
%TO.N,D5*%
X61100000Y-101840000D03*
%TO.P,J3,20,Pin_20*%
%TO.N,D4*%
X61100000Y-104380000D03*
%TD*%
D14*
%TO.P,D1,1,K*%
%TO.N,Net-(D1-K)*%
X32015000Y-99375000D03*
D15*
%TO.P,D1,2,A*%
%TO.N,+5V*%
X32015000Y-91755000D03*
%TD*%
D12*
%TO.P,J2,1,Pin_1*%
%TO.N,A0*%
X43300000Y-56125000D03*
D13*
%TO.P,J2,2,Pin_2*%
%TO.N,A1*%
X43300000Y-58665000D03*
%TO.P,J2,3,Pin_3*%
%TO.N,A2*%
X43300000Y-61205000D03*
%TO.P,J2,4,Pin_4*%
%TO.N,A3*%
X43300000Y-63745000D03*
%TO.P,J2,5,Pin_5*%
%TO.N,A4*%
X43300000Y-66285000D03*
%TO.P,J2,6,Pin_6*%
%TO.N,GND*%
X43300000Y-68825000D03*
%TO.P,J2,7,Pin_7*%
%TO.N,A5*%
X43300000Y-71365000D03*
%TO.P,J2,8,Pin_8*%
%TO.N,A6*%
X43300000Y-73905000D03*
%TO.P,J2,9,Pin_9*%
%TO.N,A7*%
X43300000Y-76445000D03*
%TO.P,J2,10,Pin_10*%
%TO.N,A8*%
X43300000Y-78985000D03*
%TO.P,J2,11,Pin_11*%
%TO.N,A9*%
X43300000Y-81525000D03*
%TO.P,J2,12,Pin_12*%
%TO.N,A10*%
X43300000Y-84065000D03*
%TO.P,J2,13,Pin_13*%
%TO.N,A11*%
X43300000Y-86605000D03*
%TO.P,J2,14,Pin_14*%
%TO.N,A12*%
X43300000Y-89145000D03*
%TO.P,J2,15,Pin_15*%
%TO.N,GND*%
X43300000Y-91685000D03*
%TO.P,J2,16,Pin_16*%
%TO.N,A13*%
X43300000Y-94225000D03*
%TO.P,J2,17,Pin_17*%
%TO.N,D0*%
X43300000Y-96765000D03*
%TO.P,J2,18,Pin_18*%
%TO.N,D1*%
X43300000Y-99305000D03*
%TO.P,J2,19,Pin_19*%
%TO.N,D2*%
X43300000Y-101845000D03*
%TO.P,J2,20,Pin_20*%
%TO.N,D3*%
X43300000Y-104385000D03*
%TD*%
D16*
%TO.N,GND*%
X35740200Y-104834500D03*
%TO.N,A10*%
X63575000Y-111780300D03*
%TO.N,~{CS}*%
X43677400Y-127266100D03*
X56442500Y-89811600D03*
%TO.N,~{PSEN}*%
X45415700Y-127003600D03*
%TO.N,A12*%
X67449900Y-116427600D03*
%TO.N,A8*%
X45702700Y-79611500D03*
%TO.N,A13*%
X68956600Y-119881600D03*
%TO.N,~{WR}*%
X32385400Y-124231600D03*
%TD*%
D17*
%TO.N,A9*%
X44476700Y-81525000D02*
X43300000Y-81525000D01*
X74650000Y-98451300D02*
X61528700Y-85330000D01*
X81500000Y-121825000D02*
X74650000Y-114975000D01*
X81500000Y-134000000D02*
X81500000Y-121825000D01*
X74650000Y-114975000D02*
X74650000Y-98451300D01*
X61528700Y-85330000D02*
X48281700Y-85330000D01*
X48281700Y-85330000D02*
X44476700Y-81525000D01*
%TO.N,T0*%
X26500000Y-121225000D02*
X26500000Y-134000000D01*
X31933700Y-103228000D02*
X31933700Y-115791300D01*
X41403800Y-81755400D02*
X41403800Y-93757900D01*
X42814400Y-80344800D02*
X41403800Y-81755400D01*
X59923300Y-78980000D02*
X58558500Y-80344800D01*
X58558500Y-80344800D02*
X42814400Y-80344800D01*
X41403800Y-93757900D02*
X31933700Y-103228000D01*
X31933700Y-115791300D02*
X26500000Y-121225000D01*
X61100000Y-78980000D02*
X59923300Y-78980000D01*
%TO.N,GND*%
X61467700Y-69996700D02*
X62276700Y-70805700D01*
X61467800Y-82883300D02*
X61100000Y-82883300D01*
X62276700Y-82074400D02*
X61467800Y-82883300D01*
X61100000Y-68820000D02*
X61100000Y-69996700D01*
X61100000Y-69996700D02*
X61467700Y-69996700D01*
X61100000Y-84060000D02*
X61100000Y-82883300D01*
X43300000Y-91685000D02*
X43300000Y-92861700D01*
X42955400Y-92861700D02*
X35740200Y-100076900D01*
X35740200Y-100076900D02*
X35740200Y-104834500D01*
X62276700Y-70805700D02*
X62276700Y-82074400D01*
X43300000Y-92861700D02*
X42955400Y-92861700D01*
%TO.N,Net-(D1-K)*%
X32015000Y-99375000D02*
X32015000Y-98248300D01*
X33141700Y-97121600D02*
X33141700Y-87472100D01*
X60732200Y-59836700D02*
X61100000Y-59836700D01*
X59923300Y-61490800D02*
X59923300Y-60645600D01*
X61100000Y-58660000D02*
X61100000Y-59836700D01*
X43699100Y-77715000D02*
X59923300Y-61490800D01*
X42898800Y-77715000D02*
X43699100Y-77715000D01*
X59923300Y-60645600D02*
X60732200Y-59836700D01*
X32015000Y-98248300D02*
X33141700Y-97121600D01*
X33141700Y-87472100D02*
X42898800Y-77715000D01*
%TO.N,A10*%
X61857000Y-134000000D02*
X61857000Y-129673300D01*
X61857000Y-129673300D02*
X63575000Y-127955300D01*
X63575000Y-127955300D02*
X63575000Y-111780300D01*
%TO.N,D3*%
X42214000Y-106647700D02*
X42214000Y-134000000D01*
X43300000Y-104385000D02*
X43300000Y-105561700D01*
X43300000Y-105561700D02*
X42214000Y-106647700D01*
%TO.N,D7*%
X63186800Y-99655800D02*
X63186800Y-111113200D01*
X61100000Y-97936700D02*
X61467700Y-97936700D01*
X61100000Y-96760000D02*
X61100000Y-97936700D01*
X57929000Y-132634000D02*
X57929000Y-134000000D01*
X57920000Y-132625000D02*
X57920000Y-134000000D01*
X62833700Y-111466300D02*
X62833700Y-126336300D01*
X57920000Y-131250000D02*
X57920000Y-132625000D01*
X61467700Y-97936700D02*
X63186800Y-99655800D01*
X57920000Y-132625000D02*
X57929000Y-132634000D01*
X62833700Y-126336300D02*
X57920000Y-131250000D01*
X63186800Y-111113200D02*
X62833700Y-111466300D01*
%TO.N,A11*%
X45653400Y-87781700D02*
X44476700Y-86605000D01*
X77520000Y-131250000D02*
X77520000Y-119692600D01*
X73529800Y-115702400D02*
X73529800Y-99900500D01*
X43300000Y-86605000D02*
X44476700Y-86605000D01*
X73529800Y-99900500D02*
X61411000Y-87781700D01*
X61411000Y-87781700D02*
X45653400Y-87781700D01*
X77520000Y-132625000D02*
X77571000Y-132676000D01*
X77520000Y-132625000D02*
X77520000Y-131250000D01*
X77520000Y-134000000D02*
X77520000Y-132625000D01*
X77571000Y-132676000D02*
X77571000Y-134000000D01*
X77520000Y-119692600D02*
X73529800Y-115702400D01*
%TO.N,~{CS}*%
X43677400Y-111819100D02*
X56442500Y-99054000D01*
X43677400Y-127266100D02*
X43677400Y-111819100D01*
X56442500Y-99054000D02*
X56442500Y-89811600D01*
%TO.N,D2*%
X38286000Y-129673300D02*
X39800200Y-128159100D01*
X39800200Y-128159100D02*
X39800200Y-106159800D01*
X43300000Y-101845000D02*
X43300000Y-103021700D01*
X38286000Y-134000000D02*
X38286000Y-129673300D01*
X42938300Y-103021700D02*
X43300000Y-103021700D01*
X39800200Y-106159800D02*
X42938300Y-103021700D01*
%TO.N,~{PSEN}*%
X45640000Y-110495300D02*
X60738600Y-95396700D01*
X60738600Y-95396700D02*
X61100000Y-95396700D01*
X61100000Y-94220000D02*
X61100000Y-95396700D01*
X45640000Y-126779300D02*
X45640000Y-110495300D01*
X45415700Y-127003600D02*
X45640000Y-126779300D01*
%TO.N,A12*%
X69680000Y-131250000D02*
X67449900Y-129019900D01*
X69680000Y-132625000D02*
X69680000Y-134000000D01*
X67449900Y-129019900D02*
X67449900Y-116427600D01*
X69714000Y-132659000D02*
X69714000Y-134000000D01*
X69680000Y-131250000D02*
X69680000Y-132625000D01*
X69680000Y-132625000D02*
X69714000Y-132659000D01*
%TO.N,D5*%
X61467800Y-103016700D02*
X62276700Y-103825600D01*
X61100000Y-103016700D02*
X61467800Y-103016700D01*
X50071000Y-134000000D02*
X50071000Y-129673300D01*
X61100000Y-101840000D02*
X61100000Y-103016700D01*
X50071000Y-122951400D02*
X50071000Y-129673300D01*
X62276700Y-110745700D02*
X50071000Y-122951400D01*
X62276700Y-103825600D02*
X62276700Y-110745700D01*
%TO.N,D0*%
X42932200Y-97941700D02*
X42123300Y-98750600D01*
X42123300Y-98750600D02*
X42123300Y-100146500D01*
X35994700Y-106275100D02*
X35994700Y-124107600D01*
X43300000Y-97941700D02*
X42932200Y-97941700D01*
X42123300Y-100146500D02*
X35994700Y-106275100D01*
X35994700Y-124107600D02*
X30429000Y-129673300D01*
X30429000Y-134000000D02*
X30429000Y-129673300D01*
X43300000Y-96765000D02*
X43300000Y-97941700D01*
%TO.N,A8*%
X45103200Y-79611500D02*
X44476700Y-78985000D01*
X43300000Y-78985000D02*
X44476700Y-78985000D01*
X45702700Y-79611500D02*
X45103200Y-79611500D01*
%TO.N,A13*%
X73643000Y-132668000D02*
X73643000Y-134000000D01*
X73600000Y-131250000D02*
X73600000Y-124525000D01*
X73600000Y-134000000D02*
X73600000Y-132625000D01*
X73600000Y-132625000D02*
X73643000Y-132668000D01*
X73600000Y-124525000D02*
X68956600Y-119881600D01*
X73600000Y-132625000D02*
X73600000Y-131250000D01*
%TO.N,D1*%
X42943100Y-100481700D02*
X43300000Y-100481700D01*
X39123600Y-124906700D02*
X39123600Y-104301200D01*
X34357000Y-134000000D02*
X34357000Y-129673300D01*
X34357000Y-129673300D02*
X39123600Y-124906700D01*
X39123600Y-104301200D02*
X42943100Y-100481700D01*
X43300000Y-99305000D02*
X43300000Y-100481700D01*
%TO.N,~{WR}*%
X32385400Y-109245500D02*
X32385400Y-124231600D01*
X57328200Y-89084900D02*
X56141600Y-89084900D01*
X59923300Y-91680000D02*
X57328200Y-89084900D01*
X49731600Y-95494900D02*
X49731600Y-95495000D01*
X56141600Y-89084900D02*
X49731600Y-95494900D01*
X39878700Y-98514200D02*
X39878700Y-101752200D01*
X39878700Y-101752200D02*
X32385400Y-109245500D01*
X61100000Y-91680000D02*
X59923300Y-91680000D01*
X42897900Y-95495000D02*
X39878700Y-98514200D01*
X49731600Y-95495000D02*
X42897900Y-95495000D01*
%TO.N,D6*%
X61100000Y-100476700D02*
X61467800Y-100476700D01*
X62735100Y-101744000D02*
X62735100Y-110926100D01*
X62382000Y-122618000D02*
X54000000Y-131000000D01*
X62735100Y-110926100D02*
X62382000Y-111279200D01*
X62382000Y-111279200D02*
X62382000Y-122618000D01*
X61467800Y-100476700D02*
X62735100Y-101744000D01*
X54000000Y-134000000D02*
X54000000Y-131000000D01*
X61100000Y-99300000D02*
X61100000Y-100476700D01*
%TO.N,CS*%
X61100000Y-90316700D02*
X61461700Y-90316700D01*
X61461700Y-90316700D02*
X65786000Y-94641000D01*
X61100000Y-89140000D02*
X61100000Y-90316700D01*
X65786000Y-134000000D02*
X65786000Y-129673300D01*
X65786000Y-94641000D02*
X65786000Y-129673300D01*
%TO.N,D4*%
X46143000Y-120513700D02*
X46143000Y-134000000D01*
X61100000Y-105556700D02*
X46143000Y-120513700D01*
X61100000Y-104380000D02*
X61100000Y-105556700D01*
%TO.N,RST*%
X63250000Y-67550000D02*
X60690900Y-67550000D01*
X59921400Y-70181400D02*
X61100000Y-71360000D01*
X60690900Y-67550000D02*
X59921400Y-68319500D01*
X59921400Y-68319500D02*
X59921400Y-70181400D01*
X72275000Y-58525000D02*
X63250000Y-67550000D01*
%TD*%
M02*
